<svg width="161.718mm" height="89.254mm" viewBox="0 0 161.718 89.254" xmlns="http://www.w3.org/2000/svg"><g id="svgGroup" stroke-linecap="round" fill-rule="evenodd" font-size="9pt" stroke="#000" stroke-width="0.25mm" fill="none" style="stroke:#000;stroke-width:0.25mm;fill:none"><path d="M 9.03 0 L 158.718 0 A 3 3 0 0 1 161.718 3 L 161.718 75 A 3 3 0 0 1 158.718 78 L 102.718 78 A 3 3 0 0 1 99.718 75 L 99.718 70.548 A 3 3 0 0 0 96.67 67.549 L 58.076 68.167 A 3 3 0 0 0 55.147 71.532 L 55.703 76.065 A 3 3 0 0 1 53.515 79.325 L 17.481 89.149 A 3 3 0 0 1 14.094 87.754 L 0.402 64.039 A 3 3 0 0 1 0 62.539 L 0 9.518 A 3 3 0 0 1 0.798 7.481 L 6.828 0.963 A 3 3 0 0 1 9.03 0 Z" vector-effect="non-scaling-stroke"/></g></svg>