<svg width="161.718mm" height="89.254mm" viewBox="0 0 161.718 89.254" xmlns="http://www.w3.org/2000/svg"><g id="svgGroup" stroke-linecap="round" fill-rule="evenodd" font-size="9pt" stroke="#000" stroke-width="0.25mm" fill="none" style="stroke:#000;stroke-width:0.25mm;fill:none"><path d="M 9.03 0 L 158.718 0 A 3 3 0 0 1 161.718 3 L 161.718 75 A 3 3 0 0 1 158.718 78 L 102.718 78 A 3 3 0 0 1 99.718 75 L 99.718 70.548 A 3 3 0 0 0 96.67 67.549 L 58.076 68.167 A 3 3 0 0 0 55.147 71.532 L 55.703 76.065 A 3 3 0 0 1 53.515 79.325 L 17.481 89.149 A 3 3 0 0 1 14.094 87.754 L 0.402 64.039 A 3 3 0 0 1 0 62.539 L 0 9.518 A 3 3 0 0 1 0.798 7.481 L 6.828 0.963 A 3 3 0 0 1 9.03 0 Z M 2.366 65.441 L 14.616 86.659 A 2 2 0 0 0 17.348 87.391 L 30.338 79.891 A 2 2 0 0 0 31.071 77.159 L 18.821 55.941 A 2 2 0 0 0 16.088 55.209 L 3.098 62.709 A 2 2 0 0 0 2.366 65.441 Z M 29.968 19.75 L 44.468 19.75 A 2 2 0 0 0 46.468 17.75 L 46.468 3.25 A 2 2 0 0 0 44.468 1.25 L 29.968 1.25 A 2 2 0 0 0 27.968 3.25 L 27.968 17.75 A 2 2 0 0 0 29.968 19.75 Z M 48.968 19.75 L 63.468 19.75 A 2 2 0 0 0 65.468 17.75 L 65.468 3.25 A 2 2 0 0 0 63.468 1.25 L 48.968 1.25 A 2 2 0 0 0 46.968 3.25 L 46.968 17.75 A 2 2 0 0 0 48.968 19.75 Z M 67.968 19.75 L 82.468 19.75 A 2 2 0 0 0 84.468 17.75 L 84.468 3.25 A 2 2 0 0 0 82.468 1.25 L 67.968 1.25 A 2 2 0 0 0 65.968 3.25 L 65.968 17.75 A 2 2 0 0 0 67.968 19.75 Z M 86.968 19.75 L 101.468 19.75 A 2 2 0 0 0 103.468 17.75 L 103.468 3.25 A 2 2 0 0 0 101.468 1.25 L 86.968 1.25 A 2 2 0 0 0 84.968 3.25 L 84.968 17.75 A 2 2 0 0 0 86.968 19.75 Z M 105.968 19.75 L 120.468 19.75 A 2 2 0 0 0 122.468 17.75 L 122.468 3.25 A 2 2 0 0 0 120.468 1.25 L 105.968 1.25 A 2 2 0 0 0 103.968 3.25 L 103.968 17.75 A 2 2 0 0 0 105.968 19.75 Z M 124.968 19.75 L 139.468 19.75 A 2 2 0 0 0 141.468 17.75 L 141.468 3.25 A 2 2 0 0 0 139.468 1.25 L 124.968 1.25 A 2 2 0 0 0 122.968 3.25 L 122.968 17.75 A 2 2 0 0 0 124.968 19.75 Z M 143.968 19.75 L 158.468 19.75 A 2 2 0 0 0 160.468 17.75 L 160.468 3.25 A 2 2 0 0 0 158.468 1.25 L 143.968 1.25 A 2 2 0 0 0 141.968 3.25 L 141.968 17.75 A 2 2 0 0 0 143.968 19.75 Z M 36.998 38.75 L 51.498 38.75 A 2 2 0 0 0 53.498 36.75 L 53.498 22.25 A 2 2 0 0 0 51.498 20.25 L 36.998 20.25 A 2 2 0 0 0 34.998 22.25 L 34.998 36.75 A 2 2 0 0 0 36.998 38.75 Z M 55.998 38.75 L 70.498 38.75 A 2 2 0 0 0 72.498 36.75 L 72.498 22.25 A 2 2 0 0 0 70.498 20.25 L 55.998 20.25 A 2 2 0 0 0 53.998 22.25 L 53.998 36.75 A 2 2 0 0 0 55.998 38.75 Z M 74.998 38.75 L 89.498 38.75 A 2 2 0 0 0 91.498 36.75 L 91.498 22.25 A 2 2 0 0 0 89.498 20.25 L 74.998 20.25 A 2 2 0 0 0 72.998 22.25 L 72.998 36.75 A 2 2 0 0 0 74.998 38.75 Z M 93.998 38.75 L 108.498 38.75 A 2 2 0 0 0 110.498 36.75 L 110.498 22.25 A 2 2 0 0 0 108.498 20.25 L 93.998 20.25 A 2 2 0 0 0 91.998 22.25 L 91.998 36.75 A 2 2 0 0 0 93.998 38.75 Z M 112.998 38.75 L 127.498 38.75 A 2 2 0 0 0 129.498 36.75 L 129.498 22.25 A 2 2 0 0 0 127.498 20.25 L 112.998 20.25 A 2 2 0 0 0 110.998 22.25 L 110.998 36.75 A 2 2 0 0 0 112.998 38.75 Z M 131.998 38.75 L 146.498 38.75 A 2 2 0 0 0 148.498 36.75 L 148.498 22.25 A 2 2 0 0 0 146.498 20.25 L 131.998 20.25 A 2 2 0 0 0 129.998 22.25 L 129.998 36.75 A 2 2 0 0 0 131.998 38.75 Z M 26.968 57.75 L 41.468 57.75 A 2 2 0 0 0 43.468 55.75 L 43.468 41.25 A 2 2 0 0 0 41.468 39.25 L 26.968 39.25 A 2 2 0 0 0 24.968 41.25 L 24.968 55.75 A 2 2 0 0 0 26.968 57.75 Z M 45.968 57.75 L 60.468 57.75 A 2 2 0 0 0 62.468 55.75 L 62.468 41.25 A 2 2 0 0 0 60.468 39.25 L 45.968 39.25 A 2 2 0 0 0 43.968 41.25 L 43.968 55.75 A 2 2 0 0 0 45.968 57.75 Z M 64.968 57.75 L 79.468 57.75 A 2 2 0 0 0 81.468 55.75 L 81.468 41.25 A 2 2 0 0 0 79.468 39.25 L 64.968 39.25 A 2 2 0 0 0 62.968 41.25 L 62.968 55.75 A 2 2 0 0 0 64.968 57.75 Z M 83.968 57.75 L 98.468 57.75 A 2 2 0 0 0 100.468 55.75 L 100.468 41.25 A 2 2 0 0 0 98.468 39.25 L 83.968 39.25 A 2 2 0 0 0 81.968 41.25 L 81.968 55.75 A 2 2 0 0 0 83.968 57.75 Z M 102.968 57.75 L 117.468 57.75 A 2 2 0 0 0 119.468 55.75 L 119.468 41.25 A 2 2 0 0 0 117.468 39.25 L 102.968 39.25 A 2 2 0 0 0 100.968 41.25 L 100.968 55.75 A 2 2 0 0 0 102.968 57.75 Z M 121.968 57.75 L 136.468 57.75 A 2 2 0 0 0 138.468 55.75 L 138.468 41.25 A 2 2 0 0 0 136.468 39.25 L 121.968 39.25 A 2 2 0 0 0 119.968 41.25 L 119.968 55.75 A 2 2 0 0 0 121.968 57.75 Z M 140.968 57.75 L 155.468 57.75 A 2 2 0 0 0 157.468 55.75 L 157.468 41.25 A 2 2 0 0 0 155.468 39.25 L 140.968 39.25 A 2 2 0 0 0 138.968 41.25 L 138.968 55.75 A 2 2 0 0 0 140.968 57.75 Z M 102.968 76.75 L 117.468 76.75 A 2 2 0 0 0 119.468 74.75 L 119.468 60.25 A 2 2 0 0 0 117.468 58.25 L 102.968 58.25 A 2 2 0 0 0 100.968 60.25 L 100.968 74.75 A 2 2 0 0 0 102.968 76.75 Z M 121.968 76.75 L 136.468 76.75 A 2 2 0 0 0 138.468 74.75 L 138.468 60.25 A 2 2 0 0 0 136.468 58.25 L 121.968 58.25 A 2 2 0 0 0 119.968 60.25 L 119.968 74.75 A 2 2 0 0 0 121.968 76.75 Z M 140.968 76.75 L 155.468 76.75 A 2 2 0 0 0 157.468 74.75 L 157.468 60.25 A 2 2 0 0 0 155.468 58.25 L 140.968 58.25 A 2 2 0 0 0 138.968 60.25 L 138.968 74.75 A 2 2 0 0 0 140.968 76.75 Z M 38.25 79.565 L 52.642 77.797 A 2 2 0 0 0 54.383 75.569 L 52.616 61.177 A 2 2 0 0 0 50.387 59.435 L 35.995 61.203 A 2 2 0 0 0 34.254 63.431 L 36.021 77.823 A 2 2 0 0 0 38.25 79.565 Z" vector-effect="non-scaling-stroke"/></g></svg>