<svg width="158.37mm" height="86.409mm" viewBox="0 0 158.37 86.409" xmlns="http://www.w3.org/2000/svg"><g id="svgGroup" stroke-linecap="round" fill-rule="evenodd" font-size="9pt" stroke="#000" stroke-width="0.25mm" fill="none" style="stroke:#000;stroke-width:0.25mm;fill:none"><path d="M 0.268 64.191 L 12.518 85.409 A 2 2 0 0 0 15.25 86.141 L 28.24 78.641 A 2 2 0 0 0 28.972 75.909 L 16.722 54.691 A 2 2 0 0 0 13.99 53.959 L 1 61.459 A 2 2 0 0 0 0.268 64.191 Z M 27.87 18.5 L 42.37 18.5 A 2 2 0 0 0 44.37 16.5 L 44.37 2 A 2 2 0 0 0 42.37 0 L 27.87 0 A 2 2 0 0 0 25.87 2 L 25.87 16.5 A 2 2 0 0 0 27.87 18.5 Z M 46.87 18.5 L 61.37 18.5 A 2 2 0 0 0 63.37 16.5 L 63.37 2 A 2 2 0 0 0 61.37 0 L 46.87 0 A 2 2 0 0 0 44.87 2 L 44.87 16.5 A 2 2 0 0 0 46.87 18.5 Z M 65.87 18.5 L 80.37 18.5 A 2 2 0 0 0 82.37 16.5 L 82.37 2 A 2 2 0 0 0 80.37 0 L 65.87 0 A 2 2 0 0 0 63.87 2 L 63.87 16.5 A 2 2 0 0 0 65.87 18.5 Z M 84.87 18.5 L 99.37 18.5 A 2 2 0 0 0 101.37 16.5 L 101.37 2 A 2 2 0 0 0 99.37 0 L 84.87 0 A 2 2 0 0 0 82.87 2 L 82.87 16.5 A 2 2 0 0 0 84.87 18.5 Z M 103.87 18.5 L 118.37 18.5 A 2 2 0 0 0 120.37 16.5 L 120.37 2 A 2 2 0 0 0 118.37 0 L 103.87 0 A 2 2 0 0 0 101.87 2 L 101.87 16.5 A 2 2 0 0 0 103.87 18.5 Z M 122.87 18.5 L 137.37 18.5 A 2 2 0 0 0 139.37 16.5 L 139.37 2 A 2 2 0 0 0 137.37 0 L 122.87 0 A 2 2 0 0 0 120.87 2 L 120.87 16.5 A 2 2 0 0 0 122.87 18.5 Z M 141.87 18.5 L 156.37 18.5 A 2 2 0 0 0 158.37 16.5 L 158.37 2 A 2 2 0 0 0 156.37 0 L 141.87 0 A 2 2 0 0 0 139.87 2 L 139.87 16.5 A 2 2 0 0 0 141.87 18.5 Z M 34.9 37.5 L 49.4 37.5 A 2 2 0 0 0 51.4 35.5 L 51.4 21 A 2 2 0 0 0 49.4 19 L 34.9 19 A 2 2 0 0 0 32.9 21 L 32.9 35.5 A 2 2 0 0 0 34.9 37.5 Z M 53.9 37.5 L 68.4 37.5 A 2 2 0 0 0 70.4 35.5 L 70.4 21 A 2 2 0 0 0 68.4 19 L 53.9 19 A 2 2 0 0 0 51.9 21 L 51.9 35.5 A 2 2 0 0 0 53.9 37.5 Z M 72.9 37.5 L 87.4 37.5 A 2 2 0 0 0 89.4 35.5 L 89.4 21 A 2 2 0 0 0 87.4 19 L 72.9 19 A 2 2 0 0 0 70.9 21 L 70.9 35.5 A 2 2 0 0 0 72.9 37.5 Z M 91.9 37.5 L 106.4 37.5 A 2 2 0 0 0 108.4 35.5 L 108.4 21 A 2 2 0 0 0 106.4 19 L 91.9 19 A 2 2 0 0 0 89.9 21 L 89.9 35.5 A 2 2 0 0 0 91.9 37.5 Z M 110.9 37.5 L 125.4 37.5 A 2 2 0 0 0 127.4 35.5 L 127.4 21 A 2 2 0 0 0 125.4 19 L 110.9 19 A 2 2 0 0 0 108.9 21 L 108.9 35.5 A 2 2 0 0 0 110.9 37.5 Z M 129.9 37.5 L 144.4 37.5 A 2 2 0 0 0 146.4 35.5 L 146.4 21 A 2 2 0 0 0 144.4 19 L 129.9 19 A 2 2 0 0 0 127.9 21 L 127.9 35.5 A 2 2 0 0 0 129.9 37.5 Z M 24.87 56.5 L 39.37 56.5 A 2 2 0 0 0 41.37 54.5 L 41.37 40 A 2 2 0 0 0 39.37 38 L 24.87 38 A 2 2 0 0 0 22.87 40 L 22.87 54.5 A 2 2 0 0 0 24.87 56.5 Z M 43.87 56.5 L 58.37 56.5 A 2 2 0 0 0 60.37 54.5 L 60.37 40 A 2 2 0 0 0 58.37 38 L 43.87 38 A 2 2 0 0 0 41.87 40 L 41.87 54.5 A 2 2 0 0 0 43.87 56.5 Z M 62.87 56.5 L 77.37 56.5 A 2 2 0 0 0 79.37 54.5 L 79.37 40 A 2 2 0 0 0 77.37 38 L 62.87 38 A 2 2 0 0 0 60.87 40 L 60.87 54.5 A 2 2 0 0 0 62.87 56.5 Z M 81.87 56.5 L 96.37 56.5 A 2 2 0 0 0 98.37 54.5 L 98.37 40 A 2 2 0 0 0 96.37 38 L 81.87 38 A 2 2 0 0 0 79.87 40 L 79.87 54.5 A 2 2 0 0 0 81.87 56.5 Z M 100.87 56.5 L 115.37 56.5 A 2 2 0 0 0 117.37 54.5 L 117.37 40 A 2 2 0 0 0 115.37 38 L 100.87 38 A 2 2 0 0 0 98.87 40 L 98.87 54.5 A 2 2 0 0 0 100.87 56.5 Z M 119.87 56.5 L 134.37 56.5 A 2 2 0 0 0 136.37 54.5 L 136.37 40 A 2 2 0 0 0 134.37 38 L 119.87 38 A 2 2 0 0 0 117.87 40 L 117.87 54.5 A 2 2 0 0 0 119.87 56.5 Z M 138.87 56.5 L 153.37 56.5 A 2 2 0 0 0 155.37 54.5 L 155.37 40 A 2 2 0 0 0 153.37 38 L 138.87 38 A 2 2 0 0 0 136.87 40 L 136.87 54.5 A 2 2 0 0 0 138.87 56.5 Z M 100.87 75.5 L 115.37 75.5 A 2 2 0 0 0 117.37 73.5 L 117.37 59 A 2 2 0 0 0 115.37 57 L 100.87 57 A 2 2 0 0 0 98.87 59 L 98.87 73.5 A 2 2 0 0 0 100.87 75.5 Z M 119.87 75.5 L 134.37 75.5 A 2 2 0 0 0 136.37 73.5 L 136.37 59 A 2 2 0 0 0 134.37 57 L 119.87 57 A 2 2 0 0 0 117.87 59 L 117.87 73.5 A 2 2 0 0 0 119.87 75.5 Z M 138.87 75.5 L 153.37 75.5 A 2 2 0 0 0 155.37 73.5 L 155.37 59 A 2 2 0 0 0 153.37 57 L 138.87 57 A 2 2 0 0 0 136.87 59 L 136.87 73.5 A 2 2 0 0 0 138.87 75.5 Z M 36.152 78.315 L 50.543 76.547 A 2 2 0 0 0 52.285 74.319 L 50.518 59.927 A 2 2 0 0 0 48.289 58.185 L 33.897 59.953 A 2 2 0 0 0 32.156 62.181 L 33.923 76.573 A 2 2 0 0 0 36.152 78.315 Z" vector-effect="non-scaling-stroke"/></g></svg>