0
SECTION
2
HEADER
9
$INSUNITS
70
4
0
ENDSEC
0
SECTION
2
TABLES
0
TABLE
2
LTYPE
0
LTYPE
72
65
70
0
2
CONTINUOUS
3
______
73
0
40
0
0
LTYPE
72
65
70
0
2
DASHED
3
_ _ _ 
73
2
40
7.5
49
5
49
-2.5
0
LTYPE
72
65
70
0
2
DOTTED
3
. . . 
73
2
40
1.5
49
0.5
49
-1
0
ENDTAB
0
TABLE
2
LAYER
0
ENDTAB
0
ENDSEC
0
SECTION
2
ENTITIES
0
LINE
8
0
6
CONTINUOUS
10
193.75
20
-8.25
11
208.25
21
-8.25
0
LINE
8
0
6
CONTINUOUS
10
210.25
20
-6.25
11
210.25
21
8.25
0
LINE
8
0
6
CONTINUOUS
10
208.25
20
10.25
11
193.75
21
10.25
0
LINE
8
0
6
CONTINUOUS
10
191.75
20
8.25
11
191.75
21
-6.25
0
LINE
8
0
6
CONTINUOUS
10
212.75
20
-8.25
11
227.25
21
-8.25
0
LINE
8
0
6
CONTINUOUS
10
229.25
20
-6.25
11
229.25
21
8.25
0
LINE
8
0
6
CONTINUOUS
10
227.25
20
10.25
11
212.75
21
10.25
0
LINE
8
0
6
CONTINUOUS
10
210.75
20
8.25
11
210.75
21
-6.25
0
LINE
8
0
6
CONTINUOUS
10
231.75
20
-8.25
11
246.25
21
-8.25
0
LINE
8
0
6
CONTINUOUS
10
248.25
20
-6.25
11
248.25
21
8.25
0
LINE
8
0
6
CONTINUOUS
10
246.25
20
10.25
11
231.75
21
10.25
0
LINE
8
0
6
CONTINUOUS
10
229.75
20
8.25
11
229.75
21
-6.25
0
LINE
8
0
6
CONTINUOUS
10
250.75
20
-8.25
11
265.25
21
-8.25
0
LINE
8
0
6
CONTINUOUS
10
267.25
20
-6.25
11
267.25
21
8.25
0
LINE
8
0
6
CONTINUOUS
10
265.25
20
10.25
11
250.75
21
10.25
0
LINE
8
0
6
CONTINUOUS
10
248.75
20
8.25
11
248.75
21
-6.25
0
LINE
8
0
6
CONTINUOUS
10
269.75
20
-8.25
11
284.25
21
-8.25
0
LINE
8
0
6
CONTINUOUS
10
286.25
20
-6.25
11
286.25
21
8.25
0
LINE
8
0
6
CONTINUOUS
10
284.25
20
10.25
11
269.75
21
10.25
0
LINE
8
0
6
CONTINUOUS
10
267.75
20
8.25
11
267.75
21
-6.25
0
LINE
8
0
6
CONTINUOUS
10
288.75
20
-8.25
11
303.25
21
-8.25
0
LINE
8
0
6
CONTINUOUS
10
305.25
20
-6.25
11
305.25
21
8.25
0
LINE
8
0
6
CONTINUOUS
10
303.25
20
10.25
11
288.75
21
10.25
0
LINE
8
0
6
CONTINUOUS
10
286.75
20
8.25
11
286.75
21
-6.25
0
LINE
8
0
6
CONTINUOUS
10
307.75
20
-8.25
11
322.25
21
-8.25
0
LINE
8
0
6
CONTINUOUS
10
324.25
20
-6.25
11
324.25
21
8.25
0
LINE
8
0
6
CONTINUOUS
10
322.25
20
10.25
11
307.75
21
10.25
0
LINE
8
0
6
CONTINUOUS
10
305.75
20
8.25
11
305.75
21
-6.25
0
LINE
8
0
6
CONTINUOUS
10
200.78
20
-27.25
11
215.28
21
-27.25
0
LINE
8
0
6
CONTINUOUS
10
217.28
20
-25.25
11
217.28
21
-10.75
0
LINE
8
0
6
CONTINUOUS
10
215.28
20
-8.75
11
200.78
21
-8.75
0
LINE
8
0
6
CONTINUOUS
10
198.78
20
-10.75
11
198.78
21
-25.25
0
LINE
8
0
6
CONTINUOUS
10
219.78
20
-27.25
11
234.28
21
-27.25
0
LINE
8
0
6
CONTINUOUS
10
236.28
20
-25.25
11
236.28
21
-10.75
0
LINE
8
0
6
CONTINUOUS
10
234.28
20
-8.75
11
219.78
21
-8.75
0
LINE
8
0
6
CONTINUOUS
10
217.78
20
-10.75
11
217.78
21
-25.25
0
LINE
8
0
6
CONTINUOUS
10
238.78
20
-27.25
11
253.28
21
-27.25
0
LINE
8
0
6
CONTINUOUS
10
255.28
20
-25.25
11
255.28
21
-10.75
0
LINE
8
0
6
CONTINUOUS
10
253.28
20
-8.75
11
238.78
21
-8.75
0
LINE
8
0
6
CONTINUOUS
10
236.78
20
-10.75
11
236.78
21
-25.25
0
LINE
8
0
6
CONTINUOUS
10
257.78
20
-27.25
11
272.28
21
-27.25
0
LINE
8
0
6
CONTINUOUS
10
274.28
20
-25.25
11
274.28
21
-10.75
0
LINE
8
0
6
CONTINUOUS
10
272.28
20
-8.75
11
257.78
21
-8.75
0
LINE
8
0
6
CONTINUOUS
10
255.78
20
-10.75
11
255.78
21
-25.25
0
LINE
8
0
6
CONTINUOUS
10
276.78
20
-27.25
11
291.28
21
-27.25
0
LINE
8
0
6
CONTINUOUS
10
293.28
20
-25.25
11
293.28
21
-10.75
0
LINE
8
0
6
CONTINUOUS
10
291.28
20
-8.75
11
276.78
21
-8.75
0
LINE
8
0
6
CONTINUOUS
10
274.78
20
-10.75
11
274.78
21
-25.25
0
LINE
8
0
6
CONTINUOUS
10
295.78
20
-27.25
11
310.28
21
-27.25
0
LINE
8
0
6
CONTINUOUS
10
312.28
20
-25.25
11
312.28
21
-10.75
0
LINE
8
0
6
CONTINUOUS
10
310.28
20
-8.75
11
295.78
21
-8.75
0
LINE
8
0
6
CONTINUOUS
10
293.78
20
-10.75
11
293.78
21
-25.25
0
LINE
8
0
6
CONTINUOUS
10
190.75
20
-46.25
11
205.25
21
-46.25
0
LINE
8
0
6
CONTINUOUS
10
207.25
20
-44.25
11
207.25
21
-29.75
0
LINE
8
0
6
CONTINUOUS
10
205.25
20
-27.75
11
190.75
21
-27.75
0
LINE
8
0
6
CONTINUOUS
10
188.75
20
-29.75
11
188.75
21
-44.25
0
LINE
8
0
6
CONTINUOUS
10
209.75
20
-46.25
11
224.25
21
-46.25
0
LINE
8
0
6
CONTINUOUS
10
226.25
20
-44.25
11
226.25
21
-29.75
0
LINE
8
0
6
CONTINUOUS
10
224.25
20
-27.75
11
209.75
21
-27.75
0
LINE
8
0
6
CONTINUOUS
10
207.75
20
-29.75
11
207.75
21
-44.25
0
LINE
8
0
6
CONTINUOUS
10
228.75
20
-46.25
11
243.25
21
-46.25
0
LINE
8
0
6
CONTINUOUS
10
245.25
20
-44.25
11
245.25
21
-29.75
0
LINE
8
0
6
CONTINUOUS
10
243.25
20
-27.75
11
228.75
21
-27.75
0
LINE
8
0
6
CONTINUOUS
10
226.75
20
-29.75
11
226.75
21
-44.25
0
LINE
8
0
6
CONTINUOUS
10
247.75
20
-46.25
11
262.25
21
-46.25
0
LINE
8
0
6
CONTINUOUS
10
264.25
20
-44.25
11
264.25
21
-29.75
0
LINE
8
0
6
CONTINUOUS
10
262.25
20
-27.75
11
247.75
21
-27.75
0
LINE
8
0
6
CONTINUOUS
10
245.75
20
-29.75
11
245.75
21
-44.25
0
LINE
8
0
6
CONTINUOUS
10
266.75
20
-46.25
11
281.25
21
-46.25
0
LINE
8
0
6
CONTINUOUS
10
283.25
20
-44.25
11
283.25
21
-29.75
0
LINE
8
0
6
CONTINUOUS
10
281.25
20
-27.75
11
266.75
21
-27.75
0
LINE
8
0
6
CONTINUOUS
10
264.75
20
-29.75
11
264.75
21
-44.25
0
LINE
8
0
6
CONTINUOUS
10
285.75
20
-46.25
11
300.25
21
-46.25
0
LINE
8
0
6
CONTINUOUS
10
302.25
20
-44.25
11
302.25
21
-29.75
0
LINE
8
0
6
CONTINUOUS
10
300.25
20
-27.75
11
285.75
21
-27.75
0
LINE
8
0
6
CONTINUOUS
10
283.75
20
-29.75
11
283.75
21
-44.25
0
LINE
8
0
6
CONTINUOUS
10
304.75
20
-46.25
11
319.25
21
-46.25
0
LINE
8
0
6
CONTINUOUS
10
321.25
20
-44.25
11
321.25
21
-29.75
0
LINE
8
0
6
CONTINUOUS
10
319.25
20
-27.75
11
304.75
21
-27.75
0
LINE
8
0
6
CONTINUOUS
10
302.75
20
-29.75
11
302.75
21
-44.25
0
LINE
8
0
6
CONTINUOUS
10
266.75
20
-65.25
11
281.25
21
-65.25
0
LINE
8
0
6
CONTINUOUS
10
283.25
20
-63.25
11
283.25
21
-48.75
0
LINE
8
0
6
CONTINUOUS
10
281.25
20
-46.75
11
266.75
21
-46.75
0
LINE
8
0
6
CONTINUOUS
10
264.75
20
-48.75
11
264.75
21
-63.25
0
LINE
8
0
6
CONTINUOUS
10
285.75
20
-65.25
11
300.25
21
-65.25
0
LINE
8
0
6
CONTINUOUS
10
302.25
20
-63.25
11
302.25
21
-48.75
0
LINE
8
0
6
CONTINUOUS
10
300.25
20
-46.75
11
285.75
21
-46.75
0
LINE
8
0
6
CONTINUOUS
10
283.75
20
-48.75
11
283.75
21
-63.25
0
LINE
8
0
6
CONTINUOUS
10
304.75
20
-65.25
11
319.25
21
-65.25
0
LINE
8
0
6
CONTINUOUS
10
321.25
20
-63.25
11
321.25
21
-48.75
0
LINE
8
0
6
CONTINUOUS
10
319.25
20
-46.75
11
304.75
21
-46.75
0
LINE
8
0
6
CONTINUOUS
10
302.75
20
-48.75
11
302.75
21
-63.25
0
LINE
8
0
6
CONTINUOUS
10
202.0313317
20
-68.0646046
11
216.4232509
21
-66.2974992
0
LINE
8
0
6
CONTINUOUS
10
218.1646046
20
-64.0686683
11
216.3974992
21
-49.6767491
0
LINE
8
0
6
CONTINUOUS
10
214.1686683
20
-47.9353954
11
199.7767491
21
-49.7025008
0
LINE
8
0
6
CONTINUOUS
10
198.0353954
20
-51.9313317
11
199.8025008
21
-66.3232509
0
LINE
8
0
6
CONTINUOUS
10
166.1477587
20
-53.9411888
11
178.3977587
21
-75.1588112
0
LINE
8
0
6
CONTINUOUS
10
181.1298095
20
-75.890862
11
194.1201905
21
-68.390862
0
LINE
8
0
6
CONTINUOUS
10
194.8522413
20
-65.6588112
11
182.6022413
21
-44.4411888
0
LINE
8
0
6
CONTINUOUS
10
179.8701905
20
-43.709138
11
166.8798095
21
-51.209138
0
ARC
8
0
6
CONTINUOUS
10
180.1298095
20
-74.1588112
40
2
50
210.0000001
51
300.0000001
0
ARC
8
0
6
CONTINUOUS
10
193.1201905
20
-66.6588112
40
2
50
300.0000001
51
30.0000001
0
ARC
8
0
6
CONTINUOUS
10
180.8701905
20
-45.4411888
40
2
50
30.0000001
51
120.0000001
0
ARC
8
0
6
CONTINUOUS
10
167.8798095
20
-52.9411888
40
2
50
120.0000001
51
210.0000001
0
ARC
8
0
6
CONTINUOUS
10
208.25
20
-6.25
40
2
50
270
51
0
0
ARC
8
0
6
CONTINUOUS
10
208.25
20
8.25
40
2
50
0
51
90
0
ARC
8
0
6
CONTINUOUS
10
193.75
20
8.25
40
2
50
90
51
180
0
ARC
8
0
6
CONTINUOUS
10
193.75
20
-6.25
40
2
50
180
51
270
0
ARC
8
0
6
CONTINUOUS
10
227.25
20
-6.25
40
2
50
270
51
0
0
ARC
8
0
6
CONTINUOUS
10
227.25
20
8.25
40
2
50
0
51
90
0
ARC
8
0
6
CONTINUOUS
10
212.75
20
8.25
40
2
50
90
51
180
0
ARC
8
0
6
CONTINUOUS
10
212.75
20
-6.25
40
2
50
180
51
270
0
ARC
8
0
6
CONTINUOUS
10
246.25
20
-6.25
40
2
50
270
51
0
0
ARC
8
0
6
CONTINUOUS
10
246.25
20
8.25
40
2
50
0
51
90
0
ARC
8
0
6
CONTINUOUS
10
231.75
20
8.25
40
2
50
90
51
180
0
ARC
8
0
6
CONTINUOUS
10
231.75
20
-6.25
40
2
50
180
51
270
0
ARC
8
0
6
CONTINUOUS
10
265.25
20
-6.25
40
2
50
270
51
0
0
ARC
8
0
6
CONTINUOUS
10
265.25
20
8.25
40
2
50
0
51
90
0
ARC
8
0
6
CONTINUOUS
10
250.75
20
8.25
40
2
50
90
51
180
0
ARC
8
0
6
CONTINUOUS
10
250.75
20
-6.25
40
2
50
180
51
270
0
ARC
8
0
6
CONTINUOUS
10
284.25
20
-6.25
40
2
50
270
51
0
0
ARC
8
0
6
CONTINUOUS
10
284.25
20
8.25
40
2
50
0
51
90
0
ARC
8
0
6
CONTINUOUS
10
269.75
20
8.25
40
2
50
90
51
180
0
ARC
8
0
6
CONTINUOUS
10
269.75
20
-6.25
40
2
50
180
51
270
0
ARC
8
0
6
CONTINUOUS
10
303.25
20
-6.25
40
2
50
270
51
0
0
ARC
8
0
6
CONTINUOUS
10
303.25
20
8.25
40
2
50
0
51
90
0
ARC
8
0
6
CONTINUOUS
10
288.75
20
8.25
40
2
50
90
51
180
0
ARC
8
0
6
CONTINUOUS
10
288.75
20
-6.25
40
2
50
180
51
270
0
ARC
8
0
6
CONTINUOUS
10
322.25
20
-6.25
40
2
50
270
51
0
0
ARC
8
0
6
CONTINUOUS
10
322.25
20
8.25
40
2
50
0
51
90
0
ARC
8
0
6
CONTINUOUS
10
307.75
20
8.25
40
2
50
90
51
180
0
ARC
8
0
6
CONTINUOUS
10
307.75
20
-6.25
40
2
50
180
51
270
0
ARC
8
0
6
CONTINUOUS
10
215.28
20
-25.25
40
2
50
270
51
0
0
ARC
8
0
6
CONTINUOUS
10
215.28
20
-10.75
40
2
50
0
51
90
0
ARC
8
0
6
CONTINUOUS
10
200.78
20
-10.75
40
2
50
90
51
180
0
ARC
8
0
6
CONTINUOUS
10
200.78
20
-25.25
40
2
50
180
51
270
0
ARC
8
0
6
CONTINUOUS
10
234.28
20
-25.25
40
2
50
270
51
0
0
ARC
8
0
6
CONTINUOUS
10
234.28
20
-10.75
40
2
50
0
51
90
0
ARC
8
0
6
CONTINUOUS
10
219.78
20
-10.75
40
2
50
90
51
180
0
ARC
8
0
6
CONTINUOUS
10
219.78
20
-25.25
40
2
50
180
51
270
0
ARC
8
0
6
CONTINUOUS
10
253.28
20
-25.25
40
2
50
270
51
0
0
ARC
8
0
6
CONTINUOUS
10
253.28
20
-10.75
40
2
50
0
51
90
0
ARC
8
0
6
CONTINUOUS
10
238.78
20
-10.75
40
2
50
90
51
180
0
ARC
8
0
6
CONTINUOUS
10
238.78
20
-25.25
40
2
50
180
51
270
0
ARC
8
0
6
CONTINUOUS
10
272.28
20
-25.25
40
2
50
270
51
0
0
ARC
8
0
6
CONTINUOUS
10
272.28
20
-10.75
40
2
50
0
51
90
0
ARC
8
0
6
CONTINUOUS
10
257.78
20
-10.75
40
2
50
90
51
180
0
ARC
8
0
6
CONTINUOUS
10
257.78
20
-25.25
40
2
50
180
51
270
0
ARC
8
0
6
CONTINUOUS
10
291.28
20
-25.25
40
2
50
270
51
0
0
ARC
8
0
6
CONTINUOUS
10
291.28
20
-10.75
40
2
50
0
51
90
0
ARC
8
0
6
CONTINUOUS
10
276.78
20
-10.75
40
2
50
90
51
180
0
ARC
8
0
6
CONTINUOUS
10
276.78
20
-25.25
40
2
50
180
51
270
0
ARC
8
0
6
CONTINUOUS
10
310.28
20
-25.25
40
2
50
270
51
0
0
ARC
8
0
6
CONTINUOUS
10
310.28
20
-10.75
40
2
50
0
51
90
0
ARC
8
0
6
CONTINUOUS
10
295.78
20
-10.75
40
2
50
90
51
180
0
ARC
8
0
6
CONTINUOUS
10
295.78
20
-25.25
40
2
50
180
51
270
0
ARC
8
0
6
CONTINUOUS
10
205.25
20
-44.25
40
2
50
270
51
0
0
ARC
8
0
6
CONTINUOUS
10
205.25
20
-29.75
40
2
50
0
51
90
0
ARC
8
0
6
CONTINUOUS
10
190.75
20
-29.75
40
2
50
90
51
180
0
ARC
8
0
6
CONTINUOUS
10
190.75
20
-44.25
40
2
50
180
51
270
0
ARC
8
0
6
CONTINUOUS
10
224.25
20
-44.25
40
2
50
270
51
0
0
ARC
8
0
6
CONTINUOUS
10
224.25
20
-29.75
40
2
50
0
51
90
0
ARC
8
0
6
CONTINUOUS
10
209.75
20
-29.75
40
2
50
90
51
180
0
ARC
8
0
6
CONTINUOUS
10
209.75
20
-44.25
40
2
50
180
51
270
0
ARC
8
0
6
CONTINUOUS
10
243.25
20
-44.25
40
2
50
270
51
0
0
ARC
8
0
6
CONTINUOUS
10
243.25
20
-29.75
40
2
50
0
51
90
0
ARC
8
0
6
CONTINUOUS
10
228.75
20
-29.75
40
2
50
90
51
180
0
ARC
8
0
6
CONTINUOUS
10
228.75
20
-44.25
40
2
50
180
51
270
0
ARC
8
0
6
CONTINUOUS
10
262.25
20
-44.25
40
2
50
270
51
0
0
ARC
8
0
6
CONTINUOUS
10
262.25
20
-29.75
40
2
50
0
51
90
0
ARC
8
0
6
CONTINUOUS
10
247.75
20
-29.75
40
2
50
90
51
180
0
ARC
8
0
6
CONTINUOUS
10
247.75
20
-44.25
40
2
50
180
51
270
0
ARC
8
0
6
CONTINUOUS
10
281.25
20
-44.25
40
2
50
270
51
0
0
ARC
8
0
6
CONTINUOUS
10
281.25
20
-29.75
40
2
50
0
51
90
0
ARC
8
0
6
CONTINUOUS
10
266.75
20
-29.75
40
2
50
90
51
180
0
ARC
8
0
6
CONTINUOUS
10
266.75
20
-44.25
40
2
50
180
51
270
0
ARC
8
0
6
CONTINUOUS
10
300.25
20
-44.25
40
2
50
270
51
0
0
ARC
8
0
6
CONTINUOUS
10
300.25
20
-29.75
40
2
50
0
51
90
0
ARC
8
0
6
CONTINUOUS
10
285.75
20
-29.75
40
2
50
90
51
180
0
ARC
8
0
6
CONTINUOUS
10
285.75
20
-44.25
40
2
50
180
51
270
0
ARC
8
0
6
CONTINUOUS
10
319.25
20
-44.25
40
2
50
270
51
0
0
ARC
8
0
6
CONTINUOUS
10
319.25
20
-29.75
40
2
50
0
51
90
0
ARC
8
0
6
CONTINUOUS
10
304.75
20
-29.75
40
2
50
90
51
180
0
ARC
8
0
6
CONTINUOUS
10
304.75
20
-44.25
40
2
50
180
51
270
0
ARC
8
0
6
CONTINUOUS
10
281.25
20
-63.25
40
2
50
270
51
0
0
ARC
8
0
6
CONTINUOUS
10
281.25
20
-48.75
40
2
50
0
51
90
0
ARC
8
0
6
CONTINUOUS
10
266.75
20
-48.75
40
2
50
90
51
180
0
ARC
8
0
6
CONTINUOUS
10
266.75
20
-63.25
40
2
50
180
51
270
0
ARC
8
0
6
CONTINUOUS
10
300.25
20
-63.25
40
2
50
270
51
0
0
ARC
8
0
6
CONTINUOUS
10
300.25
20
-48.75
40
2
50
0
51
90
0
ARC
8
0
6
CONTINUOUS
10
285.75
20
-48.75
40
2
50
90
51
180
0
ARC
8
0
6
CONTINUOUS
10
285.75
20
-63.25
40
2
50
180
51
270
0
ARC
8
0
6
CONTINUOUS
10
319.25
20
-63.25
40
2
50
270
51
0
0
ARC
8
0
6
CONTINUOUS
10
319.25
20
-48.75
40
2
50
0
51
90
0
ARC
8
0
6
CONTINUOUS
10
304.75
20
-48.75
40
2
50
90
51
180
0
ARC
8
0
6
CONTINUOUS
10
304.75
20
-63.25
40
2
50
180
51
270
0
ARC
8
0
6
CONTINUOUS
10
216.1795123
20
-64.3124069
40
2
50
276.9999972
51
6.9999972
0
ARC
8
0
6
CONTINUOUS
10
214.4124069
20
-49.9204877
40
2
50
6.9999972
51
96.9999972
0
ARC
8
0
6
CONTINUOUS
10
200.0204877
20
-51.6875931
40
2
50
96.9999972
51
186.9999972
0
ARC
8
0
6
CONTINUOUS
10
201.7875931
20
-66.0795123
40
2
50
186.9999972
51
276.9999972
0
ENDSEC
0
EOF