<svg width="323.25mm" height="79.55mm" viewBox="0 0 323.25 79.55" xmlns="http://www.w3.org/2000/svg"><g id="svgGroup" stroke-linecap="round" fill-rule="evenodd" font-size="9pt" stroke="#000" stroke-width="0.25mm" fill="none" style="stroke:#000;stroke-width:0.25mm;fill:none"><path d="M 0.05 56.75 L 33.2 56.75 L 33.2 37.75 L 0.05 37.75 L 0.05 56.75 Z M 175.75 79.55 L 204.25 79.55 L 204.25 60.55 L 175.75 60.55 L 175.75 79.55 Z M 114.95 79.55 L 143.45 79.55 L 143.45 60.55 L 114.95 60.55 L 114.95 79.55 Z M 292.53 37.745 L 321.03 37.745 L 321.03 18.755 L 292.53 18.755 L 292.53 37.745 Z M 0 37.745 L 23.75 37.745 L 23.75 18.755 L 0 18.755 L 0 37.745 Z M 23.705 75.745 L 47.355 75.745 L 47.355 56.755 L 23.705 56.755 L 23.705 75.745 Z M 0.1 75.745 L 23.65 75.745 L 23.65 56.755 L 0.1 56.755 L 0.1 75.745 Z M 0.25 18.5 L 18.75 18.5 L 18.75 0 L 0.25 0 L 0.25 18.5 Z M 19.25 18.5 L 37.75 18.5 L 37.75 0 L 19.25 0 L 19.25 18.5 Z M 38.25 18.5 L 56.75 18.5 L 56.75 0 L 38.25 0 L 38.25 18.5 Z M 57.25 18.5 L 75.75 18.5 L 75.75 0 L 57.25 0 L 57.25 18.5 Z M 76.25 18.5 L 94.75 18.5 L 94.75 0 L 76.25 0 L 76.25 18.5 Z M 95.25 18.5 L 113.75 18.5 L 113.75 0 L 95.25 0 L 95.25 18.5 Z M 24 37.5 L 42.5 37.5 L 42.5 19 L 24 19 L 24 37.5 Z M 43 37.5 L 61.5 37.5 L 61.5 19 L 43 19 L 43 37.5 Z M 62 37.5 L 80.5 37.5 L 80.5 19 L 62 19 L 62 37.5 Z M 81 37.5 L 99.5 37.5 L 99.5 19 L 81 19 L 81 37.5 Z M 100 37.5 L 118.5 37.5 L 118.5 19 L 100 19 L 100 37.5 Z M 33.5 56.5 L 52 56.5 L 52 38 L 33.5 38 L 33.5 56.5 Z M 52.5 56.5 L 71 56.5 L 71 38 L 52.5 38 L 52.5 56.5 Z M 71.5 56.5 L 90 56.5 L 90 38 L 71.5 38 L 71.5 56.5 Z M 90.5 56.5 L 109 56.5 L 109 38 L 90.5 38 L 90.5 56.5 Z M 109.5 56.5 L 128 56.5 L 128 38 L 109.5 38 L 109.5 56.5 Z M 90.95 79.3 L 109.45 79.3 L 109.45 60.8 L 90.95 60.8 L 90.95 79.3 Z M 190.75 18.5 L 209.25 18.5 L 209.25 0 L 190.75 0 L 190.75 18.5 Z M 209.75 18.5 L 228.25 18.5 L 228.25 0 L 209.75 0 L 209.75 18.5 Z M 228.75 18.5 L 247.25 18.5 L 247.25 0 L 228.75 0 L 228.75 18.5 Z M 247.75 18.5 L 266.25 18.5 L 266.25 0 L 247.75 0 L 247.75 18.5 Z M 266.75 18.5 L 285.25 18.5 L 285.25 0 L 266.75 0 L 266.75 18.5 Z M 285.75 18.5 L 304.25 18.5 L 304.25 0 L 285.75 0 L 285.75 18.5 Z M 304.75 18.5 L 323.25 18.5 L 323.25 0 L 304.75 0 L 304.75 18.5 Z M 197.78 37.5 L 216.28 37.5 L 216.28 19 L 197.78 19 L 197.78 37.5 Z M 216.78 37.5 L 235.28 37.5 L 235.28 19 L 216.78 19 L 216.78 37.5 Z M 235.78 37.5 L 254.28 37.5 L 254.28 19 L 235.78 19 L 235.78 37.5 Z M 254.78 37.5 L 273.28 37.5 L 273.28 19 L 254.78 19 L 254.78 37.5 Z M 273.78 37.5 L 292.28 37.5 L 292.28 19 L 273.78 19 L 273.78 37.5 Z M 187.75 56.5 L 206.25 56.5 L 206.25 38 L 187.75 38 L 187.75 56.5 Z M 206.75 56.5 L 225.25 56.5 L 225.25 38 L 206.75 38 L 206.75 56.5 Z M 225.75 56.5 L 244.25 56.5 L 244.25 38 L 225.75 38 L 225.75 56.5 Z M 244.75 56.5 L 263.25 56.5 L 263.25 38 L 244.75 38 L 244.75 56.5 Z M 263.75 56.5 L 282.25 56.5 L 282.25 38 L 263.75 38 L 263.75 56.5 Z M 282.75 56.5 L 301.25 56.5 L 301.25 38 L 282.75 38 L 282.75 56.5 Z M 301.75 56.5 L 320.25 56.5 L 320.25 38 L 301.75 38 L 301.75 56.5 Z M 263.75 75.5 L 282.25 75.5 L 282.25 57 L 263.75 57 L 263.75 75.5 Z M 282.75 75.5 L 301.25 75.5 L 301.25 57 L 282.75 57 L 282.75 75.5 Z M 301.75 75.5 L 320.25 75.5 L 320.25 57 L 301.75 57 L 301.75 75.5 Z M 209.25 79.3 L 227.75 79.3 L 227.75 60.8 L 209.25 60.8 L 209.25 79.3 Z" vector-effect="non-scaling-stroke"/></g></svg>