0
SECTION
2
HEADER
9
$INSUNITS
70
4
0
ENDSEC
0
SECTION
2
TABLES
0
TABLE
2
LTYPE
0
LTYPE
72
65
70
0
2
CONTINUOUS
3
______
73
0
40
0
0
LTYPE
72
65
70
0
2
DASHED
3
_ _ _ 
73
2
40
7.5
49
5
49
-2.5
0
LTYPE
72
65
70
0
2
DOTTED
3
. . . 
73
2
40
1.5
49
0.5
49
-1
0
ENDTAB
0
TABLE
2
LAYER
0
ENDTAB
0
ENDSEC
0
SECTION
2
ENTITIES
0
LINE
8
0
6
CONTINUOUS
10
1.25
20
-8.25
11
19.75
21
-8.25
0
LINE
8
0
6
CONTINUOUS
10
19.75
20
-8.25
11
19.75
21
10.25
0
LINE
8
0
6
CONTINUOUS
10
19.75
20
10.25
11
1.25
21
10.25
0
LINE
8
0
6
CONTINUOUS
10
1.25
20
10.25
11
1.25
21
-8.25
0
LINE
8
0
6
CONTINUOUS
10
20.25
20
-8.25
11
38.75
21
-8.25
0
LINE
8
0
6
CONTINUOUS
10
38.75
20
-8.25
11
38.75
21
10.25
0
LINE
8
0
6
CONTINUOUS
10
38.75
20
10.25
11
20.25
21
10.25
0
LINE
8
0
6
CONTINUOUS
10
20.25
20
10.25
11
20.25
21
-8.25
0
LINE
8
0
6
CONTINUOUS
10
39.25
20
-8.25
11
57.75
21
-8.25
0
LINE
8
0
6
CONTINUOUS
10
57.75
20
-8.25
11
57.75
21
10.25
0
LINE
8
0
6
CONTINUOUS
10
57.75
20
10.25
11
39.25
21
10.25
0
LINE
8
0
6
CONTINUOUS
10
39.25
20
10.25
11
39.25
21
-8.25
0
LINE
8
0
6
CONTINUOUS
10
58.25
20
-8.25
11
76.75
21
-8.25
0
LINE
8
0
6
CONTINUOUS
10
76.75
20
-8.25
11
76.75
21
10.25
0
LINE
8
0
6
CONTINUOUS
10
76.75
20
10.25
11
58.25
21
10.25
0
LINE
8
0
6
CONTINUOUS
10
58.25
20
10.25
11
58.25
21
-8.25
0
LINE
8
0
6
CONTINUOUS
10
77.25
20
-8.25
11
95.75
21
-8.25
0
LINE
8
0
6
CONTINUOUS
10
95.75
20
-8.25
11
95.75
21
10.25
0
LINE
8
0
6
CONTINUOUS
10
95.75
20
10.25
11
77.25
21
10.25
0
LINE
8
0
6
CONTINUOUS
10
77.25
20
10.25
11
77.25
21
-8.25
0
LINE
8
0
6
CONTINUOUS
10
96.25
20
-8.25
11
114.75
21
-8.25
0
LINE
8
0
6
CONTINUOUS
10
114.75
20
-8.25
11
114.75
21
10.25
0
LINE
8
0
6
CONTINUOUS
10
114.75
20
10.25
11
96.25
21
10.25
0
LINE
8
0
6
CONTINUOUS
10
96.25
20
10.25
11
96.25
21
-8.25
0
LINE
8
0
6
CONTINUOUS
10
25
20
-27.25
11
43.5
21
-27.25
0
LINE
8
0
6
CONTINUOUS
10
43.5
20
-27.25
11
43.5
21
-8.75
0
LINE
8
0
6
CONTINUOUS
10
43.5
20
-8.75
11
25
21
-8.75
0
LINE
8
0
6
CONTINUOUS
10
25
20
-8.75
11
25
21
-27.25
0
LINE
8
0
6
CONTINUOUS
10
44
20
-27.25
11
62.5
21
-27.25
0
LINE
8
0
6
CONTINUOUS
10
62.5
20
-27.25
11
62.5
21
-8.75
0
LINE
8
0
6
CONTINUOUS
10
62.5
20
-8.75
11
44
21
-8.75
0
LINE
8
0
6
CONTINUOUS
10
44
20
-8.75
11
44
21
-27.25
0
LINE
8
0
6
CONTINUOUS
10
63
20
-27.25
11
81.5
21
-27.25
0
LINE
8
0
6
CONTINUOUS
10
81.5
20
-27.25
11
81.5
21
-8.75
0
LINE
8
0
6
CONTINUOUS
10
81.5
20
-8.75
11
63
21
-8.75
0
LINE
8
0
6
CONTINUOUS
10
63
20
-8.75
11
63
21
-27.25
0
LINE
8
0
6
CONTINUOUS
10
82
20
-27.25
11
100.5
21
-27.25
0
LINE
8
0
6
CONTINUOUS
10
100.5
20
-27.25
11
100.5
21
-8.75
0
LINE
8
0
6
CONTINUOUS
10
100.5
20
-8.75
11
82
21
-8.75
0
LINE
8
0
6
CONTINUOUS
10
82
20
-8.75
11
82
21
-27.25
0
LINE
8
0
6
CONTINUOUS
10
101
20
-27.25
11
119.5
21
-27.25
0
LINE
8
0
6
CONTINUOUS
10
119.5
20
-27.25
11
119.5
21
-8.75
0
LINE
8
0
6
CONTINUOUS
10
119.5
20
-8.75
11
101
21
-8.75
0
LINE
8
0
6
CONTINUOUS
10
101
20
-8.75
11
101
21
-27.25
0
LINE
8
0
6
CONTINUOUS
10
34.5
20
-46.25
11
53
21
-46.25
0
LINE
8
0
6
CONTINUOUS
10
53
20
-46.25
11
53
21
-27.75
0
LINE
8
0
6
CONTINUOUS
10
53
20
-27.75
11
34.5
21
-27.75
0
LINE
8
0
6
CONTINUOUS
10
34.5
20
-27.75
11
34.5
21
-46.25
0
LINE
8
0
6
CONTINUOUS
10
53.5
20
-46.25
11
72
21
-46.25
0
LINE
8
0
6
CONTINUOUS
10
72
20
-46.25
11
72
21
-27.75
0
LINE
8
0
6
CONTINUOUS
10
72
20
-27.75
11
53.5
21
-27.75
0
LINE
8
0
6
CONTINUOUS
10
53.5
20
-27.75
11
53.5
21
-46.25
0
LINE
8
0
6
CONTINUOUS
10
72.5
20
-46.25
11
91
21
-46.25
0
LINE
8
0
6
CONTINUOUS
10
91
20
-46.25
11
91
21
-27.75
0
LINE
8
0
6
CONTINUOUS
10
91
20
-27.75
11
72.5
21
-27.75
0
LINE
8
0
6
CONTINUOUS
10
72.5
20
-27.75
11
72.5
21
-46.25
0
LINE
8
0
6
CONTINUOUS
10
91.5
20
-46.25
11
110
21
-46.25
0
LINE
8
0
6
CONTINUOUS
10
110
20
-46.25
11
110
21
-27.75
0
LINE
8
0
6
CONTINUOUS
10
110
20
-27.75
11
91.5
21
-27.75
0
LINE
8
0
6
CONTINUOUS
10
91.5
20
-27.75
11
91.5
21
-46.25
0
LINE
8
0
6
CONTINUOUS
10
110.5
20
-46.25
11
129
21
-46.25
0
LINE
8
0
6
CONTINUOUS
10
129
20
-46.25
11
129
21
-27.75
0
LINE
8
0
6
CONTINUOUS
10
129
20
-27.75
11
110.5
21
-27.75
0
LINE
8
0
6
CONTINUOUS
10
110.5
20
-27.75
11
110.5
21
-46.25
0
LINE
8
0
6
CONTINUOUS
10
91.95
20
-69.05
11
110.45
21
-69.05
0
LINE
8
0
6
CONTINUOUS
10
110.45
20
-69.05
11
110.45
21
-50.55
0
LINE
8
0
6
CONTINUOUS
10
110.45
20
-50.55
11
91.95
21
-50.55
0
LINE
8
0
6
CONTINUOUS
10
91.95
20
-50.55
11
91.95
21
-69.05
0
LINE
8
0
6
CONTINUOUS
10
191.75
20
-8.25
11
210.25
21
-8.25
0
LINE
8
0
6
CONTINUOUS
10
210.25
20
-8.25
11
210.25
21
10.25
0
LINE
8
0
6
CONTINUOUS
10
210.25
20
10.25
11
191.75
21
10.25
0
LINE
8
0
6
CONTINUOUS
10
191.75
20
10.25
11
191.75
21
-8.25
0
LINE
8
0
6
CONTINUOUS
10
210.75
20
-8.25
11
229.25
21
-8.25
0
LINE
8
0
6
CONTINUOUS
10
229.25
20
-8.25
11
229.25
21
10.25
0
LINE
8
0
6
CONTINUOUS
10
229.25
20
10.25
11
210.75
21
10.25
0
LINE
8
0
6
CONTINUOUS
10
210.75
20
10.25
11
210.75
21
-8.25
0
LINE
8
0
6
CONTINUOUS
10
229.75
20
-8.25
11
248.25
21
-8.25
0
LINE
8
0
6
CONTINUOUS
10
248.25
20
-8.25
11
248.25
21
10.25
0
LINE
8
0
6
CONTINUOUS
10
248.25
20
10.25
11
229.75
21
10.25
0
LINE
8
0
6
CONTINUOUS
10
229.75
20
10.25
11
229.75
21
-8.25
0
LINE
8
0
6
CONTINUOUS
10
248.75
20
-8.25
11
267.25
21
-8.25
0
LINE
8
0
6
CONTINUOUS
10
267.25
20
-8.25
11
267.25
21
10.25
0
LINE
8
0
6
CONTINUOUS
10
267.25
20
10.25
11
248.75
21
10.25
0
LINE
8
0
6
CONTINUOUS
10
248.75
20
10.25
11
248.75
21
-8.25
0
LINE
8
0
6
CONTINUOUS
10
267.75
20
-8.25
11
286.25
21
-8.25
0
LINE
8
0
6
CONTINUOUS
10
286.25
20
-8.25
11
286.25
21
10.25
0
LINE
8
0
6
CONTINUOUS
10
286.25
20
10.25
11
267.75
21
10.25
0
LINE
8
0
6
CONTINUOUS
10
267.75
20
10.25
11
267.75
21
-8.25
0
LINE
8
0
6
CONTINUOUS
10
286.75
20
-8.25
11
305.25
21
-8.25
0
LINE
8
0
6
CONTINUOUS
10
305.25
20
-8.25
11
305.25
21
10.25
0
LINE
8
0
6
CONTINUOUS
10
305.25
20
10.25
11
286.75
21
10.25
0
LINE
8
0
6
CONTINUOUS
10
286.75
20
10.25
11
286.75
21
-8.25
0
LINE
8
0
6
CONTINUOUS
10
305.75
20
-8.25
11
324.25
21
-8.25
0
LINE
8
0
6
CONTINUOUS
10
324.25
20
-8.25
11
324.25
21
10.25
0
LINE
8
0
6
CONTINUOUS
10
324.25
20
10.25
11
305.75
21
10.25
0
LINE
8
0
6
CONTINUOUS
10
305.75
20
10.25
11
305.75
21
-8.25
0
LINE
8
0
6
CONTINUOUS
10
198.78
20
-27.25
11
217.28
21
-27.25
0
LINE
8
0
6
CONTINUOUS
10
217.28
20
-27.25
11
217.28
21
-8.75
0
LINE
8
0
6
CONTINUOUS
10
217.28
20
-8.75
11
198.78
21
-8.75
0
LINE
8
0
6
CONTINUOUS
10
198.78
20
-8.75
11
198.78
21
-27.25
0
LINE
8
0
6
CONTINUOUS
10
217.78
20
-27.25
11
236.28
21
-27.25
0
LINE
8
0
6
CONTINUOUS
10
236.28
20
-27.25
11
236.28
21
-8.75
0
LINE
8
0
6
CONTINUOUS
10
236.28
20
-8.75
11
217.78
21
-8.75
0
LINE
8
0
6
CONTINUOUS
10
217.78
20
-8.75
11
217.78
21
-27.25
0
LINE
8
0
6
CONTINUOUS
10
236.78
20
-27.25
11
255.28
21
-27.25
0
LINE
8
0
6
CONTINUOUS
10
255.28
20
-27.25
11
255.28
21
-8.75
0
LINE
8
0
6
CONTINUOUS
10
255.28
20
-8.75
11
236.78
21
-8.75
0
LINE
8
0
6
CONTINUOUS
10
236.78
20
-8.75
11
236.78
21
-27.25
0
LINE
8
0
6
CONTINUOUS
10
255.78
20
-27.25
11
274.28
21
-27.25
0
LINE
8
0
6
CONTINUOUS
10
274.28
20
-27.25
11
274.28
21
-8.75
0
LINE
8
0
6
CONTINUOUS
10
274.28
20
-8.75
11
255.78
21
-8.75
0
LINE
8
0
6
CONTINUOUS
10
255.78
20
-8.75
11
255.78
21
-27.25
0
LINE
8
0
6
CONTINUOUS
10
274.78
20
-27.25
11
293.28
21
-27.25
0
LINE
8
0
6
CONTINUOUS
10
293.28
20
-27.25
11
293.28
21
-8.75
0
LINE
8
0
6
CONTINUOUS
10
293.28
20
-8.75
11
274.78
21
-8.75
0
LINE
8
0
6
CONTINUOUS
10
274.78
20
-8.75
11
274.78
21
-27.25
0
LINE
8
0
6
CONTINUOUS
10
188.75
20
-46.25
11
207.25
21
-46.25
0
LINE
8
0
6
CONTINUOUS
10
207.25
20
-46.25
11
207.25
21
-27.75
0
LINE
8
0
6
CONTINUOUS
10
207.25
20
-27.75
11
188.75
21
-27.75
0
LINE
8
0
6
CONTINUOUS
10
188.75
20
-27.75
11
188.75
21
-46.25
0
LINE
8
0
6
CONTINUOUS
10
207.75
20
-46.25
11
226.25
21
-46.25
0
LINE
8
0
6
CONTINUOUS
10
226.25
20
-46.25
11
226.25
21
-27.75
0
LINE
8
0
6
CONTINUOUS
10
226.25
20
-27.75
11
207.75
21
-27.75
0
LINE
8
0
6
CONTINUOUS
10
207.75
20
-27.75
11
207.75
21
-46.25
0
LINE
8
0
6
CONTINUOUS
10
226.75
20
-46.25
11
245.25
21
-46.25
0
LINE
8
0
6
CONTINUOUS
10
245.25
20
-46.25
11
245.25
21
-27.75
0
LINE
8
0
6
CONTINUOUS
10
245.25
20
-27.75
11
226.75
21
-27.75
0
LINE
8
0
6
CONTINUOUS
10
226.75
20
-27.75
11
226.75
21
-46.25
0
LINE
8
0
6
CONTINUOUS
10
245.75
20
-46.25
11
264.25
21
-46.25
0
LINE
8
0
6
CONTINUOUS
10
264.25
20
-46.25
11
264.25
21
-27.75
0
LINE
8
0
6
CONTINUOUS
10
264.25
20
-27.75
11
245.75
21
-27.75
0
LINE
8
0
6
CONTINUOUS
10
245.75
20
-27.75
11
245.75
21
-46.25
0
LINE
8
0
6
CONTINUOUS
10
264.75
20
-46.25
11
283.25
21
-46.25
0
LINE
8
0
6
CONTINUOUS
10
283.25
20
-46.25
11
283.25
21
-27.75
0
LINE
8
0
6
CONTINUOUS
10
283.25
20
-27.75
11
264.75
21
-27.75
0
LINE
8
0
6
CONTINUOUS
10
264.75
20
-27.75
11
264.75
21
-46.25
0
LINE
8
0
6
CONTINUOUS
10
283.75
20
-46.25
11
302.25
21
-46.25
0
LINE
8
0
6
CONTINUOUS
10
302.25
20
-46.25
11
302.25
21
-27.75
0
LINE
8
0
6
CONTINUOUS
10
302.25
20
-27.75
11
283.75
21
-27.75
0
LINE
8
0
6
CONTINUOUS
10
283.75
20
-27.75
11
283.75
21
-46.25
0
LINE
8
0
6
CONTINUOUS
10
302.75
20
-46.25
11
321.25
21
-46.25
0
LINE
8
0
6
CONTINUOUS
10
321.25
20
-46.25
11
321.25
21
-27.75
0
LINE
8
0
6
CONTINUOUS
10
321.25
20
-27.75
11
302.75
21
-27.75
0
LINE
8
0
6
CONTINUOUS
10
302.75
20
-27.75
11
302.75
21
-46.25
0
LINE
8
0
6
CONTINUOUS
10
264.75
20
-65.25
11
283.25
21
-65.25
0
LINE
8
0
6
CONTINUOUS
10
283.25
20
-65.25
11
283.25
21
-46.75
0
LINE
8
0
6
CONTINUOUS
10
283.25
20
-46.75
11
264.75
21
-46.75
0
LINE
8
0
6
CONTINUOUS
10
264.75
20
-46.75
11
264.75
21
-65.25
0
LINE
8
0
6
CONTINUOUS
10
283.75
20
-65.25
11
302.25
21
-65.25
0
LINE
8
0
6
CONTINUOUS
10
302.25
20
-65.25
11
302.25
21
-46.75
0
LINE
8
0
6
CONTINUOUS
10
302.25
20
-46.75
11
283.75
21
-46.75
0
LINE
8
0
6
CONTINUOUS
10
283.75
20
-46.75
11
283.75
21
-65.25
0
LINE
8
0
6
CONTINUOUS
10
302.75
20
-65.25
11
321.25
21
-65.25
0
LINE
8
0
6
CONTINUOUS
10
321.25
20
-65.25
11
321.25
21
-46.75
0
LINE
8
0
6
CONTINUOUS
10
321.25
20
-46.75
11
302.75
21
-46.75
0
LINE
8
0
6
CONTINUOUS
10
302.75
20
-46.75
11
302.75
21
-65.25
0
LINE
8
0
6
CONTINUOUS
10
210.25
20
-69.05
11
228.75
21
-69.05
0
LINE
8
0
6
CONTINUOUS
10
228.75
20
-69.05
11
228.75
21
-50.55
0
LINE
8
0
6
CONTINUOUS
10
228.75
20
-50.55
11
210.25
21
-50.55
0
LINE
8
0
6
CONTINUOUS
10
210.25
20
-50.55
11
210.25
21
-69.05
0
LINE
8
0
6
CONTINUOUS
10
176.75
20
-69.3
11
205.25
21
-69.3
0
LINE
8
0
6
CONTINUOUS
10
205.25
20
-69.3
11
205.25
21
-50.3
0
LINE
8
0
6
CONTINUOUS
10
205.25
20
-50.3
11
176.75
21
-50.3
0
LINE
8
0
6
CONTINUOUS
10
176.75
20
-50.3
11
176.75
21
-69.3
0
LINE
8
0
6
CONTINUOUS
10
115.95
20
-69.3
11
144.45
21
-69.3
0
LINE
8
0
6
CONTINUOUS
10
144.45
20
-69.3
11
144.45
21
-50.3
0
LINE
8
0
6
CONTINUOUS
10
144.45
20
-50.3
11
115.95
21
-50.3
0
LINE
8
0
6
CONTINUOUS
10
115.95
20
-50.3
11
115.95
21
-69.3
0
LINE
8
0
6
CONTINUOUS
10
1.1
20
-65.495
11
24.65
21
-65.495
0
LINE
8
0
6
CONTINUOUS
10
24.65
20
-65.495
11
24.65
21
-46.505
0
LINE
8
0
6
CONTINUOUS
10
24.65
20
-46.505
11
1.1
21
-46.505
0
LINE
8
0
6
CONTINUOUS
10
1.1
20
-46.505
11
1.1
21
-65.495
0
LINE
8
0
6
CONTINUOUS
10
1.05
20
-46.5
11
34.2
21
-46.5
0
LINE
8
0
6
CONTINUOUS
10
34.2
20
-46.5
11
34.2
21
-27.5
0
LINE
8
0
6
CONTINUOUS
10
34.2
20
-27.5
11
1.05
21
-27.5
0
LINE
8
0
6
CONTINUOUS
10
1.05
20
-27.5
11
1.05
21
-46.5
0
LINE
8
0
6
CONTINUOUS
10
1
20
-27.495
11
24.75
21
-27.495
0
LINE
8
0
6
CONTINUOUS
10
24.75
20
-27.495
11
24.75
21
-8.505
0
LINE
8
0
6
CONTINUOUS
10
24.75
20
-8.505
11
1
21
-8.505
0
LINE
8
0
6
CONTINUOUS
10
1
20
-8.505
11
1
21
-27.495
0
LINE
8
0
6
CONTINUOUS
10
24.705
20
-65.495
11
48.355
21
-65.495
0
LINE
8
0
6
CONTINUOUS
10
48.355
20
-65.495
11
48.355
21
-46.505
0
LINE
8
0
6
CONTINUOUS
10
48.355
20
-46.505
11
24.705
21
-46.505
0
LINE
8
0
6
CONTINUOUS
10
24.705
20
-46.505
11
24.705
21
-65.495
0
LINE
8
0
6
CONTINUOUS
10
293.53
20
-27.495
11
322.03
21
-27.495
0
LINE
8
0
6
CONTINUOUS
10
322.03
20
-27.495
11
322.03
21
-8.505
0
LINE
8
0
6
CONTINUOUS
10
322.03
20
-8.505
11
293.53
21
-8.505
0
LINE
8
0
6
CONTINUOUS
10
293.53
20
-8.505
11
293.53
21
-27.495
0
ENDSEC
0
EOF