<svg width="323.25mm" height="79.55mm" viewBox="0 0 323.25 79.55" xmlns="http://www.w3.org/2000/svg"><g id="svgGroup" stroke-linecap="round" fill-rule="evenodd" font-size="9pt" stroke="#000" stroke-width="0.25mm" fill="none" style="stroke:#000;stroke-width:0.25mm;fill:none"><path d="M 2.05 56.75 L 31.2 56.75 A 2 2 0 0 0 33.2 54.75 L 33.2 39.75 A 2 2 0 0 0 31.2 37.75 L 2.05 37.75 A 2 2 0 0 0 0.05 39.75 L 0.05 54.75 A 2 2 0 0 0 2.05 56.75 Z M 177.75 79.55 L 202.25 79.55 A 2 2 0 0 0 204.25 77.55 L 204.25 62.55 A 2 2 0 0 0 202.25 60.55 L 177.75 60.55 A 2 2 0 0 0 175.75 62.55 L 175.75 77.55 A 2 2 0 0 0 177.75 79.55 Z M 116.95 79.55 L 141.45 79.55 A 2 2 0 0 0 143.45 77.55 L 143.45 62.55 A 2 2 0 0 0 141.45 60.55 L 116.95 60.55 A 2 2 0 0 0 114.95 62.55 L 114.95 77.55 A 2 2 0 0 0 116.95 79.55 Z M 294.53 37.745 L 319.03 37.745 A 2 2 0 0 0 321.03 35.745 L 321.03 20.755 A 2 2 0 0 0 319.03 18.755 L 294.53 18.755 A 2 2 0 0 0 292.53 20.755 L 292.53 35.745 A 2 2 0 0 0 294.53 37.745 Z M 2 37.745 L 21.75 37.745 A 2 2 0 0 0 23.75 35.745 L 23.75 20.755 A 2 2 0 0 0 21.75 18.755 L 2 18.755 A 2 2 0 0 0 0 20.755 L 0 35.745 A 2 2 0 0 0 2 37.745 Z M 25.705 75.745 L 45.355 75.745 A 2 2 0 0 0 47.355 73.745 L 47.355 58.755 A 2 2 0 0 0 45.355 56.755 L 25.705 56.755 A 2 2 0 0 0 23.705 58.755 L 23.705 73.745 A 2 2 0 0 0 25.705 75.745 Z M 2.1 75.745 L 21.65 75.745 A 2 2 0 0 0 23.65 73.745 L 23.65 58.755 A 2 2 0 0 0 21.65 56.755 L 2.1 56.755 A 2 2 0 0 0 0.1 58.755 L 0.1 73.745 A 2 2 0 0 0 2.1 75.745 Z M 2.25 18.5 L 16.75 18.5 A 2 2 0 0 0 18.75 16.5 L 18.75 2 A 2 2 0 0 0 16.75 0 L 2.25 0 A 2 2 0 0 0 0.25 2 L 0.25 16.5 A 2 2 0 0 0 2.25 18.5 Z M 21.25 18.5 L 35.75 18.5 A 2 2 0 0 0 37.75 16.5 L 37.75 2 A 2 2 0 0 0 35.75 0 L 21.25 0 A 2 2 0 0 0 19.25 2 L 19.25 16.5 A 2 2 0 0 0 21.25 18.5 Z M 40.25 18.5 L 54.75 18.5 A 2 2 0 0 0 56.75 16.5 L 56.75 2 A 2 2 0 0 0 54.75 0 L 40.25 0 A 2 2 0 0 0 38.25 2 L 38.25 16.5 A 2 2 0 0 0 40.25 18.5 Z M 59.25 18.5 L 73.75 18.5 A 2 2 0 0 0 75.75 16.5 L 75.75 2 A 2 2 0 0 0 73.75 0 L 59.25 0 A 2 2 0 0 0 57.25 2 L 57.25 16.5 A 2 2 0 0 0 59.25 18.5 Z M 78.25 18.5 L 92.75 18.5 A 2 2 0 0 0 94.75 16.5 L 94.75 2 A 2 2 0 0 0 92.75 0 L 78.25 0 A 2 2 0 0 0 76.25 2 L 76.25 16.5 A 2 2 0 0 0 78.25 18.5 Z M 97.25 18.5 L 111.75 18.5 A 2 2 0 0 0 113.75 16.5 L 113.75 2 A 2 2 0 0 0 111.75 0 L 97.25 0 A 2 2 0 0 0 95.25 2 L 95.25 16.5 A 2 2 0 0 0 97.25 18.5 Z M 26 37.5 L 40.5 37.5 A 2 2 0 0 0 42.5 35.5 L 42.5 21 A 2 2 0 0 0 40.5 19 L 26 19 A 2 2 0 0 0 24 21 L 24 35.5 A 2 2 0 0 0 26 37.5 Z M 45 37.5 L 59.5 37.5 A 2 2 0 0 0 61.5 35.5 L 61.5 21 A 2 2 0 0 0 59.5 19 L 45 19 A 2 2 0 0 0 43 21 L 43 35.5 A 2 2 0 0 0 45 37.5 Z M 64 37.5 L 78.5 37.5 A 2 2 0 0 0 80.5 35.5 L 80.5 21 A 2 2 0 0 0 78.5 19 L 64 19 A 2 2 0 0 0 62 21 L 62 35.5 A 2 2 0 0 0 64 37.5 Z M 83 37.5 L 97.5 37.5 A 2 2 0 0 0 99.5 35.5 L 99.5 21 A 2 2 0 0 0 97.5 19 L 83 19 A 2 2 0 0 0 81 21 L 81 35.5 A 2 2 0 0 0 83 37.5 Z M 102 37.5 L 116.5 37.5 A 2 2 0 0 0 118.5 35.5 L 118.5 21 A 2 2 0 0 0 116.5 19 L 102 19 A 2 2 0 0 0 100 21 L 100 35.5 A 2 2 0 0 0 102 37.5 Z M 35.5 56.5 L 50 56.5 A 2 2 0 0 0 52 54.5 L 52 40 A 2 2 0 0 0 50 38 L 35.5 38 A 2 2 0 0 0 33.5 40 L 33.5 54.5 A 2 2 0 0 0 35.5 56.5 Z M 54.5 56.5 L 69 56.5 A 2 2 0 0 0 71 54.5 L 71 40 A 2 2 0 0 0 69 38 L 54.5 38 A 2 2 0 0 0 52.5 40 L 52.5 54.5 A 2 2 0 0 0 54.5 56.5 Z M 73.5 56.5 L 88 56.5 A 2 2 0 0 0 90 54.5 L 90 40 A 2 2 0 0 0 88 38 L 73.5 38 A 2 2 0 0 0 71.5 40 L 71.5 54.5 A 2 2 0 0 0 73.5 56.5 Z M 92.5 56.5 L 107 56.5 A 2 2 0 0 0 109 54.5 L 109 40 A 2 2 0 0 0 107 38 L 92.5 38 A 2 2 0 0 0 90.5 40 L 90.5 54.5 A 2 2 0 0 0 92.5 56.5 Z M 111.5 56.5 L 126 56.5 A 2 2 0 0 0 128 54.5 L 128 40 A 2 2 0 0 0 126 38 L 111.5 38 A 2 2 0 0 0 109.5 40 L 109.5 54.5 A 2 2 0 0 0 111.5 56.5 Z M 92.95 79.3 L 107.45 79.3 A 2 2 0 0 0 109.45 77.3 L 109.45 62.8 A 2 2 0 0 0 107.45 60.8 L 92.95 60.8 A 2 2 0 0 0 90.95 62.8 L 90.95 77.3 A 2 2 0 0 0 92.95 79.3 Z M 192.75 18.5 L 207.25 18.5 A 2 2 0 0 0 209.25 16.5 L 209.25 2 A 2 2 0 0 0 207.25 0 L 192.75 0 A 2 2 0 0 0 190.75 2 L 190.75 16.5 A 2 2 0 0 0 192.75 18.5 Z M 211.75 18.5 L 226.25 18.5 A 2 2 0 0 0 228.25 16.5 L 228.25 2 A 2 2 0 0 0 226.25 0 L 211.75 0 A 2 2 0 0 0 209.75 2 L 209.75 16.5 A 2 2 0 0 0 211.75 18.5 Z M 230.75 18.5 L 245.25 18.5 A 2 2 0 0 0 247.25 16.5 L 247.25 2 A 2 2 0 0 0 245.25 0 L 230.75 0 A 2 2 0 0 0 228.75 2 L 228.75 16.5 A 2 2 0 0 0 230.75 18.5 Z M 249.75 18.5 L 264.25 18.5 A 2 2 0 0 0 266.25 16.5 L 266.25 2 A 2 2 0 0 0 264.25 0 L 249.75 0 A 2 2 0 0 0 247.75 2 L 247.75 16.5 A 2 2 0 0 0 249.75 18.5 Z M 268.75 18.5 L 283.25 18.5 A 2 2 0 0 0 285.25 16.5 L 285.25 2 A 2 2 0 0 0 283.25 0 L 268.75 0 A 2 2 0 0 0 266.75 2 L 266.75 16.5 A 2 2 0 0 0 268.75 18.5 Z M 287.75 18.5 L 302.25 18.5 A 2 2 0 0 0 304.25 16.5 L 304.25 2 A 2 2 0 0 0 302.25 0 L 287.75 0 A 2 2 0 0 0 285.75 2 L 285.75 16.5 A 2 2 0 0 0 287.75 18.5 Z M 306.75 18.5 L 321.25 18.5 A 2 2 0 0 0 323.25 16.5 L 323.25 2 A 2 2 0 0 0 321.25 0 L 306.75 0 A 2 2 0 0 0 304.75 2 L 304.75 16.5 A 2 2 0 0 0 306.75 18.5 Z M 199.78 37.5 L 214.28 37.5 A 2 2 0 0 0 216.28 35.5 L 216.28 21 A 2 2 0 0 0 214.28 19 L 199.78 19 A 2 2 0 0 0 197.78 21 L 197.78 35.5 A 2 2 0 0 0 199.78 37.5 Z M 218.78 37.5 L 233.28 37.5 A 2 2 0 0 0 235.28 35.5 L 235.28 21 A 2 2 0 0 0 233.28 19 L 218.78 19 A 2 2 0 0 0 216.78 21 L 216.78 35.5 A 2 2 0 0 0 218.78 37.5 Z M 237.78 37.5 L 252.28 37.5 A 2 2 0 0 0 254.28 35.5 L 254.28 21 A 2 2 0 0 0 252.28 19 L 237.78 19 A 2 2 0 0 0 235.78 21 L 235.78 35.5 A 2 2 0 0 0 237.78 37.5 Z M 256.78 37.5 L 271.28 37.5 A 2 2 0 0 0 273.28 35.5 L 273.28 21 A 2 2 0 0 0 271.28 19 L 256.78 19 A 2 2 0 0 0 254.78 21 L 254.78 35.5 A 2 2 0 0 0 256.78 37.5 Z M 275.78 37.5 L 290.28 37.5 A 2 2 0 0 0 292.28 35.5 L 292.28 21 A 2 2 0 0 0 290.28 19 L 275.78 19 A 2 2 0 0 0 273.78 21 L 273.78 35.5 A 2 2 0 0 0 275.78 37.5 Z M 189.75 56.5 L 204.25 56.5 A 2 2 0 0 0 206.25 54.5 L 206.25 40 A 2 2 0 0 0 204.25 38 L 189.75 38 A 2 2 0 0 0 187.75 40 L 187.75 54.5 A 2 2 0 0 0 189.75 56.5 Z M 208.75 56.5 L 223.25 56.5 A 2 2 0 0 0 225.25 54.5 L 225.25 40 A 2 2 0 0 0 223.25 38 L 208.75 38 A 2 2 0 0 0 206.75 40 L 206.75 54.5 A 2 2 0 0 0 208.75 56.5 Z M 227.75 56.5 L 242.25 56.5 A 2 2 0 0 0 244.25 54.5 L 244.25 40 A 2 2 0 0 0 242.25 38 L 227.75 38 A 2 2 0 0 0 225.75 40 L 225.75 54.5 A 2 2 0 0 0 227.75 56.5 Z M 246.75 56.5 L 261.25 56.5 A 2 2 0 0 0 263.25 54.5 L 263.25 40 A 2 2 0 0 0 261.25 38 L 246.75 38 A 2 2 0 0 0 244.75 40 L 244.75 54.5 A 2 2 0 0 0 246.75 56.5 Z M 265.75 56.5 L 280.25 56.5 A 2 2 0 0 0 282.25 54.5 L 282.25 40 A 2 2 0 0 0 280.25 38 L 265.75 38 A 2 2 0 0 0 263.75 40 L 263.75 54.5 A 2 2 0 0 0 265.75 56.5 Z M 284.75 56.5 L 299.25 56.5 A 2 2 0 0 0 301.25 54.5 L 301.25 40 A 2 2 0 0 0 299.25 38 L 284.75 38 A 2 2 0 0 0 282.75 40 L 282.75 54.5 A 2 2 0 0 0 284.75 56.5 Z M 303.75 56.5 L 318.25 56.5 A 2 2 0 0 0 320.25 54.5 L 320.25 40 A 2 2 0 0 0 318.25 38 L 303.75 38 A 2 2 0 0 0 301.75 40 L 301.75 54.5 A 2 2 0 0 0 303.75 56.5 Z M 265.75 75.5 L 280.25 75.5 A 2 2 0 0 0 282.25 73.5 L 282.25 59 A 2 2 0 0 0 280.25 57 L 265.75 57 A 2 2 0 0 0 263.75 59 L 263.75 73.5 A 2 2 0 0 0 265.75 75.5 Z M 284.75 75.5 L 299.25 75.5 A 2 2 0 0 0 301.25 73.5 L 301.25 59 A 2 2 0 0 0 299.25 57 L 284.75 57 A 2 2 0 0 0 282.75 59 L 282.75 73.5 A 2 2 0 0 0 284.75 75.5 Z M 303.75 75.5 L 318.25 75.5 A 2 2 0 0 0 320.25 73.5 L 320.25 59 A 2 2 0 0 0 318.25 57 L 303.75 57 A 2 2 0 0 0 301.75 59 L 301.75 73.5 A 2 2 0 0 0 303.75 75.5 Z M 211.25 79.3 L 225.75 79.3 A 2 2 0 0 0 227.75 77.3 L 227.75 62.8 A 2 2 0 0 0 225.75 60.8 L 211.25 60.8 A 2 2 0 0 0 209.25 62.8 L 209.25 77.3 A 2 2 0 0 0 211.25 79.3 Z" vector-effect="non-scaling-stroke"/></g></svg>