0
SECTION
2
HEADER
9
$INSUNITS
70
4
0
ENDSEC
0
SECTION
2
TABLES
0
TABLE
2
LTYPE
0
LTYPE
72
65
70
0
2
CONTINUOUS
3
______
73
0
40
0
0
LTYPE
72
65
70
0
2
DASHED
3
_ _ _ 
73
2
40
7.5
49
5
49
-2.5
0
LTYPE
72
65
70
0
2
DOTTED
3
. . . 
73
2
40
1.5
49
0.5
49
-1
0
ENDTAB
0
TABLE
2
LAYER
0
ENDTAB
0
ENDSEC
0
SECTION
2
ENTITIES
0
LINE
8
0
6
CONTINUOUS
10
2.1797464
20
-63.6037841
11
-0.3125613
21
8.3962159
0
LINE
8
0
6
CONTINUOUS
10
2.685643
20
11.5
11
155.0735218
21
11.5
0
LINE
8
0
6
CONTINUOUS
10
158.0725985
20
8.5744225
11
159.3021401
21
-40.973704
0
LINE
8
0
6
CONTINUOUS
10
158.9011396
20
-42.5481265
11
139.7753523
21
-75.674962
0
LINE
8
0
6
CONTINUOUS
10
136.3976901
20
-77.0718993
11
102.0141616
21
-67.8190517
0
LINE
8
0
6
CONTINUOUS
10
99.8161091
20
-64.5565064
11
100.3705587
21
-60.0408765
0
LINE
8
0
6
CONTINUOUS
10
97.4331247
20
-56.675538
11
50.0702045
21
-56.040747
0
LINE
8
0
6
CONTINUOUS
10
47.03
20
-59.0404776
11
47.03
21
-63.5
0
LINE
8
0
6
CONTINUOUS
10
44.03
20
-66.5
11
5.1779507
21
-66.5
0
ARC
8
0
6
CONTINUOUS
10
2.685643
20
8.5
40
3
50
90
51
181.9825259
0
ARC
8
0
6
CONTINUOUS
10
155.0735218
20
8.5
40
3
50
1.4215109
51
90
0
ARC
8
0
6
CONTINUOUS
10
156.3030634
20
-41.0481265
40
3
50
329.9999999
51
1.4215109
0
ARC
8
0
6
CONTINUOUS
10
137.1772761
20
-74.174962
40
3
50
254.9381267
51
329.9999999
0
ARC
8
0
6
CONTINUOUS
10
102.7937476
20
-64.9221143
40
3
50
173.0000028
51
254.9381267
0
ARC
8
0
6
CONTINUOUS
10
97.3929202
20
-59.6752686
40
3
50
353.0000028
51
89.2321276
0
ARC
8
0
6
CONTINUOUS
10
50.03
20
-59.0404776
40
3
50
89.2321276
51
180
0
ARC
8
0
6
CONTINUOUS
10
44.03
20
-63.5
40
3
50
270
51
0
0
ARC
8
0
6
CONTINUOUS
10
5.1779507
20
-63.5
40
3
50
181.9825259
51
270
0
LINE
8
0
6
CONTINUOUS
10
3.25
20
-8.25
11
17.75
21
-8.25
0
LINE
8
0
6
CONTINUOUS
10
19.75
20
-6.25
11
19.75
21
8.25
0
LINE
8
0
6
CONTINUOUS
10
17.75
20
10.25
11
3.25
21
10.25
0
LINE
8
0
6
CONTINUOUS
10
1.25
20
8.25
11
1.25
21
-6.25
0
LINE
8
0
6
CONTINUOUS
10
22.25
20
-8.25
11
36.75
21
-8.25
0
LINE
8
0
6
CONTINUOUS
10
38.75
20
-6.25
11
38.75
21
8.25
0
LINE
8
0
6
CONTINUOUS
10
36.75
20
10.25
11
22.25
21
10.25
0
LINE
8
0
6
CONTINUOUS
10
20.25
20
8.25
11
20.25
21
-6.25
0
LINE
8
0
6
CONTINUOUS
10
41.25
20
-8.25
11
55.75
21
-8.25
0
LINE
8
0
6
CONTINUOUS
10
57.75
20
-6.25
11
57.75
21
8.25
0
LINE
8
0
6
CONTINUOUS
10
55.75
20
10.25
11
41.25
21
10.25
0
LINE
8
0
6
CONTINUOUS
10
39.25
20
8.25
11
39.25
21
-6.25
0
LINE
8
0
6
CONTINUOUS
10
60.25
20
-8.25
11
74.75
21
-8.25
0
LINE
8
0
6
CONTINUOUS
10
76.75
20
-6.25
11
76.75
21
8.25
0
LINE
8
0
6
CONTINUOUS
10
74.75
20
10.25
11
60.25
21
10.25
0
LINE
8
0
6
CONTINUOUS
10
58.25
20
8.25
11
58.25
21
-6.25
0
LINE
8
0
6
CONTINUOUS
10
79.25
20
-8.25
11
93.75
21
-8.25
0
LINE
8
0
6
CONTINUOUS
10
95.75
20
-6.25
11
95.75
21
8.25
0
LINE
8
0
6
CONTINUOUS
10
93.75
20
10.25
11
79.25
21
10.25
0
LINE
8
0
6
CONTINUOUS
10
77.25
20
8.25
11
77.25
21
-6.25
0
LINE
8
0
6
CONTINUOUS
10
98.25
20
-8.25
11
112.75
21
-8.25
0
LINE
8
0
6
CONTINUOUS
10
114.75
20
-6.25
11
114.75
21
8.25
0
LINE
8
0
6
CONTINUOUS
10
112.75
20
10.25
11
98.25
21
10.25
0
LINE
8
0
6
CONTINUOUS
10
96.25
20
8.25
11
96.25
21
-6.25
0
LINE
8
0
6
CONTINUOUS
10
5.53
20
-27.25
11
20.03
21
-27.25
0
LINE
8
0
6
CONTINUOUS
10
22.03
20
-25.25
11
22.03
21
-10.75
0
LINE
8
0
6
CONTINUOUS
10
20.03
20
-8.75
11
5.53
21
-8.75
0
LINE
8
0
6
CONTINUOUS
10
3.53
20
-10.75
11
3.53
21
-25.25
0
LINE
8
0
6
CONTINUOUS
10
27
20
-27.25
11
41.5
21
-27.25
0
LINE
8
0
6
CONTINUOUS
10
43.5
20
-25.25
11
43.5
21
-10.75
0
LINE
8
0
6
CONTINUOUS
10
41.5
20
-8.75
11
27
21
-8.75
0
LINE
8
0
6
CONTINUOUS
10
25
20
-10.75
11
25
21
-25.25
0
LINE
8
0
6
CONTINUOUS
10
46
20
-27.25
11
60.5
21
-27.25
0
LINE
8
0
6
CONTINUOUS
10
62.5
20
-25.25
11
62.5
21
-10.75
0
LINE
8
0
6
CONTINUOUS
10
60.5
20
-8.75
11
46
21
-8.75
0
LINE
8
0
6
CONTINUOUS
10
44
20
-10.75
11
44
21
-25.25
0
LINE
8
0
6
CONTINUOUS
10
65
20
-27.25
11
79.5
21
-27.25
0
LINE
8
0
6
CONTINUOUS
10
81.5
20
-25.25
11
81.5
21
-10.75
0
LINE
8
0
6
CONTINUOUS
10
79.5
20
-8.75
11
65
21
-8.75
0
LINE
8
0
6
CONTINUOUS
10
63
20
-10.75
11
63
21
-25.25
0
LINE
8
0
6
CONTINUOUS
10
84
20
-27.25
11
98.5
21
-27.25
0
LINE
8
0
6
CONTINUOUS
10
100.5
20
-25.25
11
100.5
21
-10.75
0
LINE
8
0
6
CONTINUOUS
10
98.5
20
-8.75
11
84
21
-8.75
0
LINE
8
0
6
CONTINUOUS
10
82
20
-10.75
11
82
21
-25.25
0
LINE
8
0
6
CONTINUOUS
10
103
20
-27.25
11
117.5
21
-27.25
0
LINE
8
0
6
CONTINUOUS
10
119.5
20
-25.25
11
119.5
21
-10.75
0
LINE
8
0
6
CONTINUOUS
10
117.5
20
-8.75
11
103
21
-8.75
0
LINE
8
0
6
CONTINUOUS
10
101
20
-10.75
11
101
21
-25.25
0
LINE
8
0
6
CONTINUOUS
10
10.28
20
-46.25
11
24.78
21
-46.25
0
LINE
8
0
6
CONTINUOUS
10
26.78
20
-44.25
11
26.78
21
-29.75
0
LINE
8
0
6
CONTINUOUS
10
24.78
20
-27.75
11
10.28
21
-27.75
0
LINE
8
0
6
CONTINUOUS
10
8.28
20
-29.75
11
8.28
21
-44.25
0
LINE
8
0
6
CONTINUOUS
10
36.5
20
-46.25
11
51
21
-46.25
0
LINE
8
0
6
CONTINUOUS
10
53
20
-44.25
11
53
21
-29.75
0
LINE
8
0
6
CONTINUOUS
10
51
20
-27.75
11
36.5
21
-27.75
0
LINE
8
0
6
CONTINUOUS
10
34.5
20
-29.75
11
34.5
21
-44.25
0
LINE
8
0
6
CONTINUOUS
10
55.5
20
-46.25
11
70
21
-46.25
0
LINE
8
0
6
CONTINUOUS
10
72
20
-44.25
11
72
21
-29.75
0
LINE
8
0
6
CONTINUOUS
10
70
20
-27.75
11
55.5
21
-27.75
0
LINE
8
0
6
CONTINUOUS
10
53.5
20
-29.75
11
53.5
21
-44.25
0
LINE
8
0
6
CONTINUOUS
10
74.5
20
-46.25
11
89
21
-46.25
0
LINE
8
0
6
CONTINUOUS
10
91
20
-44.25
11
91
21
-29.75
0
LINE
8
0
6
CONTINUOUS
10
89
20
-27.75
11
74.5
21
-27.75
0
LINE
8
0
6
CONTINUOUS
10
72.5
20
-29.75
11
72.5
21
-44.25
0
LINE
8
0
6
CONTINUOUS
10
93.5
20
-46.25
11
108
21
-46.25
0
LINE
8
0
6
CONTINUOUS
10
110
20
-44.25
11
110
21
-29.75
0
LINE
8
0
6
CONTINUOUS
10
108
20
-27.75
11
93.5
21
-27.75
0
LINE
8
0
6
CONTINUOUS
10
91.5
20
-29.75
11
91.5
21
-44.25
0
LINE
8
0
6
CONTINUOUS
10
112.5
20
-46.25
11
127
21
-46.25
0
LINE
8
0
6
CONTINUOUS
10
129
20
-44.25
11
129
21
-29.75
0
LINE
8
0
6
CONTINUOUS
10
127
20
-27.75
11
112.5
21
-27.75
0
LINE
8
0
6
CONTINUOUS
10
110.5
20
-29.75
11
110.5
21
-44.25
0
LINE
8
0
6
CONTINUOUS
10
5.53
20
-65.25
11
20.03
21
-65.25
0
LINE
8
0
6
CONTINUOUS
10
22.03
20
-63.25
11
22.03
21
-48.75
0
LINE
8
0
6
CONTINUOUS
10
20.03
20
-46.75
11
5.53
21
-46.75
0
LINE
8
0
6
CONTINUOUS
10
3.53
20
-48.75
11
3.53
21
-63.25
0
LINE
8
0
6
CONTINUOUS
10
29.28
20
-65.25
11
43.78
21
-65.25
0
LINE
8
0
6
CONTINUOUS
10
45.78
20
-63.25
11
45.78
21
-48.75
0
LINE
8
0
6
CONTINUOUS
10
43.78
20
-46.75
11
29.28
21
-46.75
0
LINE
8
0
6
CONTINUOUS
10
27.28
20
-48.75
11
27.28
21
-63.25
0
LINE
8
0
6
CONTINUOUS
10
102.8767491
20
-66.2974992
11
117.2686683
21
-68.0646046
0
LINE
8
0
6
CONTINUOUS
10
119.4974992
20
-66.3232509
11
121.2646046
21
-51.9313317
0
LINE
8
0
6
CONTINUOUS
10
119.5232509
20
-49.7025008
11
105.1313317
21
-47.9353954
0
LINE
8
0
6
CONTINUOUS
10
102.9025008
20
-49.6767491
11
101.1353954
21
-64.0686683
0
LINE
8
0
6
CONTINUOUS
10
138.5722413
20
-75.1588112
11
150.8222413
21
-53.9411888
0
LINE
8
0
6
CONTINUOUS
10
150.0901905
20
-51.209138
11
137.0998095
21
-43.709138
0
LINE
8
0
6
CONTINUOUS
10
134.3677587
20
-44.4411888
11
122.1177587
21
-65.6588112
0
LINE
8
0
6
CONTINUOUS
10
122.8498095
20
-68.390862
11
135.8401905
21
-75.890862
0
ARC
8
0
6
CONTINUOUS
10
149.0901905
20
-52.9411888
40
2
50
329.9999999
51
59.9999999
0
ARC
8
0
6
CONTINUOUS
10
136.0998095
20
-45.4411888
40
2
50
59.9999999
51
149.9999999
0
ARC
8
0
6
CONTINUOUS
10
123.8498095
20
-66.6588112
40
2
50
149.9999999
51
239.9999999
0
ARC
8
0
6
CONTINUOUS
10
136.8401905
20
-74.1588112
40
2
50
239.9999999
51
329.9999999
0
ARC
8
0
6
CONTINUOUS
10
17.75
20
-6.25
40
2
50
270
51
0
0
ARC
8
0
6
CONTINUOUS
10
17.75
20
8.25
40
2
50
0
51
90
0
ARC
8
0
6
CONTINUOUS
10
3.25
20
8.25
40
2
50
90
51
180
0
ARC
8
0
6
CONTINUOUS
10
3.25
20
-6.25
40
2
50
180
51
270
0
ARC
8
0
6
CONTINUOUS
10
36.75
20
-6.25
40
2
50
270
51
0
0
ARC
8
0
6
CONTINUOUS
10
36.75
20
8.25
40
2
50
0
51
90
0
ARC
8
0
6
CONTINUOUS
10
22.25
20
8.25
40
2
50
90
51
180
0
ARC
8
0
6
CONTINUOUS
10
22.25
20
-6.25
40
2
50
180
51
270
0
ARC
8
0
6
CONTINUOUS
10
55.75
20
-6.25
40
2
50
270
51
0
0
ARC
8
0
6
CONTINUOUS
10
55.75
20
8.25
40
2
50
0
51
90
0
ARC
8
0
6
CONTINUOUS
10
41.25
20
8.25
40
2
50
90
51
180
0
ARC
8
0
6
CONTINUOUS
10
41.25
20
-6.25
40
2
50
180
51
270
0
ARC
8
0
6
CONTINUOUS
10
74.75
20
-6.25
40
2
50
270
51
0
0
ARC
8
0
6
CONTINUOUS
10
74.75
20
8.25
40
2
50
0
51
90
0
ARC
8
0
6
CONTINUOUS
10
60.25
20
8.25
40
2
50
90
51
180
0
ARC
8
0
6
CONTINUOUS
10
60.25
20
-6.25
40
2
50
180
51
270
0
ARC
8
0
6
CONTINUOUS
10
93.75
20
-6.25
40
2
50
270
51
0
0
ARC
8
0
6
CONTINUOUS
10
93.75
20
8.25
40
2
50
0
51
90
0
ARC
8
0
6
CONTINUOUS
10
79.25
20
8.25
40
2
50
90
51
180
0
ARC
8
0
6
CONTINUOUS
10
79.25
20
-6.25
40
2
50
180
51
270
0
ARC
8
0
6
CONTINUOUS
10
112.75
20
-6.25
40
2
50
270
51
0
0
ARC
8
0
6
CONTINUOUS
10
112.75
20
8.25
40
2
50
0
51
90
0
ARC
8
0
6
CONTINUOUS
10
98.25
20
8.25
40
2
50
90
51
180
0
ARC
8
0
6
CONTINUOUS
10
98.25
20
-6.25
40
2
50
180
51
270
0
ARC
8
0
6
CONTINUOUS
10
20.03
20
-25.25
40
2
50
270
51
0
0
ARC
8
0
6
CONTINUOUS
10
20.03
20
-10.75
40
2
50
0
51
90
0
ARC
8
0
6
CONTINUOUS
10
5.53
20
-10.75
40
2
50
90
51
180
0
ARC
8
0
6
CONTINUOUS
10
5.53
20
-25.25
40
2
50
180
51
270
0
ARC
8
0
6
CONTINUOUS
10
41.5
20
-25.25
40
2
50
270
51
0
0
ARC
8
0
6
CONTINUOUS
10
41.5
20
-10.75
40
2
50
0
51
90
0
ARC
8
0
6
CONTINUOUS
10
27
20
-10.75
40
2
50
90
51
180
0
ARC
8
0
6
CONTINUOUS
10
27
20
-25.25
40
2
50
180
51
270
0
ARC
8
0
6
CONTINUOUS
10
60.5
20
-25.25
40
2
50
270
51
0
0
ARC
8
0
6
CONTINUOUS
10
60.5
20
-10.75
40
2
50
0
51
90
0
ARC
8
0
6
CONTINUOUS
10
46
20
-10.75
40
2
50
90
51
180
0
ARC
8
0
6
CONTINUOUS
10
46
20
-25.25
40
2
50
180
51
270
0
ARC
8
0
6
CONTINUOUS
10
79.5
20
-25.25
40
2
50
270
51
0
0
ARC
8
0
6
CONTINUOUS
10
79.5
20
-10.75
40
2
50
0
51
90
0
ARC
8
0
6
CONTINUOUS
10
65
20
-10.75
40
2
50
90
51
180
0
ARC
8
0
6
CONTINUOUS
10
65
20
-25.25
40
2
50
180
51
270
0
ARC
8
0
6
CONTINUOUS
10
98.5
20
-25.25
40
2
50
270
51
0
0
ARC
8
0
6
CONTINUOUS
10
98.5
20
-10.75
40
2
50
0
51
90
0
ARC
8
0
6
CONTINUOUS
10
84
20
-10.75
40
2
50
90
51
180
0
ARC
8
0
6
CONTINUOUS
10
84
20
-25.25
40
2
50
180
51
270
0
ARC
8
0
6
CONTINUOUS
10
117.5
20
-25.25
40
2
50
270
51
0
0
ARC
8
0
6
CONTINUOUS
10
117.5
20
-10.75
40
2
50
0
51
90
0
ARC
8
0
6
CONTINUOUS
10
103
20
-10.75
40
2
50
90
51
180
0
ARC
8
0
6
CONTINUOUS
10
103
20
-25.25
40
2
50
180
51
270
0
ARC
8
0
6
CONTINUOUS
10
24.78
20
-44.25
40
2
50
270
51
0
0
ARC
8
0
6
CONTINUOUS
10
24.78
20
-29.75
40
2
50
0
51
90
0
ARC
8
0
6
CONTINUOUS
10
10.28
20
-29.75
40
2
50
90
51
180
0
ARC
8
0
6
CONTINUOUS
10
10.28
20
-44.25
40
2
50
180
51
270
0
ARC
8
0
6
CONTINUOUS
10
51
20
-44.25
40
2
50
270
51
0
0
ARC
8
0
6
CONTINUOUS
10
51
20
-29.75
40
2
50
0
51
90
0
ARC
8
0
6
CONTINUOUS
10
36.5
20
-29.75
40
2
50
90
51
180
0
ARC
8
0
6
CONTINUOUS
10
36.5
20
-44.25
40
2
50
180
51
270
0
ARC
8
0
6
CONTINUOUS
10
70
20
-44.25
40
2
50
270
51
0
0
ARC
8
0
6
CONTINUOUS
10
70
20
-29.75
40
2
50
0
51
90
0
ARC
8
0
6
CONTINUOUS
10
55.5
20
-29.75
40
2
50
90
51
180
0
ARC
8
0
6
CONTINUOUS
10
55.5
20
-44.25
40
2
50
180
51
270
0
ARC
8
0
6
CONTINUOUS
10
89
20
-44.25
40
2
50
270
51
0
0
ARC
8
0
6
CONTINUOUS
10
89
20
-29.75
40
2
50
0
51
90
0
ARC
8
0
6
CONTINUOUS
10
74.5
20
-29.75
40
2
50
90
51
180
0
ARC
8
0
6
CONTINUOUS
10
74.5
20
-44.25
40
2
50
180
51
270
0
ARC
8
0
6
CONTINUOUS
10
108
20
-44.25
40
2
50
270
51
0
0
ARC
8
0
6
CONTINUOUS
10
108
20
-29.75
40
2
50
0
51
90
0
ARC
8
0
6
CONTINUOUS
10
93.5
20
-29.75
40
2
50
90
51
180
0
ARC
8
0
6
CONTINUOUS
10
93.5
20
-44.25
40
2
50
180
51
270
0
ARC
8
0
6
CONTINUOUS
10
127
20
-44.25
40
2
50
270
51
0
0
ARC
8
0
6
CONTINUOUS
10
127
20
-29.75
40
2
50
0
51
90
0
ARC
8
0
6
CONTINUOUS
10
112.5
20
-29.75
40
2
50
90
51
180
0
ARC
8
0
6
CONTINUOUS
10
112.5
20
-44.25
40
2
50
180
51
270
0
ARC
8
0
6
CONTINUOUS
10
20.03
20
-63.25
40
2
50
270
51
0
0
ARC
8
0
6
CONTINUOUS
10
20.03
20
-48.75
40
2
50
0
51
90
0
ARC
8
0
6
CONTINUOUS
10
5.53
20
-48.75
40
2
50
90
51
180
0
ARC
8
0
6
CONTINUOUS
10
5.53
20
-63.25
40
2
50
180
51
270
0
ARC
8
0
6
CONTINUOUS
10
43.78
20
-63.25
40
2
50
270
51
0
0
ARC
8
0
6
CONTINUOUS
10
43.78
20
-48.75
40
2
50
0
51
90
0
ARC
8
0
6
CONTINUOUS
10
29.28
20
-48.75
40
2
50
90
51
180
0
ARC
8
0
6
CONTINUOUS
10
29.28
20
-63.25
40
2
50
180
51
270
0
ARC
8
0
6
CONTINUOUS
10
117.5124069
20
-66.0795123
40
2
50
263.0000028
51
353.0000028
0
ARC
8
0
6
CONTINUOUS
10
119.2795123
20
-51.6875931
40
2
50
353.0000028
51
83.0000028
0
ARC
8
0
6
CONTINUOUS
10
104.8875931
20
-49.9204877
40
2
50
83.0000028
51
173.0000028
0
ARC
8
0
6
CONTINUOUS
10
103.1204877
20
-64.3124069
40
2
50
173.0000028
51
263.0000028
0
ENDSEC
0
EOF