0
SECTION
2
HEADER
9
$INSUNITS
70
4
0
ENDSEC
0
SECTION
2
TABLES
0
TABLE
2
LTYPE
0
LTYPE
72
65
70
0
2
CONTINUOUS
3
______
73
0
40
0
0
LTYPE
72
65
70
0
2
DASHED
3
_ _ _ 
73
2
40
7.5
49
5
49
-2.5
0
LTYPE
72
65
70
0
2
DOTTED
3
. . . 
73
2
40
1.5
49
0.5
49
-1
0
ENDTAB
0
TABLE
2
LAYER
0
ENDTAB
0
ENDSEC
0
SECTION
2
ENTITIES
0
LINE
8
0
6
CONTINUOUS
10
3.25
20
-8.25
11
17.75
21
-8.25
0
LINE
8
0
6
CONTINUOUS
10
19.75
20
-6.25
11
19.75
21
8.25
0
LINE
8
0
6
CONTINUOUS
10
17.75
20
10.25
11
3.25
21
10.25
0
LINE
8
0
6
CONTINUOUS
10
1.25
20
8.25
11
1.25
21
-6.25
0
LINE
8
0
6
CONTINUOUS
10
22.25
20
-8.25
11
36.75
21
-8.25
0
LINE
8
0
6
CONTINUOUS
10
38.75
20
-6.25
11
38.75
21
8.25
0
LINE
8
0
6
CONTINUOUS
10
36.75
20
10.25
11
22.25
21
10.25
0
LINE
8
0
6
CONTINUOUS
10
20.25
20
8.25
11
20.25
21
-6.25
0
LINE
8
0
6
CONTINUOUS
10
41.25
20
-8.25
11
55.75
21
-8.25
0
LINE
8
0
6
CONTINUOUS
10
57.75
20
-6.25
11
57.75
21
8.25
0
LINE
8
0
6
CONTINUOUS
10
55.75
20
10.25
11
41.25
21
10.25
0
LINE
8
0
6
CONTINUOUS
10
39.25
20
8.25
11
39.25
21
-6.25
0
LINE
8
0
6
CONTINUOUS
10
60.25
20
-8.25
11
74.75
21
-8.25
0
LINE
8
0
6
CONTINUOUS
10
76.75
20
-6.25
11
76.75
21
8.25
0
LINE
8
0
6
CONTINUOUS
10
74.75
20
10.25
11
60.25
21
10.25
0
LINE
8
0
6
CONTINUOUS
10
58.25
20
8.25
11
58.25
21
-6.25
0
LINE
8
0
6
CONTINUOUS
10
79.25
20
-8.25
11
93.75
21
-8.25
0
LINE
8
0
6
CONTINUOUS
10
95.75
20
-6.25
11
95.75
21
8.25
0
LINE
8
0
6
CONTINUOUS
10
93.75
20
10.25
11
79.25
21
10.25
0
LINE
8
0
6
CONTINUOUS
10
77.25
20
8.25
11
77.25
21
-6.25
0
LINE
8
0
6
CONTINUOUS
10
98.25
20
-8.25
11
112.75
21
-8.25
0
LINE
8
0
6
CONTINUOUS
10
114.75
20
-6.25
11
114.75
21
8.25
0
LINE
8
0
6
CONTINUOUS
10
112.75
20
10.25
11
98.25
21
10.25
0
LINE
8
0
6
CONTINUOUS
10
96.25
20
8.25
11
96.25
21
-6.25
0
LINE
8
0
6
CONTINUOUS
10
5.53
20
-27.25
11
20.03
21
-27.25
0
LINE
8
0
6
CONTINUOUS
10
22.03
20
-25.25
11
22.03
21
-10.75
0
LINE
8
0
6
CONTINUOUS
10
20.03
20
-8.75
11
5.53
21
-8.75
0
LINE
8
0
6
CONTINUOUS
10
3.53
20
-10.75
11
3.53
21
-25.25
0
LINE
8
0
6
CONTINUOUS
10
27
20
-27.25
11
41.5
21
-27.25
0
LINE
8
0
6
CONTINUOUS
10
43.5
20
-25.25
11
43.5
21
-10.75
0
LINE
8
0
6
CONTINUOUS
10
41.5
20
-8.75
11
27
21
-8.75
0
LINE
8
0
6
CONTINUOUS
10
25
20
-10.75
11
25
21
-25.25
0
LINE
8
0
6
CONTINUOUS
10
46
20
-27.25
11
60.5
21
-27.25
0
LINE
8
0
6
CONTINUOUS
10
62.5
20
-25.25
11
62.5
21
-10.75
0
LINE
8
0
6
CONTINUOUS
10
60.5
20
-8.75
11
46
21
-8.75
0
LINE
8
0
6
CONTINUOUS
10
44
20
-10.75
11
44
21
-25.25
0
LINE
8
0
6
CONTINUOUS
10
65
20
-27.25
11
79.5
21
-27.25
0
LINE
8
0
6
CONTINUOUS
10
81.5
20
-25.25
11
81.5
21
-10.75
0
LINE
8
0
6
CONTINUOUS
10
79.5
20
-8.75
11
65
21
-8.75
0
LINE
8
0
6
CONTINUOUS
10
63
20
-10.75
11
63
21
-25.25
0
LINE
8
0
6
CONTINUOUS
10
84
20
-27.25
11
98.5
21
-27.25
0
LINE
8
0
6
CONTINUOUS
10
100.5
20
-25.25
11
100.5
21
-10.75
0
LINE
8
0
6
CONTINUOUS
10
98.5
20
-8.75
11
84
21
-8.75
0
LINE
8
0
6
CONTINUOUS
10
82
20
-10.75
11
82
21
-25.25
0
LINE
8
0
6
CONTINUOUS
10
103
20
-27.25
11
117.5
21
-27.25
0
LINE
8
0
6
CONTINUOUS
10
119.5
20
-25.25
11
119.5
21
-10.75
0
LINE
8
0
6
CONTINUOUS
10
117.5
20
-8.75
11
103
21
-8.75
0
LINE
8
0
6
CONTINUOUS
10
101
20
-10.75
11
101
21
-25.25
0
LINE
8
0
6
CONTINUOUS
10
10.28
20
-46.25
11
24.78
21
-46.25
0
LINE
8
0
6
CONTINUOUS
10
26.78
20
-44.25
11
26.78
21
-29.75
0
LINE
8
0
6
CONTINUOUS
10
24.78
20
-27.75
11
10.28
21
-27.75
0
LINE
8
0
6
CONTINUOUS
10
8.28
20
-29.75
11
8.28
21
-44.25
0
LINE
8
0
6
CONTINUOUS
10
36.5
20
-46.25
11
51
21
-46.25
0
LINE
8
0
6
CONTINUOUS
10
53
20
-44.25
11
53
21
-29.75
0
LINE
8
0
6
CONTINUOUS
10
51
20
-27.75
11
36.5
21
-27.75
0
LINE
8
0
6
CONTINUOUS
10
34.5
20
-29.75
11
34.5
21
-44.25
0
LINE
8
0
6
CONTINUOUS
10
55.5
20
-46.25
11
70
21
-46.25
0
LINE
8
0
6
CONTINUOUS
10
72
20
-44.25
11
72
21
-29.75
0
LINE
8
0
6
CONTINUOUS
10
70
20
-27.75
11
55.5
21
-27.75
0
LINE
8
0
6
CONTINUOUS
10
53.5
20
-29.75
11
53.5
21
-44.25
0
LINE
8
0
6
CONTINUOUS
10
74.5
20
-46.25
11
89
21
-46.25
0
LINE
8
0
6
CONTINUOUS
10
91
20
-44.25
11
91
21
-29.75
0
LINE
8
0
6
CONTINUOUS
10
89
20
-27.75
11
74.5
21
-27.75
0
LINE
8
0
6
CONTINUOUS
10
72.5
20
-29.75
11
72.5
21
-44.25
0
LINE
8
0
6
CONTINUOUS
10
93.5
20
-46.25
11
108
21
-46.25
0
LINE
8
0
6
CONTINUOUS
10
110
20
-44.25
11
110
21
-29.75
0
LINE
8
0
6
CONTINUOUS
10
108
20
-27.75
11
93.5
21
-27.75
0
LINE
8
0
6
CONTINUOUS
10
91.5
20
-29.75
11
91.5
21
-44.25
0
LINE
8
0
6
CONTINUOUS
10
112.5
20
-46.25
11
127
21
-46.25
0
LINE
8
0
6
CONTINUOUS
10
129
20
-44.25
11
129
21
-29.75
0
LINE
8
0
6
CONTINUOUS
10
127
20
-27.75
11
112.5
21
-27.75
0
LINE
8
0
6
CONTINUOUS
10
110.5
20
-29.75
11
110.5
21
-44.25
0
LINE
8
0
6
CONTINUOUS
10
5.53
20
-65.25
11
20.03
21
-65.25
0
LINE
8
0
6
CONTINUOUS
10
22.03
20
-63.25
11
22.03
21
-48.75
0
LINE
8
0
6
CONTINUOUS
10
20.03
20
-46.75
11
5.53
21
-46.75
0
LINE
8
0
6
CONTINUOUS
10
3.53
20
-48.75
11
3.53
21
-63.25
0
LINE
8
0
6
CONTINUOUS
10
29.28
20
-65.25
11
43.78
21
-65.25
0
LINE
8
0
6
CONTINUOUS
10
45.78
20
-63.25
11
45.78
21
-48.75
0
LINE
8
0
6
CONTINUOUS
10
43.78
20
-46.75
11
29.28
21
-46.75
0
LINE
8
0
6
CONTINUOUS
10
27.28
20
-48.75
11
27.28
21
-63.25
0
LINE
8
0
6
CONTINUOUS
10
102.8767491
20
-66.2974992
11
117.2686683
21
-68.0646046
0
LINE
8
0
6
CONTINUOUS
10
119.4974992
20
-66.3232509
11
121.2646046
21
-51.9313317
0
LINE
8
0
6
CONTINUOUS
10
119.5232509
20
-49.7025008
11
105.1313317
21
-47.9353954
0
LINE
8
0
6
CONTINUOUS
10
102.9025008
20
-49.6767491
11
101.1353954
21
-64.0686683
0
LINE
8
0
6
CONTINUOUS
10
193.75
20
-8.25
11
208.25
21
-8.25
0
LINE
8
0
6
CONTINUOUS
10
210.25
20
-6.25
11
210.25
21
8.25
0
LINE
8
0
6
CONTINUOUS
10
208.25
20
10.25
11
193.75
21
10.25
0
LINE
8
0
6
CONTINUOUS
10
191.75
20
8.25
11
191.75
21
-6.25
0
LINE
8
0
6
CONTINUOUS
10
212.75
20
-8.25
11
227.25
21
-8.25
0
LINE
8
0
6
CONTINUOUS
10
229.25
20
-6.25
11
229.25
21
8.25
0
LINE
8
0
6
CONTINUOUS
10
227.25
20
10.25
11
212.75
21
10.25
0
LINE
8
0
6
CONTINUOUS
10
210.75
20
8.25
11
210.75
21
-6.25
0
LINE
8
0
6
CONTINUOUS
10
231.75
20
-8.25
11
246.25
21
-8.25
0
LINE
8
0
6
CONTINUOUS
10
248.25
20
-6.25
11
248.25
21
8.25
0
LINE
8
0
6
CONTINUOUS
10
246.25
20
10.25
11
231.75
21
10.25
0
LINE
8
0
6
CONTINUOUS
10
229.75
20
8.25
11
229.75
21
-6.25
0
LINE
8
0
6
CONTINUOUS
10
250.75
20
-8.25
11
265.25
21
-8.25
0
LINE
8
0
6
CONTINUOUS
10
267.25
20
-6.25
11
267.25
21
8.25
0
LINE
8
0
6
CONTINUOUS
10
265.25
20
10.25
11
250.75
21
10.25
0
LINE
8
0
6
CONTINUOUS
10
248.75
20
8.25
11
248.75
21
-6.25
0
LINE
8
0
6
CONTINUOUS
10
269.75
20
-8.25
11
284.25
21
-8.25
0
LINE
8
0
6
CONTINUOUS
10
286.25
20
-6.25
11
286.25
21
8.25
0
LINE
8
0
6
CONTINUOUS
10
284.25
20
10.25
11
269.75
21
10.25
0
LINE
8
0
6
CONTINUOUS
10
267.75
20
8.25
11
267.75
21
-6.25
0
LINE
8
0
6
CONTINUOUS
10
288.75
20
-8.25
11
303.25
21
-8.25
0
LINE
8
0
6
CONTINUOUS
10
305.25
20
-6.25
11
305.25
21
8.25
0
LINE
8
0
6
CONTINUOUS
10
303.25
20
10.25
11
288.75
21
10.25
0
LINE
8
0
6
CONTINUOUS
10
286.75
20
8.25
11
286.75
21
-6.25
0
LINE
8
0
6
CONTINUOUS
10
200.78
20
-27.25
11
215.28
21
-27.25
0
LINE
8
0
6
CONTINUOUS
10
217.28
20
-25.25
11
217.28
21
-10.75
0
LINE
8
0
6
CONTINUOUS
10
215.28
20
-8.75
11
200.78
21
-8.75
0
LINE
8
0
6
CONTINUOUS
10
198.78
20
-10.75
11
198.78
21
-25.25
0
LINE
8
0
6
CONTINUOUS
10
219.78
20
-27.25
11
234.28
21
-27.25
0
LINE
8
0
6
CONTINUOUS
10
236.28
20
-25.25
11
236.28
21
-10.75
0
LINE
8
0
6
CONTINUOUS
10
234.28
20
-8.75
11
219.78
21
-8.75
0
LINE
8
0
6
CONTINUOUS
10
217.78
20
-10.75
11
217.78
21
-25.25
0
LINE
8
0
6
CONTINUOUS
10
238.78
20
-27.25
11
253.28
21
-27.25
0
LINE
8
0
6
CONTINUOUS
10
255.28
20
-25.25
11
255.28
21
-10.75
0
LINE
8
0
6
CONTINUOUS
10
253.28
20
-8.75
11
238.78
21
-8.75
0
LINE
8
0
6
CONTINUOUS
10
236.78
20
-10.75
11
236.78
21
-25.25
0
LINE
8
0
6
CONTINUOUS
10
257.78
20
-27.25
11
272.28
21
-27.25
0
LINE
8
0
6
CONTINUOUS
10
274.28
20
-25.25
11
274.28
21
-10.75
0
LINE
8
0
6
CONTINUOUS
10
272.28
20
-8.75
11
257.78
21
-8.75
0
LINE
8
0
6
CONTINUOUS
10
255.78
20
-10.75
11
255.78
21
-25.25
0
LINE
8
0
6
CONTINUOUS
10
276.78
20
-27.25
11
291.28
21
-27.25
0
LINE
8
0
6
CONTINUOUS
10
293.28
20
-25.25
11
293.28
21
-10.75
0
LINE
8
0
6
CONTINUOUS
10
291.28
20
-8.75
11
276.78
21
-8.75
0
LINE
8
0
6
CONTINUOUS
10
274.78
20
-10.75
11
274.78
21
-25.25
0
LINE
8
0
6
CONTINUOUS
10
190.75
20
-46.25
11
205.25
21
-46.25
0
LINE
8
0
6
CONTINUOUS
10
207.25
20
-44.25
11
207.25
21
-29.75
0
LINE
8
0
6
CONTINUOUS
10
205.25
20
-27.75
11
190.75
21
-27.75
0
LINE
8
0
6
CONTINUOUS
10
188.75
20
-29.75
11
188.75
21
-44.25
0
LINE
8
0
6
CONTINUOUS
10
209.75
20
-46.25
11
224.25
21
-46.25
0
LINE
8
0
6
CONTINUOUS
10
226.25
20
-44.25
11
226.25
21
-29.75
0
LINE
8
0
6
CONTINUOUS
10
224.25
20
-27.75
11
209.75
21
-27.75
0
LINE
8
0
6
CONTINUOUS
10
207.75
20
-29.75
11
207.75
21
-44.25
0
LINE
8
0
6
CONTINUOUS
10
228.75
20
-46.25
11
243.25
21
-46.25
0
LINE
8
0
6
CONTINUOUS
10
245.25
20
-44.25
11
245.25
21
-29.75
0
LINE
8
0
6
CONTINUOUS
10
243.25
20
-27.75
11
228.75
21
-27.75
0
LINE
8
0
6
CONTINUOUS
10
226.75
20
-29.75
11
226.75
21
-44.25
0
LINE
8
0
6
CONTINUOUS
10
247.75
20
-46.25
11
262.25
21
-46.25
0
LINE
8
0
6
CONTINUOUS
10
264.25
20
-44.25
11
264.25
21
-29.75
0
LINE
8
0
6
CONTINUOUS
10
262.25
20
-27.75
11
247.75
21
-27.75
0
LINE
8
0
6
CONTINUOUS
10
245.75
20
-29.75
11
245.75
21
-44.25
0
LINE
8
0
6
CONTINUOUS
10
266.75
20
-46.25
11
281.25
21
-46.25
0
LINE
8
0
6
CONTINUOUS
10
283.25
20
-44.25
11
283.25
21
-29.75
0
LINE
8
0
6
CONTINUOUS
10
281.25
20
-27.75
11
266.75
21
-27.75
0
LINE
8
0
6
CONTINUOUS
10
264.75
20
-29.75
11
264.75
21
-44.25
0
LINE
8
0
6
CONTINUOUS
10
285.75
20
-46.25
11
300.25
21
-46.25
0
LINE
8
0
6
CONTINUOUS
10
302.25
20
-44.25
11
302.25
21
-29.75
0
LINE
8
0
6
CONTINUOUS
10
300.25
20
-27.75
11
285.75
21
-27.75
0
LINE
8
0
6
CONTINUOUS
10
283.75
20
-29.75
11
283.75
21
-44.25
0
LINE
8
0
6
CONTINUOUS
10
247.75
20
-65.25
11
262.25
21
-65.25
0
LINE
8
0
6
CONTINUOUS
10
264.25
20
-63.25
11
264.25
21
-48.75
0
LINE
8
0
6
CONTINUOUS
10
262.25
20
-46.75
11
247.75
21
-46.75
0
LINE
8
0
6
CONTINUOUS
10
245.75
20
-48.75
11
245.75
21
-63.25
0
LINE
8
0
6
CONTINUOUS
10
266.750001
20
-65.25
11
281.250001
21
-65.25
0
LINE
8
0
6
CONTINUOUS
10
283.250001
20
-63.25
11
283.250001
21
-48.75
0
LINE
8
0
6
CONTINUOUS
10
281.250001
20
-46.75
11
266.750001
21
-46.75
0
LINE
8
0
6
CONTINUOUS
10
264.750001
20
-48.75
11
264.750001
21
-63.25
0
LINE
8
0
6
CONTINUOUS
10
285.75
20
-65.25
11
300.25
21
-65.25
0
LINE
8
0
6
CONTINUOUS
10
302.25
20
-63.25
11
302.25
21
-48.75
0
LINE
8
0
6
CONTINUOUS
10
300.25
20
-46.75
11
285.75
21
-46.75
0
LINE
8
0
6
CONTINUOUS
10
283.75
20
-48.75
11
283.75
21
-63.25
0
LINE
8
0
6
CONTINUOUS
10
168.864265
20
-58.1463158
11
176.114265
21
-70.7036842
0
LINE
8
0
6
CONTINUOUS
10
178.8463158
20
-71.435735
11
191.4036842
21
-64.185735
0
LINE
8
0
6
CONTINUOUS
10
192.135735
20
-61.4536842
11
184.885735
21
-48.8963158
0
LINE
8
0
6
CONTINUOUS
10
182.1536842
20
-48.164265
11
169.5963158
21
-55.414265
0
LINE
8
0
6
CONTINUOUS
10
202.0313317
20
-68.0646046
11
216.4232509
21
-66.2974992
0
LINE
8
0
6
CONTINUOUS
10
218.1646046
20
-64.0686683
11
216.3974992
21
-49.6767491
0
LINE
8
0
6
CONTINUOUS
10
214.1686683
20
-47.9353954
11
199.7767491
21
-49.7025008
0
LINE
8
0
6
CONTINUOUS
10
198.0353954
20
-51.9313317
11
199.8025008
21
-66.3232509
0
LINE
8
0
6
CONTINUOUS
10
138.5722413
20
-75.1588112
11
150.8222413
21
-53.9411888
0
LINE
8
0
6
CONTINUOUS
10
150.0901905
20
-51.209138
11
137.0998095
21
-43.709138
0
LINE
8
0
6
CONTINUOUS
10
134.3677587
20
-44.4411888
11
122.1177587
21
-65.6588112
0
LINE
8
0
6
CONTINUOUS
10
122.8498095
20
-68.390862
11
135.8401905
21
-75.890862
0
ARC
8
0
6
CONTINUOUS
10
149.0901905
20
-52.9411888
40
2
50
329.9999999
51
59.9999999
0
ARC
8
0
6
CONTINUOUS
10
136.0998095
20
-45.4411888
40
2
50
59.9999999
51
149.9999999
0
ARC
8
0
6
CONTINUOUS
10
123.8498095
20
-66.6588112
40
2
50
149.9999999
51
239.9999999
0
ARC
8
0
6
CONTINUOUS
10
136.8401905
20
-74.1588112
40
2
50
239.9999999
51
329.9999999
0
ARC
8
0
6
CONTINUOUS
10
177.8463158
20
-69.7036842
40
2
50
210.0000001
51
300.0000001
0
ARC
8
0
6
CONTINUOUS
10
190.4036842
20
-62.4536842
40
2
50
300.0000001
51
30.0000001
0
ARC
8
0
6
CONTINUOUS
10
183.1536842
20
-49.8963158
40
2
50
30.0000001
51
120.0000001
0
ARC
8
0
6
CONTINUOUS
10
170.5963158
20
-57.1463158
40
2
50
120.0000001
51
210.0000001
0
ARC
8
0
6
CONTINUOUS
10
17.75
20
-6.25
40
2
50
270
51
0
0
ARC
8
0
6
CONTINUOUS
10
17.75
20
8.25
40
2
50
0
51
90
0
ARC
8
0
6
CONTINUOUS
10
3.25
20
8.25
40
2
50
90
51
180
0
ARC
8
0
6
CONTINUOUS
10
3.25
20
-6.25
40
2
50
180
51
270
0
ARC
8
0
6
CONTINUOUS
10
36.75
20
-6.25
40
2
50
270
51
0
0
ARC
8
0
6
CONTINUOUS
10
36.75
20
8.25
40
2
50
0
51
90
0
ARC
8
0
6
CONTINUOUS
10
22.25
20
8.25
40
2
50
90
51
180
0
ARC
8
0
6
CONTINUOUS
10
22.25
20
-6.25
40
2
50
180
51
270
0
ARC
8
0
6
CONTINUOUS
10
55.75
20
-6.25
40
2
50
270
51
0
0
ARC
8
0
6
CONTINUOUS
10
55.75
20
8.25
40
2
50
0
51
90
0
ARC
8
0
6
CONTINUOUS
10
41.25
20
8.25
40
2
50
90
51
180
0
ARC
8
0
6
CONTINUOUS
10
41.25
20
-6.25
40
2
50
180
51
270
0
ARC
8
0
6
CONTINUOUS
10
74.75
20
-6.25
40
2
50
270
51
0
0
ARC
8
0
6
CONTINUOUS
10
74.75
20
8.25
40
2
50
0
51
90
0
ARC
8
0
6
CONTINUOUS
10
60.25
20
8.25
40
2
50
90
51
180
0
ARC
8
0
6
CONTINUOUS
10
60.25
20
-6.25
40
2
50
180
51
270
0
ARC
8
0
6
CONTINUOUS
10
93.75
20
-6.25
40
2
50
270
51
0
0
ARC
8
0
6
CONTINUOUS
10
93.75
20
8.25
40
2
50
0
51
90
0
ARC
8
0
6
CONTINUOUS
10
79.25
20
8.25
40
2
50
90
51
180
0
ARC
8
0
6
CONTINUOUS
10
79.25
20
-6.25
40
2
50
180
51
270
0
ARC
8
0
6
CONTINUOUS
10
112.75
20
-6.25
40
2
50
270
51
0
0
ARC
8
0
6
CONTINUOUS
10
112.75
20
8.25
40
2
50
0
51
90
0
ARC
8
0
6
CONTINUOUS
10
98.25
20
8.25
40
2
50
90
51
180
0
ARC
8
0
6
CONTINUOUS
10
98.25
20
-6.25
40
2
50
180
51
270
0
ARC
8
0
6
CONTINUOUS
10
20.03
20
-25.25
40
2
50
270
51
0
0
ARC
8
0
6
CONTINUOUS
10
20.03
20
-10.75
40
2
50
0
51
90
0
ARC
8
0
6
CONTINUOUS
10
5.53
20
-10.75
40
2
50
90
51
180
0
ARC
8
0
6
CONTINUOUS
10
5.53
20
-25.25
40
2
50
180
51
270
0
ARC
8
0
6
CONTINUOUS
10
41.5
20
-25.25
40
2
50
270
51
0
0
ARC
8
0
6
CONTINUOUS
10
41.5
20
-10.75
40
2
50
0
51
90
0
ARC
8
0
6
CONTINUOUS
10
27
20
-10.75
40
2
50
90
51
180
0
ARC
8
0
6
CONTINUOUS
10
27
20
-25.25
40
2
50
180
51
270
0
ARC
8
0
6
CONTINUOUS
10
60.5
20
-25.25
40
2
50
270
51
0
0
ARC
8
0
6
CONTINUOUS
10
60.5
20
-10.75
40
2
50
0
51
90
0
ARC
8
0
6
CONTINUOUS
10
46
20
-10.75
40
2
50
90
51
180
0
ARC
8
0
6
CONTINUOUS
10
46
20
-25.25
40
2
50
180
51
270
0
ARC
8
0
6
CONTINUOUS
10
79.5
20
-25.25
40
2
50
270
51
0
0
ARC
8
0
6
CONTINUOUS
10
79.5
20
-10.75
40
2
50
0
51
90
0
ARC
8
0
6
CONTINUOUS
10
65
20
-10.75
40
2
50
90
51
180
0
ARC
8
0
6
CONTINUOUS
10
65
20
-25.25
40
2
50
180
51
270
0
ARC
8
0
6
CONTINUOUS
10
98.5
20
-25.25
40
2
50
270
51
0
0
ARC
8
0
6
CONTINUOUS
10
98.5
20
-10.75
40
2
50
0
51
90
0
ARC
8
0
6
CONTINUOUS
10
84
20
-10.75
40
2
50
90
51
180
0
ARC
8
0
6
CONTINUOUS
10
84
20
-25.25
40
2
50
180
51
270
0
ARC
8
0
6
CONTINUOUS
10
117.5
20
-25.25
40
2
50
270
51
0
0
ARC
8
0
6
CONTINUOUS
10
117.5
20
-10.75
40
2
50
0
51
90
0
ARC
8
0
6
CONTINUOUS
10
103
20
-10.75
40
2
50
90
51
180
0
ARC
8
0
6
CONTINUOUS
10
103
20
-25.25
40
2
50
180
51
270
0
ARC
8
0
6
CONTINUOUS
10
24.78
20
-44.25
40
2
50
270
51
0
0
ARC
8
0
6
CONTINUOUS
10
24.78
20
-29.75
40
2
50
0
51
90
0
ARC
8
0
6
CONTINUOUS
10
10.28
20
-29.75
40
2
50
90
51
180
0
ARC
8
0
6
CONTINUOUS
10
10.28
20
-44.25
40
2
50
180
51
270
0
ARC
8
0
6
CONTINUOUS
10
51
20
-44.25
40
2
50
270
51
0
0
ARC
8
0
6
CONTINUOUS
10
51
20
-29.75
40
2
50
0
51
90
0
ARC
8
0
6
CONTINUOUS
10
36.5
20
-29.75
40
2
50
90
51
180
0
ARC
8
0
6
CONTINUOUS
10
36.5
20
-44.25
40
2
50
180
51
270
0
ARC
8
0
6
CONTINUOUS
10
70
20
-44.25
40
2
50
270
51
0
0
ARC
8
0
6
CONTINUOUS
10
70
20
-29.75
40
2
50
0
51
90
0
ARC
8
0
6
CONTINUOUS
10
55.5
20
-29.75
40
2
50
90
51
180
0
ARC
8
0
6
CONTINUOUS
10
55.5
20
-44.25
40
2
50
180
51
270
0
ARC
8
0
6
CONTINUOUS
10
89
20
-44.25
40
2
50
270
51
0
0
ARC
8
0
6
CONTINUOUS
10
89
20
-29.75
40
2
50
0
51
90
0
ARC
8
0
6
CONTINUOUS
10
74.5
20
-29.75
40
2
50
90
51
180
0
ARC
8
0
6
CONTINUOUS
10
74.5
20
-44.25
40
2
50
180
51
270
0
ARC
8
0
6
CONTINUOUS
10
108
20
-44.25
40
2
50
270
51
0
0
ARC
8
0
6
CONTINUOUS
10
108
20
-29.75
40
2
50
0
51
90
0
ARC
8
0
6
CONTINUOUS
10
93.5
20
-29.75
40
2
50
90
51
180
0
ARC
8
0
6
CONTINUOUS
10
93.5
20
-44.25
40
2
50
180
51
270
0
ARC
8
0
6
CONTINUOUS
10
127
20
-44.25
40
2
50
270
51
0
0
ARC
8
0
6
CONTINUOUS
10
127
20
-29.75
40
2
50
0
51
90
0
ARC
8
0
6
CONTINUOUS
10
112.5
20
-29.75
40
2
50
90
51
180
0
ARC
8
0
6
CONTINUOUS
10
112.5
20
-44.25
40
2
50
180
51
270
0
ARC
8
0
6
CONTINUOUS
10
20.03
20
-63.25
40
2
50
270
51
0
0
ARC
8
0
6
CONTINUOUS
10
20.03
20
-48.75
40
2
50
0
51
90
0
ARC
8
0
6
CONTINUOUS
10
5.53
20
-48.75
40
2
50
90
51
180
0
ARC
8
0
6
CONTINUOUS
10
5.53
20
-63.25
40
2
50
180
51
270
0
ARC
8
0
6
CONTINUOUS
10
43.78
20
-63.25
40
2
50
270
51
0
0
ARC
8
0
6
CONTINUOUS
10
43.78
20
-48.75
40
2
50
0
51
90
0
ARC
8
0
6
CONTINUOUS
10
29.28
20
-48.75
40
2
50
90
51
180
0
ARC
8
0
6
CONTINUOUS
10
29.28
20
-63.25
40
2
50
180
51
270
0
ARC
8
0
6
CONTINUOUS
10
208.25
20
-6.25
40
2
50
270
51
0
0
ARC
8
0
6
CONTINUOUS
10
208.25
20
8.25
40
2
50
0
51
90
0
ARC
8
0
6
CONTINUOUS
10
193.75
20
8.25
40
2
50
90
51
180
0
ARC
8
0
6
CONTINUOUS
10
193.75
20
-6.25
40
2
50
180
51
270
0
ARC
8
0
6
CONTINUOUS
10
227.25
20
-6.25
40
2
50
270
51
0
0
ARC
8
0
6
CONTINUOUS
10
227.25
20
8.25
40
2
50
0
51
90
0
ARC
8
0
6
CONTINUOUS
10
212.75
20
8.25
40
2
50
90
51
180
0
ARC
8
0
6
CONTINUOUS
10
212.75
20
-6.25
40
2
50
180
51
270
0
ARC
8
0
6
CONTINUOUS
10
246.25
20
-6.25
40
2
50
270
51
0
0
ARC
8
0
6
CONTINUOUS
10
246.25
20
8.25
40
2
50
0
51
90
0
ARC
8
0
6
CONTINUOUS
10
231.75
20
8.25
40
2
50
90
51
180
0
ARC
8
0
6
CONTINUOUS
10
231.75
20
-6.25
40
2
50
180
51
270
0
ARC
8
0
6
CONTINUOUS
10
265.25
20
-6.25
40
2
50
270
51
0
0
ARC
8
0
6
CONTINUOUS
10
265.25
20
8.25
40
2
50
0
51
90
0
ARC
8
0
6
CONTINUOUS
10
250.75
20
8.25
40
2
50
90
51
180
0
ARC
8
0
6
CONTINUOUS
10
250.75
20
-6.25
40
2
50
180
51
270
0
ARC
8
0
6
CONTINUOUS
10
284.25
20
-6.25
40
2
50
270
51
0
0
ARC
8
0
6
CONTINUOUS
10
284.25
20
8.25
40
2
50
0
51
90
0
ARC
8
0
6
CONTINUOUS
10
269.75
20
8.25
40
2
50
90
51
180
0
ARC
8
0
6
CONTINUOUS
10
269.75
20
-6.25
40
2
50
180
51
270
0
ARC
8
0
6
CONTINUOUS
10
303.25
20
-6.25
40
2
50
270
51
0
0
ARC
8
0
6
CONTINUOUS
10
303.25
20
8.25
40
2
50
0
51
90
0
ARC
8
0
6
CONTINUOUS
10
288.75
20
8.25
40
2
50
90
51
180
0
ARC
8
0
6
CONTINUOUS
10
288.75
20
-6.25
40
2
50
180
51
270
0
ARC
8
0
6
CONTINUOUS
10
215.28
20
-25.25
40
2
50
270
51
0
0
ARC
8
0
6
CONTINUOUS
10
215.28
20
-10.75
40
2
50
0
51
90
0
ARC
8
0
6
CONTINUOUS
10
200.78
20
-10.75
40
2
50
90
51
180
0
ARC
8
0
6
CONTINUOUS
10
200.78
20
-25.25
40
2
50
180
51
270
0
ARC
8
0
6
CONTINUOUS
10
234.28
20
-25.25
40
2
50
270
51
0
0
ARC
8
0
6
CONTINUOUS
10
234.28
20
-10.75
40
2
50
0
51
90
0
ARC
8
0
6
CONTINUOUS
10
219.78
20
-10.75
40
2
50
90
51
180
0
ARC
8
0
6
CONTINUOUS
10
219.78
20
-25.25
40
2
50
180
51
270
0
ARC
8
0
6
CONTINUOUS
10
253.28
20
-25.25
40
2
50
270
51
0
0
ARC
8
0
6
CONTINUOUS
10
253.28
20
-10.75
40
2
50
0
51
90
0
ARC
8
0
6
CONTINUOUS
10
238.78
20
-10.75
40
2
50
90
51
180
0
ARC
8
0
6
CONTINUOUS
10
238.78
20
-25.25
40
2
50
180
51
270
0
ARC
8
0
6
CONTINUOUS
10
272.28
20
-25.25
40
2
50
270
51
0
0
ARC
8
0
6
CONTINUOUS
10
272.28
20
-10.75
40
2
50
0
51
90
0
ARC
8
0
6
CONTINUOUS
10
257.78
20
-10.75
40
2
50
90
51
180
0
ARC
8
0
6
CONTINUOUS
10
257.78
20
-25.25
40
2
50
180
51
270
0
ARC
8
0
6
CONTINUOUS
10
291.28
20
-25.25
40
2
50
270
51
0
0
ARC
8
0
6
CONTINUOUS
10
291.28
20
-10.75
40
2
50
0
51
90
0
ARC
8
0
6
CONTINUOUS
10
276.78
20
-10.75
40
2
50
90
51
180
0
ARC
8
0
6
CONTINUOUS
10
276.78
20
-25.25
40
2
50
180
51
270
0
ARC
8
0
6
CONTINUOUS
10
205.25
20
-44.25
40
2
50
270
51
0
0
ARC
8
0
6
CONTINUOUS
10
205.25
20
-29.75
40
2
50
0
51
90
0
ARC
8
0
6
CONTINUOUS
10
190.75
20
-29.75
40
2
50
90
51
180
0
ARC
8
0
6
CONTINUOUS
10
190.75
20
-44.25
40
2
50
180
51
270
0
ARC
8
0
6
CONTINUOUS
10
224.25
20
-44.25
40
2
50
270
51
0
0
ARC
8
0
6
CONTINUOUS
10
224.25
20
-29.75
40
2
50
0
51
90
0
ARC
8
0
6
CONTINUOUS
10
209.75
20
-29.75
40
2
50
90
51
180
0
ARC
8
0
6
CONTINUOUS
10
209.75
20
-44.25
40
2
50
180
51
270
0
ARC
8
0
6
CONTINUOUS
10
243.25
20
-44.25
40
2
50
270
51
0
0
ARC
8
0
6
CONTINUOUS
10
243.25
20
-29.75
40
2
50
0
51
90
0
ARC
8
0
6
CONTINUOUS
10
228.75
20
-29.75
40
2
50
90
51
180
0
ARC
8
0
6
CONTINUOUS
10
228.75
20
-44.25
40
2
50
180
51
270
0
ARC
8
0
6
CONTINUOUS
10
262.25
20
-44.25
40
2
50
270
51
0
0
ARC
8
0
6
CONTINUOUS
10
262.25
20
-29.75
40
2
50
0
51
90
0
ARC
8
0
6
CONTINUOUS
10
247.75
20
-29.75
40
2
50
90
51
180
0
ARC
8
0
6
CONTINUOUS
10
247.75
20
-44.25
40
2
50
180
51
270
0
ARC
8
0
6
CONTINUOUS
10
281.25
20
-44.25
40
2
50
270
51
0
0
ARC
8
0
6
CONTINUOUS
10
281.25
20
-29.75
40
2
50
0
51
90
0
ARC
8
0
6
CONTINUOUS
10
266.75
20
-29.75
40
2
50
90
51
180
0
ARC
8
0
6
CONTINUOUS
10
266.75
20
-44.25
40
2
50
180
51
270
0
ARC
8
0
6
CONTINUOUS
10
300.25
20
-44.25
40
2
50
270
51
0
0
ARC
8
0
6
CONTINUOUS
10
300.25
20
-29.75
40
2
50
0
51
90
0
ARC
8
0
6
CONTINUOUS
10
285.75
20
-29.75
40
2
50
90
51
180
0
ARC
8
0
6
CONTINUOUS
10
285.75
20
-44.25
40
2
50
180
51
270
0
ARC
8
0
6
CONTINUOUS
10
262.25
20
-63.25
40
2
50
270
51
0
0
ARC
8
0
6
CONTINUOUS
10
262.25
20
-48.75
40
2
50
0
51
90
0
ARC
8
0
6
CONTINUOUS
10
247.75
20
-48.75
40
2
50
90
51
180
0
ARC
8
0
6
CONTINUOUS
10
247.75
20
-63.25
40
2
50
180
51
270
0
ARC
8
0
6
CONTINUOUS
10
281.250001
20
-63.25
40
2
50
270
51
0
0
ARC
8
0
6
CONTINUOUS
10
281.250001
20
-48.75
40
2
50
0
51
90
0
ARC
8
0
6
CONTINUOUS
10
266.750001
20
-48.75
40
2
50
90
51
180
0
ARC
8
0
6
CONTINUOUS
10
266.750001
20
-63.25
40
2
50
180
51
270
0
ARC
8
0
6
CONTINUOUS
10
300.25
20
-63.25
40
2
50
270
51
0
0
ARC
8
0
6
CONTINUOUS
10
300.25
20
-48.75
40
2
50
0
51
90
0
ARC
8
0
6
CONTINUOUS
10
285.75
20
-48.75
40
2
50
90
51
180
0
ARC
8
0
6
CONTINUOUS
10
285.75
20
-63.25
40
2
50
180
51
270
0
ARC
8
0
6
CONTINUOUS
10
117.5124069
20
-66.0795123
40
2
50
263.0000028
51
353.0000028
0
ARC
8
0
6
CONTINUOUS
10
119.2795123
20
-51.6875931
40
2
50
353.0000028
51
83.0000028
0
ARC
8
0
6
CONTINUOUS
10
104.8875931
20
-49.9204877
40
2
50
83.0000028
51
173.0000028
0
ARC
8
0
6
CONTINUOUS
10
103.1204877
20
-64.3124069
40
2
50
173.0000028
51
263.0000028
0
ARC
8
0
6
CONTINUOUS
10
216.1795123
20
-64.3124069
40
2
50
276.9999972
51
6.9999972
0
ARC
8
0
6
CONTINUOUS
10
214.4124069
20
-49.9204877
40
2
50
6.9999972
51
96.9999972
0
ARC
8
0
6
CONTINUOUS
10
200.0204877
20
-51.6875931
40
2
50
96.9999972
51
186.9999972
0
ARC
8
0
6
CONTINUOUS
10
201.7875931
20
-66.0795123
40
2
50
186.9999972
51
276.9999972
0
ENDSEC
0
EOF