0
SECTION
2
HEADER
9
$INSUNITS
70
4
0
ENDSEC
0
SECTION
2
TABLES
0
TABLE
2
LTYPE
0
LTYPE
72
65
70
0
2
CONTINUOUS
3
______
73
0
40
0
0
LTYPE
72
65
70
0
2
DASHED
3
_ _ _ 
73
2
40
7.5
49
5
49
-2.5
0
LTYPE
72
65
70
0
2
DOTTED
3
. . . 
73
2
40
1.5
49
0.5
49
-1
0
ENDTAB
0
TABLE
2
LAYER
0
ENDTAB
0
ENDSEC
0
SECTION
2
ENTITIES
0
LINE
8
0
6
CONTINUOUS
10
140.2772413
20
-68.0772413
11
-4.75
21
9.5
0
LINE
8
0
6
CONTINUOUS
10
-4.75
20
9.5
11
304.5
21
9.5
0
LINE
8
0
6
CONTINUOUS
10
304.5
20
9.5
11
216.6
21
-66.5
0
LINE
8
0
6
CONTINUOUS
10
216.6
20
-66.5
11
140.2772413
21
-68.0772413
0
LINE
8
0
6
CONTINUOUS
10
-4.75
20
-9.5
11
-2.375
21
-9.5
0
LINE
8
0
6
CONTINUOUS
10
14.25
20
-9.5
11
14.25
21
6.5
0
LINE
8
0
6
CONTINUOUS
10
-4.75
20
6.5
11
-4.75
21
-9.5
0
LINE
8
0
6
CONTINUOUS
10
22
20
-9.5
11
23.75
21
-9.5
0
LINE
8
0
6
CONTINUOUS
10
19
20
6.5
11
19
21
-6.5
0
LINE
8
0
6
CONTINUOUS
10
114
20
-9.5
11
114
21
6.5
0
LINE
8
0
6
CONTINUOUS
10
0.625
20
-28.5
11
2.375
21
-28.5
0
LINE
8
0
6
CONTINUOUS
10
16.625
20
-28.5
11
16.625
21
-9.5
0
LINE
8
0
6
CONTINUOUS
10
16.625
20
-9.5
11
14.25
21
-9.5
0
LINE
8
0
6
CONTINUOUS
10
-2.375
20
-9.5
11
-2.375
21
-25.5
0
LINE
8
0
6
CONTINUOUS
10
26.75
20
-28.5
11
30.25
21
-28.5
0
LINE
8
0
6
CONTINUOUS
10
23.75
20
-9.5
11
23.75
21
-25.5
0
LINE
8
0
6
CONTINUOUS
10
118.75
20
-25.5
11
118.75
21
-12.5
0
LINE
8
0
6
CONTINUOUS
10
115.75
20
-9.5
11
114
21
-9.5
0
LINE
8
0
6
CONTINUOUS
10
14.875
20
-47.5
11
16.625
21
-47.5
0
LINE
8
0
6
CONTINUOUS
10
21.375
20
-44.5
11
21.375
21
-31.5
0
LINE
8
0
6
CONTINUOUS
10
18.375
20
-28.5
11
16.625
21
-28.5
0
LINE
8
0
6
CONTINUOUS
10
2.375
20
-28.5
11
2.375
21
-44.5
0
LINE
8
0
6
CONTINUOUS
10
38.625
20
-47.5
11
97.7
21
-47.5
0
LINE
8
0
6
CONTINUOUS
10
33.25
20
-31.5
11
33.25
21
-44.5
0
LINE
8
0
6
CONTINUOUS
10
122.7
20
-47.5
11
125.25
21
-47.5
0
LINE
8
0
6
CONTINUOUS
10
128.25
20
-44.5
11
128.25
21
-31.5
0
LINE
8
0
6
CONTINUOUS
10
125.25
20
-28.5
11
121.75
21
-28.5
0
LINE
8
0
6
CONTINUOUS
10
-4.125
20
-66.5
11
8.875
21
-66.5
0
LINE
8
0
6
CONTINUOUS
10
11.875
20
-63.5
11
11.875
21
-50.5
0
LINE
8
0
6
CONTINUOUS
10
-0.625
20
-47.5
11
-4.125
21
-47.5
0
LINE
8
0
6
CONTINUOUS
10
-7.125
20
-50.5
11
-7.125
21
-63.5
0
LINE
8
0
6
CONTINUOUS
10
19.625
20
-66.5
11
32.625
21
-66.5
0
LINE
8
0
6
CONTINUOUS
10
35.625
20
-63.5
11
35.625
21
-50.5
0
LINE
8
0
6
CONTINUOUS
10
30.25
20
-47.5
11
24.375
21
-47.5
0
LINE
8
0
6
CONTINUOUS
10
16.625
20
-47.5
11
16.625
21
-63.5
0
LINE
8
0
6
CONTINUOUS
10
103.7
20
-66.5
11
116.7
21
-66.5
0
LINE
8
0
6
CONTINUOUS
10
119.7
20
-63.5
11
119.7
21
-50.5
0
LINE
8
0
6
CONTINUOUS
10
100.7
20
-50.5
11
100.7
21
-63.5
0
LINE
8
0
6
CONTINUOUS
10
141.7772413
20
-65.4791651
11
148.2772413
21
-54.2208349
0
LINE
8
0
6
CONTINUOUS
10
147.1791651
20
-50.1227587
11
135.9208349
21
-43.6227587
0
LINE
8
0
6
CONTINUOUS
10
131.8227587
20
-44.7208349
11
125.3227587
21
-55.9791651
0
LINE
8
0
6
CONTINUOUS
10
126.4208349
20
-60.0772413
11
137.6791651
21
-66.5772413
0
LINE
8
0
6
CONTINUOUS
10
193.5
20
-9.5
11
194.53
21
-9.5
0
LINE
8
0
6
CONTINUOUS
10
190.5
20
6.5
11
190.5
21
-6.5
0
LINE
8
0
6
CONTINUOUS
10
295.53
20
-9.5
11
301.5
21
-9.5
0
LINE
8
0
6
CONTINUOUS
10
304.5
20
-6.5
11
304.5
21
6.5
0
LINE
8
0
6
CONTINUOUS
10
197.53
20
-12.5
11
197.53
21
-25.5
0
LINE
8
0
6
CONTINUOUS
10
292.53
20
-25.5
11
292.53
21
-12.5
0
LINE
8
0
6
CONTINUOUS
10
190.5
20
-47.5
11
194.6
21
-47.5
0
LINE
8
0
6
CONTINUOUS
10
194.53
20
-28.5
11
190.5
21
-28.5
0
LINE
8
0
6
CONTINUOUS
10
187.5
20
-31.5
11
187.5
21
-44.5
0
LINE
8
0
6
CONTINUOUS
10
219.6
20
-47.5
11
241.5
21
-47.5
0
LINE
8
0
6
CONTINUOUS
10
295.53
20
-28.5
11
317.5
21
-28.5
0
LINE
8
0
6
CONTINUOUS
10
304.5
20
-47.5
11
317.5
21
-47.5
0
LINE
8
0
6
CONTINUOUS
10
320.5
20
-44.5
11
320.5
21
-31.5
0
LINE
8
0
6
CONTINUOUS
10
247.5
20
-66.5
11
260.5
21
-66.5
0
LINE
8
0
6
CONTINUOUS
10
263.5
20
-63.5
11
263.5
21
-47.5
0
LINE
8
0
6
CONTINUOUS
10
244.5
20
-50.5
11
244.5
21
-63.5
0
LINE
8
0
6
CONTINUOUS
10
266.5000001
20
-66.5
11
298.5
21
-66.5
0
LINE
8
0
6
CONTINUOUS
10
263.5000001
20
-47.5
11
263.5000001
21
-63.5
0
LINE
8
0
6
CONTINUOUS
10
301.5
20
-63.5
11
301.5
21
-50.5
0
LINE
8
0
6
CONTINUOUS
10
167.0227587
20
-54.2208349
11
173.5227587
21
-65.4791651
0
LINE
8
0
6
CONTINUOUS
10
177.6208349
20
-66.5772413
11
188.8791651
21
-60.0772413
0
LINE
8
0
6
CONTINUOUS
10
189.9772413
20
-55.9791651
11
183.4772413
21
-44.7208349
0
LINE
8
0
6
CONTINUOUS
10
179.3791651
20
-43.6227587
11
168.1208349
21
-50.1227587
0
LINE
8
0
6
CONTINUOUS
10
200.6
20
-66.5
11
213.6
21
-66.5
0
LINE
8
0
6
CONTINUOUS
10
216.6
20
-63.5
11
216.6
21
-50.5
0
LINE
8
0
6
CONTINUOUS
10
197.6
20
-50.5
11
197.6
21
-63.5
0
ARC
8
0
6
CONTINUOUS
10
0.625
20
-25.5
40
3
50
180
51
270
0
ARC
8
0
6
CONTINUOUS
10
-0.625
20
-44.5
40
3
50
270
51
0
0
ARC
8
0
6
CONTINUOUS
10
-4.125
20
-50.5
40
3
50
90
51
180
0
ARC
8
0
6
CONTINUOUS
10
-4.125
20
-63.5
40
3
50
180
51
270
0
ARC
8
0
6
CONTINUOUS
10
8.875
20
-63.5
40
3
50
270
51
0
0
ARC
8
0
6
CONTINUOUS
10
14.875
20
-50.5
40
3
50
90
51
180
0
ARC
8
0
6
CONTINUOUS
10
19.625
20
-63.5
40
3
50
180
51
270
0
ARC
8
0
6
CONTINUOUS
10
32.625
20
-63.5
40
3
50
270
51
0
0
ARC
8
0
6
CONTINUOUS
10
38.625
20
-50.5
40
3
50
90
51
180
0
ARC
8
0
6
CONTINUOUS
10
97.7
20
-50.5
40
3
50
0
51
90
0
ARC
8
0
6
CONTINUOUS
10
103.7
20
-63.5
40
3
50
180
51
270
0
ARC
8
0
6
CONTINUOUS
10
116.7
20
-63.5
40
3
50
270
51
0
0
ARC
8
0
6
CONTINUOUS
10
122.7
20
-50.5
40
3
50
90
51
180
0
ARC
8
0
6
CONTINUOUS
10
125.25
20
-44.5
40
3
50
270
51
0
0
ARC
8
0
6
CONTINUOUS
10
125.25
20
-31.5
40
3
50
0
51
90
0
ARC
8
0
6
CONTINUOUS
10
121.75
20
-25.5
40
3
50
180
51
270
0
ARC
8
0
6
CONTINUOUS
10
115.75
20
-12.5
40
3
50
0
51
90
0
ARC
8
0
6
CONTINUOUS
10
111
20
6.5
40
3
50
0
51
90
0
ARC
8
0
6
CONTINUOUS
10
22
20
6.5
40
3
50
90
51
180
0
ARC
8
0
6
CONTINUOUS
10
22
20
-6.5
40
3
50
180
51
270
0
ARC
8
0
6
CONTINUOUS
10
26.75
20
-25.5
40
3
50
180
51
270
0
ARC
8
0
6
CONTINUOUS
10
30.25
20
-31.5
40
3
50
0
51
90
0
ARC
8
0
6
CONTINUOUS
10
30.25
20
-44.5
40
3
50
270
51
0
0
ARC
8
0
6
CONTINUOUS
10
24.375
20
-44.5
40
3
50
180
51
270
0
ARC
8
0
6
CONTINUOUS
10
18.375
20
-31.5
40
3
50
0
51
90
0
ARC
8
0
6
CONTINUOUS
10
11.25
20
6.5
40
3
50
0
51
90
0
ARC
8
0
6
CONTINUOUS
10
-1.75
20
6.5
40
3
50
90
51
180
0
ARC
8
0
6
CONTINUOUS
10
194.53
20
-12.5
40
3
50
0
51
90
0
ARC
8
0
6
CONTINUOUS
10
194.53
20
-25.5
40
3
50
270
51
0
0
ARC
8
0
6
CONTINUOUS
10
190.5
20
-31.5
40
3
50
90
51
180
0
ARC
8
0
6
CONTINUOUS
10
190.5
20
-44.5
40
3
50
180
51
270
0
ARC
8
0
6
CONTINUOUS
10
194.6
20
-50.5
40
3
50
0
51
90
0
ARC
8
0
6
CONTINUOUS
10
200.6
20
-63.5
40
3
50
180
51
270
0
ARC
8
0
6
CONTINUOUS
10
213.6
20
-63.5
40
3
50
270
51
0
0
ARC
8
0
6
CONTINUOUS
10
219.6
20
-50.5
40
3
50
90
51
180
0
ARC
8
0
6
CONTINUOUS
10
241.5
20
-50.5
40
3
50
0
51
90
0
ARC
8
0
6
CONTINUOUS
10
247.5
20
-63.5
40
3
50
180
51
270
0
ARC
8
0
6
CONTINUOUS
10
260.5
20
-63.5
40
3
50
270
51
0
0
ARC
8
0
6
CONTINUOUS
10
266.5000001
20
-63.5
40
3
50
180
51
270
0
ARC
8
0
6
CONTINUOUS
10
298.5
20
-63.5
40
3
50
270
51
0
0
ARC
8
0
6
CONTINUOUS
10
304.5
20
-50.5
40
3
50
90
51
180
0
ARC
8
0
6
CONTINUOUS
10
317.5
20
-44.5
40
3
50
270
51
0
0
ARC
8
0
6
CONTINUOUS
10
317.5
20
-31.5
40
3
50
0
51
90
0
ARC
8
0
6
CONTINUOUS
10
295.53
20
-25.5
40
3
50
180
51
270
0
ARC
8
0
6
CONTINUOUS
10
295.53
20
-12.5
40
3
50
90
51
180
0
ARC
8
0
6
CONTINUOUS
10
301.5
20
-6.5
40
3
50
270
51
0
0
ARC
8
0
6
CONTINUOUS
10
301.5
20
6.5
40
3
50
0
51
90
0
ARC
8
0
6
CONTINUOUS
10
193.5
20
6.5
40
3
50
90
51
180
0
ARC
8
0
6
CONTINUOUS
10
193.5
20
-6.5
40
3
50
180
51
270
0
ARC
8
0
6
CONTINUOUS
10
145.6791651
20
-52.7208349
40
3
50
329.9999999
51
59.9999999
0
ARC
8
0
6
CONTINUOUS
10
134.4208349
20
-46.2208349
40
3
50
59.9999999
51
149.9999999
0
ARC
8
0
6
CONTINUOUS
10
127.9208349
20
-57.4791651
40
3
50
149.9999999
51
239.9999999
0
ARC
8
0
6
CONTINUOUS
10
139.1791651
20
-63.9791651
40
3
50
239.9999999
51
329.9999999
0
ARC
8
0
6
CONTINUOUS
10
176.1208349
20
-63.9791651
40
3
50
210.0000001
51
300.0000001
0
ARC
8
0
6
CONTINUOUS
10
187.3791651
20
-57.4791651
40
3
50
300.0000001
51
30.0000001
0
ARC
8
0
6
CONTINUOUS
10
180.8791651
20
-46.2208349
40
3
50
30.0000001
51
120.0000001
0
ARC
8
0
6
CONTINUOUS
10
169.6208349
20
-52.7208349
40
3
50
120.0000001
51
210.0000001
0
ENDSEC
0
EOF