<svg width="173.192mm" height="93.677mm" viewBox="0 0 173.192 93.677" xmlns="http://www.w3.org/2000/svg"><g id="svgGroup" stroke-linecap="round" fill-rule="evenodd" font-size="9pt" stroke="#000" stroke-width="0.25mm" fill="none" style="stroke:#000;stroke-width:0.25mm;fill:none"><path d="M 3.304 0.922 L 37.367 0.001 A 3 3 0 0 1 37.448 0 L 170.192 0 A 3 3 0 0 1 173.189 3.114 L 170.415 76.085 A 3 3 0 0 1 167.492 78.97 L 47.626 81.956 A 3 3 0 0 0 46.377 82.263 L 23.774 93.369 A 3 3 0 0 1 19.793 92.067 L 0.342 54.883 A 3 3 0 0 1 0 53.469 L 0.385 3.897 A 3 3 0 0 1 3.304 0.922 Z" vector-effect="non-scaling-stroke"/></g></svg>