<svg width="173.192mm" height="93.677mm" viewBox="0 0 173.192 93.677" xmlns="http://www.w3.org/2000/svg"><g id="svgGroup" stroke-linecap="round" fill-rule="evenodd" font-size="9pt" stroke="#000" stroke-width="0.25mm" fill="none" style="stroke:#000;stroke-width:0.25mm;fill:none"><path d="M 3.304 0.922 L 37.367 0.001 A 3 3 0 0 1 37.448 0 L 170.192 0 A 3 3 0 0 1 173.189 3.114 L 170.415 76.085 A 3 3 0 0 1 167.492 78.97 L 47.626 81.956 A 3 3 0 0 0 46.377 82.263 L 23.774 93.369 A 3 3 0 0 1 19.793 92.067 L 0.342 54.883 A 3 3 0 0 1 0 53.469 L 0.385 3.897 A 3 3 0 0 1 3.304 0.922 Z M 13.056 65.441 L 25.306 86.659 A 2 2 0 0 0 28.038 87.391 L 41.028 79.891 A 2 2 0 0 0 41.76 77.159 L 29.51 55.941 A 2 2 0 0 0 26.778 55.209 L 13.788 62.709 A 2 2 0 0 0 13.056 65.441 Z M 40.658 19.75 L 55.158 19.75 A 2 2 0 0 0 57.158 17.75 L 57.158 3.25 A 2 2 0 0 0 55.158 1.25 L 40.658 1.25 A 2 2 0 0 0 38.658 3.25 L 38.658 17.75 A 2 2 0 0 0 40.658 19.75 Z M 59.658 19.75 L 74.158 19.75 A 2 2 0 0 0 76.158 17.75 L 76.158 3.25 A 2 2 0 0 0 74.158 1.25 L 59.658 1.25 A 2 2 0 0 0 57.658 3.25 L 57.658 17.75 A 2 2 0 0 0 59.658 19.75 Z M 78.658 19.75 L 93.158 19.75 A 2 2 0 0 0 95.158 17.75 L 95.158 3.25 A 2 2 0 0 0 93.158 1.25 L 78.658 1.25 A 2 2 0 0 0 76.658 3.25 L 76.658 17.75 A 2 2 0 0 0 78.658 19.75 Z M 97.658 19.75 L 112.158 19.75 A 2 2 0 0 0 114.158 17.75 L 114.158 3.25 A 2 2 0 0 0 112.158 1.25 L 97.658 1.25 A 2 2 0 0 0 95.658 3.25 L 95.658 17.75 A 2 2 0 0 0 97.658 19.75 Z M 116.658 19.75 L 131.158 19.75 A 2 2 0 0 0 133.158 17.75 L 133.158 3.25 A 2 2 0 0 0 131.158 1.25 L 116.658 1.25 A 2 2 0 0 0 114.658 3.25 L 114.658 17.75 A 2 2 0 0 0 116.658 19.75 Z M 135.658 19.75 L 150.158 19.75 A 2 2 0 0 0 152.158 17.75 L 152.158 3.25 A 2 2 0 0 0 150.158 1.25 L 135.658 1.25 A 2 2 0 0 0 133.658 3.25 L 133.658 17.75 A 2 2 0 0 0 135.658 19.75 Z M 154.658 19.75 L 169.158 19.75 A 2 2 0 0 0 171.158 17.75 L 171.158 3.25 A 2 2 0 0 0 169.158 1.25 L 154.658 1.25 A 2 2 0 0 0 152.658 3.25 L 152.658 17.75 A 2 2 0 0 0 154.658 19.75 Z M 47.688 38.75 L 62.188 38.75 A 2 2 0 0 0 64.188 36.75 L 64.188 22.25 A 2 2 0 0 0 62.188 20.25 L 47.688 20.25 A 2 2 0 0 0 45.688 22.25 L 45.688 36.75 A 2 2 0 0 0 47.688 38.75 Z M 66.688 38.75 L 81.188 38.75 A 2 2 0 0 0 83.188 36.75 L 83.188 22.25 A 2 2 0 0 0 81.188 20.25 L 66.688 20.25 A 2 2 0 0 0 64.688 22.25 L 64.688 36.75 A 2 2 0 0 0 66.688 38.75 Z M 85.688 38.75 L 100.188 38.75 A 2 2 0 0 0 102.188 36.75 L 102.188 22.25 A 2 2 0 0 0 100.188 20.25 L 85.688 20.25 A 2 2 0 0 0 83.688 22.25 L 83.688 36.75 A 2 2 0 0 0 85.688 38.75 Z M 104.688 38.75 L 119.188 38.75 A 2 2 0 0 0 121.188 36.75 L 121.188 22.25 A 2 2 0 0 0 119.188 20.25 L 104.688 20.25 A 2 2 0 0 0 102.688 22.25 L 102.688 36.75 A 2 2 0 0 0 104.688 38.75 Z M 123.688 38.75 L 138.188 38.75 A 2 2 0 0 0 140.188 36.75 L 140.188 22.25 A 2 2 0 0 0 138.188 20.25 L 123.688 20.25 A 2 2 0 0 0 121.688 22.25 L 121.688 36.75 A 2 2 0 0 0 123.688 38.75 Z M 142.688 38.75 L 157.188 38.75 A 2 2 0 0 0 159.188 36.75 L 159.188 22.25 A 2 2 0 0 0 157.188 20.25 L 142.688 20.25 A 2 2 0 0 0 140.688 22.25 L 140.688 36.75 A 2 2 0 0 0 142.688 38.75 Z M 37.658 57.75 L 52.158 57.75 A 2 2 0 0 0 54.158 55.75 L 54.158 41.25 A 2 2 0 0 0 52.158 39.25 L 37.658 39.25 A 2 2 0 0 0 35.658 41.25 L 35.658 55.75 A 2 2 0 0 0 37.658 57.75 Z M 56.658 57.75 L 71.158 57.75 A 2 2 0 0 0 73.158 55.75 L 73.158 41.25 A 2 2 0 0 0 71.158 39.25 L 56.658 39.25 A 2 2 0 0 0 54.658 41.25 L 54.658 55.75 A 2 2 0 0 0 56.658 57.75 Z M 75.658 57.75 L 90.158 57.75 A 2 2 0 0 0 92.158 55.75 L 92.158 41.25 A 2 2 0 0 0 90.158 39.25 L 75.658 39.25 A 2 2 0 0 0 73.658 41.25 L 73.658 55.75 A 2 2 0 0 0 75.658 57.75 Z M 94.658 57.75 L 109.158 57.75 A 2 2 0 0 0 111.158 55.75 L 111.158 41.25 A 2 2 0 0 0 109.158 39.25 L 94.658 39.25 A 2 2 0 0 0 92.658 41.25 L 92.658 55.75 A 2 2 0 0 0 94.658 57.75 Z M 113.658 57.75 L 128.158 57.75 A 2 2 0 0 0 130.158 55.75 L 130.158 41.25 A 2 2 0 0 0 128.158 39.25 L 113.658 39.25 A 2 2 0 0 0 111.658 41.25 L 111.658 55.75 A 2 2 0 0 0 113.658 57.75 Z M 132.658 57.75 L 147.158 57.75 A 2 2 0 0 0 149.158 55.75 L 149.158 41.25 A 2 2 0 0 0 147.158 39.25 L 132.658 39.25 A 2 2 0 0 0 130.658 41.25 L 130.658 55.75 A 2 2 0 0 0 132.658 57.75 Z M 151.658 57.75 L 166.158 57.75 A 2 2 0 0 0 168.158 55.75 L 168.158 41.25 A 2 2 0 0 0 166.158 39.25 L 151.658 39.25 A 2 2 0 0 0 149.658 41.25 L 149.658 55.75 A 2 2 0 0 0 151.658 57.75 Z M 113.658 76.75 L 128.158 76.75 A 2 2 0 0 0 130.158 74.75 L 130.158 60.25 A 2 2 0 0 0 128.158 58.25 L 113.658 58.25 A 2 2 0 0 0 111.658 60.25 L 111.658 74.75 A 2 2 0 0 0 113.658 76.75 Z M 132.658 76.75 L 147.158 76.75 A 2 2 0 0 0 149.158 74.75 L 149.158 60.25 A 2 2 0 0 0 147.158 58.25 L 132.658 58.25 A 2 2 0 0 0 130.658 60.25 L 130.658 74.75 A 2 2 0 0 0 132.658 76.75 Z M 151.658 76.75 L 166.158 76.75 A 2 2 0 0 0 168.158 74.75 L 168.158 60.25 A 2 2 0 0 0 166.158 58.25 L 151.658 58.25 A 2 2 0 0 0 149.658 60.25 L 149.658 74.75 A 2 2 0 0 0 151.658 76.75 Z M 48.939 79.565 L 63.331 77.797 A 2 2 0 0 0 65.072 75.569 L 63.305 61.177 A 2 2 0 0 0 61.077 59.435 L 46.685 61.203 A 2 2 0 0 0 44.943 63.431 L 46.71 77.823 A 2 2 0 0 0 48.939 79.565 Z" vector-effect="non-scaling-stroke"/></g></svg>