<svg width="323.345mm" height="86.409mm" viewBox="0 0 323.345 86.409" xmlns="http://www.w3.org/2000/svg"><g id="svgGroup" stroke-linecap="round" fill-rule="evenodd" font-size="9pt" stroke="#000" stroke-width="0.25mm" fill="none" style="stroke:#000;stroke-width:0.25mm;fill:none"><path d="M 2.05 56.75 L 31.2 56.75 A 2 2 0 0 0 33.2 54.75 L 33.2 39.75 A 2 2 0 0 0 31.2 37.75 L 2.05 37.75 A 2 2 0 0 0 0.05 39.75 L 0.05 54.75 A 2 2 0 0 0 2.05 56.75 Z M 137.667 85.409 L 149.917 64.191 A 2 2 0 0 0 149.185 61.459 L 136.195 53.959 A 2 2 0 0 0 133.463 54.691 L 121.213 75.909 A 2 2 0 0 0 121.945 78.641 L 134.935 86.141 A 2 2 0 0 0 137.667 85.409 Z M 165.243 64.191 L 177.493 85.409 A 2 2 0 0 0 180.225 86.141 L 193.215 78.641 A 2 2 0 0 0 193.947 75.909 L 181.697 54.691 A 2 2 0 0 0 178.965 53.959 L 165.975 61.459 A 2 2 0 0 0 165.243 64.191 Z M 2 75.745 L 21.75 75.745 A 2 2 0 0 0 23.75 73.745 L 23.75 58.755 A 2 2 0 0 0 21.75 56.755 L 2 56.755 A 2 2 0 0 0 0 58.755 L 0 73.745 A 2 2 0 0 0 2 75.745 Z M 2 37.745 L 21.75 37.745 A 2 2 0 0 0 23.75 35.745 L 23.75 20.755 A 2 2 0 0 0 21.75 18.755 L 2 18.755 A 2 2 0 0 0 0 20.755 L 0 35.745 A 2 2 0 0 0 2 37.745 Z M 2.345 18.5 L 16.845 18.5 A 2 2 0 0 0 18.845 16.5 L 18.845 2 A 2 2 0 0 0 16.845 0 L 2.345 0 A 2 2 0 0 0 0.345 2 L 0.345 16.5 A 2 2 0 0 0 2.345 18.5 Z M 21.345 18.5 L 35.845 18.5 A 2 2 0 0 0 37.845 16.5 L 37.845 2 A 2 2 0 0 0 35.845 0 L 21.345 0 A 2 2 0 0 0 19.345 2 L 19.345 16.5 A 2 2 0 0 0 21.345 18.5 Z M 40.345 18.5 L 54.845 18.5 A 2 2 0 0 0 56.845 16.5 L 56.845 2 A 2 2 0 0 0 54.845 0 L 40.345 0 A 2 2 0 0 0 38.345 2 L 38.345 16.5 A 2 2 0 0 0 40.345 18.5 Z M 59.345 18.5 L 73.845 18.5 A 2 2 0 0 0 75.845 16.5 L 75.845 2 A 2 2 0 0 0 73.845 0 L 59.345 0 A 2 2 0 0 0 57.345 2 L 57.345 16.5 A 2 2 0 0 0 59.345 18.5 Z M 78.345 18.5 L 92.845 18.5 A 2 2 0 0 0 94.845 16.5 L 94.845 2 A 2 2 0 0 0 92.845 0 L 78.345 0 A 2 2 0 0 0 76.345 2 L 76.345 16.5 A 2 2 0 0 0 78.345 18.5 Z M 97.345 18.5 L 111.845 18.5 A 2 2 0 0 0 113.845 16.5 L 113.845 2 A 2 2 0 0 0 111.845 0 L 97.345 0 A 2 2 0 0 0 95.345 2 L 95.345 16.5 A 2 2 0 0 0 97.345 18.5 Z M 26.095 37.5 L 40.595 37.5 A 2 2 0 0 0 42.595 35.5 L 42.595 21 A 2 2 0 0 0 40.595 19 L 26.095 19 A 2 2 0 0 0 24.095 21 L 24.095 35.5 A 2 2 0 0 0 26.095 37.5 Z M 45.095 37.5 L 59.595 37.5 A 2 2 0 0 0 61.595 35.5 L 61.595 21 A 2 2 0 0 0 59.595 19 L 45.095 19 A 2 2 0 0 0 43.095 21 L 43.095 35.5 A 2 2 0 0 0 45.095 37.5 Z M 64.095 37.5 L 78.595 37.5 A 2 2 0 0 0 80.595 35.5 L 80.595 21 A 2 2 0 0 0 78.595 19 L 64.095 19 A 2 2 0 0 0 62.095 21 L 62.095 35.5 A 2 2 0 0 0 64.095 37.5 Z M 83.095 37.5 L 97.595 37.5 A 2 2 0 0 0 99.595 35.5 L 99.595 21 A 2 2 0 0 0 97.595 19 L 83.095 19 A 2 2 0 0 0 81.095 21 L 81.095 35.5 A 2 2 0 0 0 83.095 37.5 Z M 102.095 37.5 L 116.595 37.5 A 2 2 0 0 0 118.595 35.5 L 118.595 21 A 2 2 0 0 0 116.595 19 L 102.095 19 A 2 2 0 0 0 100.095 21 L 100.095 35.5 A 2 2 0 0 0 102.095 37.5 Z M 35.595 56.5 L 50.095 56.5 A 2 2 0 0 0 52.095 54.5 L 52.095 40 A 2 2 0 0 0 50.095 38 L 35.595 38 A 2 2 0 0 0 33.595 40 L 33.595 54.5 A 2 2 0 0 0 35.595 56.5 Z M 54.595 56.5 L 69.095 56.5 A 2 2 0 0 0 71.095 54.5 L 71.095 40 A 2 2 0 0 0 69.095 38 L 54.595 38 A 2 2 0 0 0 52.595 40 L 52.595 54.5 A 2 2 0 0 0 54.595 56.5 Z M 73.595 56.5 L 88.095 56.5 A 2 2 0 0 0 90.095 54.5 L 90.095 40 A 2 2 0 0 0 88.095 38 L 73.595 38 A 2 2 0 0 0 71.595 40 L 71.595 54.5 A 2 2 0 0 0 73.595 56.5 Z M 92.595 56.5 L 107.095 56.5 A 2 2 0 0 0 109.095 54.5 L 109.095 40 A 2 2 0 0 0 107.095 38 L 92.595 38 A 2 2 0 0 0 90.595 40 L 90.595 54.5 A 2 2 0 0 0 92.595 56.5 Z M 111.595 56.5 L 126.095 56.5 A 2 2 0 0 0 128.095 54.5 L 128.095 40 A 2 2 0 0 0 126.095 38 L 111.595 38 A 2 2 0 0 0 109.595 40 L 109.595 54.5 A 2 2 0 0 0 111.595 56.5 Z M 28.375 75.5 L 42.875 75.5 A 2 2 0 0 0 44.875 73.5 L 44.875 59 A 2 2 0 0 0 42.875 57 L 28.375 57 A 2 2 0 0 0 26.375 59 L 26.375 73.5 A 2 2 0 0 0 28.375 75.5 Z M 192.845 18.5 L 207.345 18.5 A 2 2 0 0 0 209.345 16.5 L 209.345 2 A 2 2 0 0 0 207.345 0 L 192.845 0 A 2 2 0 0 0 190.845 2 L 190.845 16.5 A 2 2 0 0 0 192.845 18.5 Z M 211.845 18.5 L 226.345 18.5 A 2 2 0 0 0 228.345 16.5 L 228.345 2 A 2 2 0 0 0 226.345 0 L 211.845 0 A 2 2 0 0 0 209.845 2 L 209.845 16.5 A 2 2 0 0 0 211.845 18.5 Z M 230.845 18.5 L 245.345 18.5 A 2 2 0 0 0 247.345 16.5 L 247.345 2 A 2 2 0 0 0 245.345 0 L 230.845 0 A 2 2 0 0 0 228.845 2 L 228.845 16.5 A 2 2 0 0 0 230.845 18.5 Z M 249.845 18.5 L 264.345 18.5 A 2 2 0 0 0 266.345 16.5 L 266.345 2 A 2 2 0 0 0 264.345 0 L 249.845 0 A 2 2 0 0 0 247.845 2 L 247.845 16.5 A 2 2 0 0 0 249.845 18.5 Z M 268.845 18.5 L 283.345 18.5 A 2 2 0 0 0 285.345 16.5 L 285.345 2 A 2 2 0 0 0 283.345 0 L 268.845 0 A 2 2 0 0 0 266.845 2 L 266.845 16.5 A 2 2 0 0 0 268.845 18.5 Z M 287.845 18.5 L 302.345 18.5 A 2 2 0 0 0 304.345 16.5 L 304.345 2 A 2 2 0 0 0 302.345 0 L 287.845 0 A 2 2 0 0 0 285.845 2 L 285.845 16.5 A 2 2 0 0 0 287.845 18.5 Z M 306.845 18.5 L 321.345 18.5 A 2 2 0 0 0 323.345 16.5 L 323.345 2 A 2 2 0 0 0 321.345 0 L 306.845 0 A 2 2 0 0 0 304.845 2 L 304.845 16.5 A 2 2 0 0 0 306.845 18.5 Z M 199.875 37.5 L 214.375 37.5 A 2 2 0 0 0 216.375 35.5 L 216.375 21 A 2 2 0 0 0 214.375 19 L 199.875 19 A 2 2 0 0 0 197.875 21 L 197.875 35.5 A 2 2 0 0 0 199.875 37.5 Z M 218.875 37.5 L 233.375 37.5 A 2 2 0 0 0 235.375 35.5 L 235.375 21 A 2 2 0 0 0 233.375 19 L 218.875 19 A 2 2 0 0 0 216.875 21 L 216.875 35.5 A 2 2 0 0 0 218.875 37.5 Z M 237.875 37.5 L 252.375 37.5 A 2 2 0 0 0 254.375 35.5 L 254.375 21 A 2 2 0 0 0 252.375 19 L 237.875 19 A 2 2 0 0 0 235.875 21 L 235.875 35.5 A 2 2 0 0 0 237.875 37.5 Z M 256.875 37.5 L 271.375 37.5 A 2 2 0 0 0 273.375 35.5 L 273.375 21 A 2 2 0 0 0 271.375 19 L 256.875 19 A 2 2 0 0 0 254.875 21 L 254.875 35.5 A 2 2 0 0 0 256.875 37.5 Z M 275.875 37.5 L 290.375 37.5 A 2 2 0 0 0 292.375 35.5 L 292.375 21 A 2 2 0 0 0 290.375 19 L 275.875 19 A 2 2 0 0 0 273.875 21 L 273.875 35.5 A 2 2 0 0 0 275.875 37.5 Z M 294.875 37.5 L 309.375 37.5 A 2 2 0 0 0 311.375 35.5 L 311.375 21 A 2 2 0 0 0 309.375 19 L 294.875 19 A 2 2 0 0 0 292.875 21 L 292.875 35.5 A 2 2 0 0 0 294.875 37.5 Z M 189.845 56.5 L 204.345 56.5 A 2 2 0 0 0 206.345 54.5 L 206.345 40 A 2 2 0 0 0 204.345 38 L 189.845 38 A 2 2 0 0 0 187.845 40 L 187.845 54.5 A 2 2 0 0 0 189.845 56.5 Z M 208.845 56.5 L 223.345 56.5 A 2 2 0 0 0 225.345 54.5 L 225.345 40 A 2 2 0 0 0 223.345 38 L 208.845 38 A 2 2 0 0 0 206.845 40 L 206.845 54.5 A 2 2 0 0 0 208.845 56.5 Z M 227.845 56.5 L 242.345 56.5 A 2 2 0 0 0 244.345 54.5 L 244.345 40 A 2 2 0 0 0 242.345 38 L 227.845 38 A 2 2 0 0 0 225.845 40 L 225.845 54.5 A 2 2 0 0 0 227.845 56.5 Z M 246.845 56.5 L 261.345 56.5 A 2 2 0 0 0 263.345 54.5 L 263.345 40 A 2 2 0 0 0 261.345 38 L 246.845 38 A 2 2 0 0 0 244.845 40 L 244.845 54.5 A 2 2 0 0 0 246.845 56.5 Z M 265.845 56.5 L 280.345 56.5 A 2 2 0 0 0 282.345 54.5 L 282.345 40 A 2 2 0 0 0 280.345 38 L 265.845 38 A 2 2 0 0 0 263.845 40 L 263.845 54.5 A 2 2 0 0 0 265.845 56.5 Z M 284.845 56.5 L 299.345 56.5 A 2 2 0 0 0 301.345 54.5 L 301.345 40 A 2 2 0 0 0 299.345 38 L 284.845 38 A 2 2 0 0 0 282.845 40 L 282.845 54.5 A 2 2 0 0 0 284.845 56.5 Z M 303.845 56.5 L 318.345 56.5 A 2 2 0 0 0 320.345 54.5 L 320.345 40 A 2 2 0 0 0 318.345 38 L 303.845 38 A 2 2 0 0 0 301.845 40 L 301.845 54.5 A 2 2 0 0 0 303.845 56.5 Z M 265.845 75.5 L 280.345 75.5 A 2 2 0 0 0 282.345 73.5 L 282.345 59 A 2 2 0 0 0 280.345 57 L 265.845 57 A 2 2 0 0 0 263.845 59 L 263.845 73.5 A 2 2 0 0 0 265.845 75.5 Z M 284.845 75.5 L 299.345 75.5 A 2 2 0 0 0 301.345 73.5 L 301.345 59 A 2 2 0 0 0 299.345 57 L 284.845 57 A 2 2 0 0 0 282.845 59 L 282.845 73.5 A 2 2 0 0 0 284.845 75.5 Z M 303.845 75.5 L 318.345 75.5 A 2 2 0 0 0 320.345 73.5 L 320.345 59 A 2 2 0 0 0 318.345 57 L 303.845 57 A 2 2 0 0 0 301.845 59 L 301.845 73.5 A 2 2 0 0 0 303.845 75.5 Z M 201.126 78.315 L 215.518 76.547 A 2 2 0 0 0 217.26 74.319 L 215.492 59.927 A 2 2 0 0 0 213.264 58.185 L 198.872 59.953 A 2 2 0 0 0 197.13 62.181 L 198.898 76.573 A 2 2 0 0 0 201.126 78.315 Z M 101.972 76.547 L 116.364 78.315 A 2 2 0 0 0 118.592 76.573 L 120.36 62.181 A 2 2 0 0 0 118.618 59.953 L 104.226 58.185 A 2 2 0 0 0 101.998 59.927 L 100.23 74.319 A 2 2 0 0 0 101.972 76.547 Z" vector-effect="non-scaling-stroke"/></g></svg>