<svg width="323.5mm" height="83.277mm" viewBox="0 0 323.5 83.277" xmlns="http://www.w3.org/2000/svg"><g id="svgGroup" stroke-linecap="round" fill-rule="evenodd" font-size="9pt" stroke="#000" stroke-width="0.25mm" fill="none" style="stroke:#000;stroke-width:0.25mm;fill:none"><path d="M 0 19 L 2.28 19 L 2.28 38 L 7.03 38 L 7.03 57 L 2.28 57 L 2.28 76 L 21.28 76 L 21.28 57 L 33.25 57 L 33.25 38 L 26.03 38 L 26.03 76 L 45.03 76 L 45.03 57 L 128.25 57 L 128.25 38 L 118.75 38 L 118.75 19 L 114 19 L 114 0 L 0 0 L 0 19 Z M 190.5 19 L 197.53 19 L 197.53 38 L 187.5 38 L 187.5 57 L 263.5 57 L 263.5 76 L 282.5 76 L 282.5 57 L 282.5 76 L 320.5 76 L 320.5 38 L 311.53 38 L 311.53 19 L 323.5 19 L 323.5 0 L 190.5 0 L 190.5 19 Z M 99.613 76.771 L 118.471 79.087 L 120.787 60.229 L 101.929 57.913 L 99.613 76.771 Z M 198.829 79.087 L 217.687 76.771 L 215.371 57.913 L 196.513 60.229 L 198.829 79.087 Z M 138.947 83.277 L 148.447 66.823 L 131.993 57.323 L 122.493 73.777 L 138.947 83.277 Z M 166.523 66.823 L 176.023 83.277 L 192.477 73.777 L 182.977 57.323 L 166.523 66.823 Z M 21.28 19 L 23.75 19 L 23.75 38 L 21.28 38 L 21.28 19 Z" vector-effect="non-scaling-stroke"/></g></svg>