<svg width="304.595mm" height="87.391mm" viewBox="0 0 304.595 87.391" xmlns="http://www.w3.org/2000/svg"><g id="svgGroup" stroke-linecap="round" fill-rule="evenodd" font-size="9pt" stroke="#000" stroke-width="0.25mm" fill="none" style="stroke:#000;stroke-width:0.25mm;fill:none"><path d="M 0 38 L 33.25 38 L 33.25 57 L 0 57 L 0 38 Z M 244.595 57 L 263.595 57 L 282.595 57 L 282.595 38 L 263.595 38 L 263.595 57 Z M 120.213 77.891 L 134.463 53.209 L 150.917 62.709 L 136.667 87.391 L 120.213 77.891 Z M 180.697 53.209 L 194.947 77.891 L 178.493 87.391 L 164.243 62.709 L 180.697 53.209 Z M 0 19 L 23.75 19 L 23.75 38 L 0 38 L 0 19 Z M 0 57 L 23.75 57 L 23.75 76 L 0 76 L 0 57 Z M 23.75 57 L 47.5 57 L 47.5 76 L 23.75 76 L 23.75 57 Z M 102.024 57.913 L 120.882 60.229 L 118.566 79.087 L 99.708 76.771 L 102.024 57.913 Z M 196.608 60.229 L 215.466 57.913 L 217.782 76.771 L 198.924 79.087 L 196.608 60.229 Z M 0.095 0 L 19.095 0 L 19.095 19 L 0.095 19 L 0.095 0 Z M 19.095 0 L 38.095 0 L 38.095 19 L 19.095 19 L 19.095 0 Z M 38.095 0 L 57.095 0 L 57.095 19 L 38.095 19 L 38.095 0 Z M 57.095 0 L 76.095 0 L 76.095 19 L 57.095 19 L 57.095 0 Z M 76.095 0 L 95.095 0 L 95.095 19 L 76.095 19 L 76.095 0 Z M 95.095 0 L 114.095 0 L 114.095 19 L 95.095 19 L 95.095 0 Z M 23.845 19 L 42.845 19 L 42.845 38 L 23.845 38 L 23.845 19 Z M 42.845 19 L 61.845 19 L 61.845 38 L 42.845 38 L 42.845 19 Z M 61.845 19 L 80.845 19 L 80.845 38 L 61.845 38 L 61.845 19 Z M 80.845 19 L 99.845 19 L 99.845 38 L 80.845 38 L 80.845 19 Z M 99.845 19 L 118.845 19 L 118.845 38 L 99.845 38 L 99.845 19 Z M 33.345 38 L 52.345 38 L 52.345 57 L 33.345 57 L 33.345 38 Z M 52.345 38 L 71.345 38 L 71.345 57 L 52.345 57 L 52.345 38 Z M 71.345 38 L 90.345 38 L 90.345 57 L 71.345 57 L 71.345 38 Z M 90.345 38 L 109.345 38 L 109.345 57 L 90.345 57 L 90.345 38 Z M 109.345 38 L 128.345 38 L 128.345 57 L 109.345 57 L 109.345 38 Z M 190.595 0 L 209.595 0 L 209.595 19 L 190.595 19 L 190.595 0 Z M 209.595 0 L 228.595 0 L 228.595 19 L 209.595 19 L 209.595 0 Z M 228.595 0 L 247.595 0 L 247.595 19 L 228.595 19 L 228.595 0 Z M 247.595 0 L 266.595 0 L 266.595 19 L 247.595 19 L 247.595 0 Z M 266.595 0 L 285.595 0 L 285.595 19 L 266.595 19 L 266.595 0 Z M 285.595 0 L 304.595 0 L 304.595 19 L 285.595 19 L 285.595 0 Z M 197.625 19 L 216.625 19 L 216.625 38 L 197.625 38 L 197.625 19 Z M 216.625 19 L 235.625 19 L 235.625 38 L 216.625 38 L 216.625 19 Z M 235.625 19 L 254.625 19 L 254.625 38 L 235.625 38 L 235.625 19 Z M 254.625 19 L 273.625 19 L 273.625 38 L 254.625 38 L 254.625 19 Z M 273.625 19 L 292.625 19 L 292.625 38 L 273.625 38 L 273.625 19 Z M 187.595 38 L 206.595 38 L 206.595 57 L 187.595 57 L 187.595 38 Z M 206.595 38 L 225.595 38 L 225.595 57 L 206.595 57 L 206.595 38 Z M 225.595 38 L 244.595 38 L 244.595 57 L 225.595 57 L 225.595 38 Z M 244.595 38 L 263.595 38 L 263.595 57 L 244.595 57 L 244.595 38 Z M 282.595 38 L 301.595 38 L 301.595 57 L 282.595 57 L 282.595 38 Z M 282.595 57 L 301.595 57 L 301.595 76 L 282.595 76 L 282.595 57 Z M 263.595 57 L 263.595 76 L 244.595 76 L 244.595 57 L 263.595 57 Z M 263.595 57 L 282.595 57 L 282.595 76 L 263.595 76 L 263.595 57 Z" vector-effect="non-scaling-stroke"/></g></svg>