<svg width="328mm" height="76mm" viewBox="0 0 328 76" xmlns="http://www.w3.org/2000/svg"><g id="svgGroup" stroke-linecap="round" fill-rule="evenodd" font-size="9pt" stroke="#000" stroke-width="0.25mm" fill="none" style="stroke:#000;stroke-width:0.25mm;fill:none"><path d="M 0 38 L 42.75 38 L 42.75 57 L 0 57 L 0 38 Z M 328 38 L 285.25 38 L 285.25 57 L 328 57 L 328 38 Z M 0 19 L 33.25 19 L 33.25 38 L 0 38 L 0 19 Z M 328 19 L 294.75 19 L 294.75 38 L 328 38 L 328 19 Z M 0 0 L 28.5 0 L 28.5 19 L 0 19 L 0 0 Z M 118.75 57 L 90.25 57 L 90.25 76 L 118.75 76 L 118.75 57 Z M 299.5 0 L 328 0 L 328 19 L 299.5 19 L 299.5 0 Z M 209.25 57 L 237.75 57 L 237.75 76 L 209.25 76 L 209.25 57 Z M 0 57 L 23.75 57 L 23.75 76 L 0 76 L 0 57 Z M 23.75 57 L 47.5 57 L 47.5 76 L 23.75 76 L 23.75 57 Z M 47.5 57 L 71.25 57 L 71.25 76 L 47.5 76 L 47.5 57 Z M 328 57 L 304.25 57 L 304.25 76 L 328 76 L 328 57 Z M 304.25 57 L 280.5 57 L 280.5 76 L 304.25 76 L 304.25 57 Z M 280.5 57 L 256.75 57 L 256.75 76 L 280.5 76 L 280.5 57 Z M 28.5 0 L 47.5 0 L 47.5 19 L 28.5 19 L 28.5 0 Z M 47.5 0 L 66.5 0 L 66.5 19 L 47.5 19 L 47.5 0 Z M 66.5 0 L 85.5 0 L 85.5 19 L 66.5 19 L 66.5 0 Z M 85.5 0 L 104.5 0 L 104.5 19 L 85.5 19 L 85.5 0 Z M 104.5 0 L 123.5 0 L 123.5 19 L 104.5 19 L 104.5 0 Z M 33.25 19 L 52.25 19 L 52.25 38 L 33.25 38 L 33.25 19 Z M 52.25 19 L 71.25 19 L 71.25 38 L 52.25 38 L 52.25 19 Z M 71.25 19 L 90.25 19 L 90.25 38 L 71.25 38 L 71.25 19 Z M 90.25 19 L 109.25 19 L 109.25 38 L 90.25 38 L 90.25 19 Z M 109.25 19 L 128.25 19 L 128.25 38 L 109.25 38 L 109.25 19 Z M 42.75 38 L 61.75 38 L 61.75 57 L 42.75 57 L 42.75 38 Z M 61.75 38 L 80.75 38 L 80.75 57 L 61.75 57 L 61.75 38 Z M 80.75 38 L 99.75 38 L 99.75 57 L 80.75 57 L 80.75 38 Z M 99.75 38 L 118.75 38 L 118.75 57 L 99.75 57 L 99.75 38 Z M 118.75 38 L 137.75 38 L 137.75 57 L 118.75 57 L 118.75 38 Z M 299.5 19 L 299.5 0 L 280.5 0 L 280.5 19 L 299.5 19 Z M 280.5 0 L 261.5 0 L 261.5 19 L 280.5 19 L 280.5 0 Z M 261.5 0 L 242.5 0 L 242.5 19 L 261.5 19 L 261.5 0 Z M 242.5 0 L 223.5 0 L 223.5 19 L 242.5 19 L 242.5 0 Z M 223.5 0 L 204.5 0 L 204.5 19 L 223.5 19 L 223.5 0 Z M 294.75 19 L 275.75 19 L 275.75 38 L 294.75 38 L 294.75 19 Z M 275.75 19 L 256.75 19 L 256.75 38 L 275.75 38 L 275.75 19 Z M 256.75 19 L 237.75 19 L 237.75 38 L 256.75 38 L 256.75 19 Z M 237.75 19 L 218.75 19 L 218.75 38 L 237.75 38 L 237.75 19 Z M 218.75 19 L 199.75 19 L 199.75 38 L 218.75 38 L 218.75 19 Z M 285.25 38 L 266.25 38 L 266.25 57 L 285.25 57 L 285.25 38 Z M 266.25 38 L 247.25 38 L 247.25 57 L 266.25 57 L 266.25 38 Z M 247.25 38 L 228.25 38 L 228.25 57 L 247.25 57 L 247.25 38 Z M 228.25 38 L 209.25 38 L 209.25 57 L 228.25 57 L 228.25 38 Z M 209.25 38 L 190.25 38 L 190.25 57 L 209.25 57 L 209.25 38 Z" vector-effect="non-scaling-stroke"/></g></svg>