0
SECTION
2
HEADER
9
$INSUNITS
70
4
0
ENDSEC
0
SECTION
2
TABLES
0
TABLE
2
LTYPE
0
LTYPE
72
65
70
0
2
CONTINUOUS
3
______
73
0
40
0
0
LTYPE
72
65
70
0
2
DASHED
3
_ _ _ 
73
2
40
7.5
49
5
49
-2.5
0
LTYPE
72
65
70
0
2
DOTTED
3
. . . 
73
2
40
1.5
49
0.5
49
-1
0
ENDTAB
0
TABLE
2
LAYER
0
ENDTAB
0
ENDSEC
0
SECTION
2
ENTITIES
0
LINE
8
0
6
CONTINUOUS
10
0
20
9.5
11
19
21
9.5
0
LINE
8
0
6
CONTINUOUS
10
19
20
9.5
11
19
21
-9.5
0
LINE
8
0
6
CONTINUOUS
10
19
20
-9.5
11
0
21
-9.5
0
LINE
8
0
6
CONTINUOUS
10
0
20
-9.5
11
0
21
9.5
0
LINE
8
0
6
CONTINUOUS
10
19
20
9.5
11
38
21
9.5
0
LINE
8
0
6
CONTINUOUS
10
38
20
9.5
11
38
21
-9.5
0
LINE
8
0
6
CONTINUOUS
10
38
20
-9.5
11
19
21
-9.5
0
LINE
8
0
6
CONTINUOUS
10
19
20
-9.5
11
19
21
9.5
0
LINE
8
0
6
CONTINUOUS
10
38
20
9.5
11
57
21
9.5
0
LINE
8
0
6
CONTINUOUS
10
57
20
9.5
11
57
21
-9.5
0
LINE
8
0
6
CONTINUOUS
10
57
20
-9.5
11
38
21
-9.5
0
LINE
8
0
6
CONTINUOUS
10
38
20
-9.5
11
38
21
9.5
0
LINE
8
0
6
CONTINUOUS
10
57
20
9.5
11
76
21
9.5
0
LINE
8
0
6
CONTINUOUS
10
76
20
9.5
11
76
21
-9.5
0
LINE
8
0
6
CONTINUOUS
10
76
20
-9.5
11
57
21
-9.5
0
LINE
8
0
6
CONTINUOUS
10
57
20
-9.5
11
57
21
9.5
0
LINE
8
0
6
CONTINUOUS
10
76
20
9.5
11
95
21
9.5
0
LINE
8
0
6
CONTINUOUS
10
95
20
9.5
11
95
21
-9.5
0
LINE
8
0
6
CONTINUOUS
10
95
20
-9.5
11
76
21
-9.5
0
LINE
8
0
6
CONTINUOUS
10
76
20
-9.5
11
76
21
9.5
0
LINE
8
0
6
CONTINUOUS
10
95
20
9.5
11
114
21
9.5
0
LINE
8
0
6
CONTINUOUS
10
114
20
9.5
11
114
21
-9.5
0
LINE
8
0
6
CONTINUOUS
10
114
20
-9.5
11
95
21
-9.5
0
LINE
8
0
6
CONTINUOUS
10
95
20
-9.5
11
95
21
9.5
0
LINE
8
0
6
CONTINUOUS
10
-0.095
20
-9.5
11
23.655
21
-9.5
0
LINE
8
0
6
CONTINUOUS
10
23.655
20
-9.5
11
23.655
21
-28.5
0
LINE
8
0
6
CONTINUOUS
10
23.655
20
-28.5
11
-0.095
21
-28.5
0
LINE
8
0
6
CONTINUOUS
10
-0.095
20
-28.5
11
-0.095
21
-9.5
0
LINE
8
0
6
CONTINUOUS
10
23.75
20
-9.5
11
42.75
21
-9.5
0
LINE
8
0
6
CONTINUOUS
10
42.75
20
-9.5
11
42.75
21
-28.5
0
LINE
8
0
6
CONTINUOUS
10
42.75
20
-28.5
11
23.75
21
-28.5
0
LINE
8
0
6
CONTINUOUS
10
23.75
20
-28.5
11
23.75
21
-9.5
0
LINE
8
0
6
CONTINUOUS
10
42.75
20
-9.5
11
61.75
21
-9.5
0
LINE
8
0
6
CONTINUOUS
10
61.75
20
-9.5
11
61.75
21
-28.5
0
LINE
8
0
6
CONTINUOUS
10
61.75
20
-28.5
11
42.75
21
-28.5
0
LINE
8
0
6
CONTINUOUS
10
42.75
20
-28.5
11
42.75
21
-9.5
0
LINE
8
0
6
CONTINUOUS
10
61.75
20
-9.5
11
80.75
21
-9.5
0
LINE
8
0
6
CONTINUOUS
10
80.75
20
-9.5
11
80.75
21
-28.5
0
LINE
8
0
6
CONTINUOUS
10
80.75
20
-28.5
11
61.75
21
-28.5
0
LINE
8
0
6
CONTINUOUS
10
61.75
20
-28.5
11
61.75
21
-9.5
0
LINE
8
0
6
CONTINUOUS
10
80.75
20
-9.5
11
99.75
21
-9.5
0
LINE
8
0
6
CONTINUOUS
10
99.75
20
-9.5
11
99.75
21
-28.5
0
LINE
8
0
6
CONTINUOUS
10
99.75
20
-28.5
11
80.75
21
-28.5
0
LINE
8
0
6
CONTINUOUS
10
80.75
20
-28.5
11
80.75
21
-9.5
0
LINE
8
0
6
CONTINUOUS
10
99.75
20
-9.5
11
118.75
21
-9.5
0
LINE
8
0
6
CONTINUOUS
10
118.75
20
-9.5
11
118.75
21
-28.5
0
LINE
8
0
6
CONTINUOUS
10
118.75
20
-28.5
11
99.75
21
-28.5
0
LINE
8
0
6
CONTINUOUS
10
99.75
20
-28.5
11
99.75
21
-9.5
0
LINE
8
0
6
CONTINUOUS
10
-0.095
20
-28.5
11
33.155
21
-28.5
0
LINE
8
0
6
CONTINUOUS
10
33.155
20
-28.5
11
33.155
21
-47.5
0
LINE
8
0
6
CONTINUOUS
10
33.155
20
-47.5
11
-0.095
21
-47.5
0
LINE
8
0
6
CONTINUOUS
10
-0.095
20
-47.5
11
-0.095
21
-28.5
0
LINE
8
0
6
CONTINUOUS
10
33.25
20
-28.5
11
52.25
21
-28.5
0
LINE
8
0
6
CONTINUOUS
10
52.25
20
-28.5
11
52.25
21
-47.5
0
LINE
8
0
6
CONTINUOUS
10
52.25
20
-47.5
11
33.25
21
-47.5
0
LINE
8
0
6
CONTINUOUS
10
33.25
20
-47.5
11
33.25
21
-28.5
0
LINE
8
0
6
CONTINUOUS
10
52.25
20
-28.5
11
71.25
21
-28.5
0
LINE
8
0
6
CONTINUOUS
10
71.25
20
-28.5
11
71.25
21
-47.5
0
LINE
8
0
6
CONTINUOUS
10
71.25
20
-47.5
11
52.25
21
-47.5
0
LINE
8
0
6
CONTINUOUS
10
52.25
20
-47.5
11
52.25
21
-28.5
0
LINE
8
0
6
CONTINUOUS
10
71.25
20
-28.5
11
90.25
21
-28.5
0
LINE
8
0
6
CONTINUOUS
10
90.25
20
-28.5
11
90.25
21
-47.5
0
LINE
8
0
6
CONTINUOUS
10
90.25
20
-47.5
11
71.25
21
-47.5
0
LINE
8
0
6
CONTINUOUS
10
71.25
20
-47.5
11
71.25
21
-28.5
0
LINE
8
0
6
CONTINUOUS
10
90.25
20
-28.5
11
109.25
21
-28.5
0
LINE
8
0
6
CONTINUOUS
10
109.25
20
-28.5
11
109.25
21
-47.5
0
LINE
8
0
6
CONTINUOUS
10
109.25
20
-47.5
11
90.25
21
-47.5
0
LINE
8
0
6
CONTINUOUS
10
90.25
20
-47.5
11
90.25
21
-28.5
0
LINE
8
0
6
CONTINUOUS
10
109.25
20
-28.5
11
128.25
21
-28.5
0
LINE
8
0
6
CONTINUOUS
10
128.25
20
-28.5
11
128.25
21
-47.5
0
LINE
8
0
6
CONTINUOUS
10
128.25
20
-47.5
11
109.25
21
-47.5
0
LINE
8
0
6
CONTINUOUS
10
109.25
20
-47.5
11
109.25
21
-28.5
0
LINE
8
0
6
CONTINUOUS
10
-0.095
20
-47.5
11
23.655
21
-47.5
0
LINE
8
0
6
CONTINUOUS
10
23.655
20
-47.5
11
23.655
21
-66.5
0
LINE
8
0
6
CONTINUOUS
10
23.655
20
-66.5
11
-0.095
21
-66.5
0
LINE
8
0
6
CONTINUOUS
10
-0.095
20
-66.5
11
-0.095
21
-47.5
0
LINE
8
0
6
CONTINUOUS
10
23.655
20
-47.5
11
47.405
21
-47.5
0
LINE
8
0
6
CONTINUOUS
10
47.405
20
-47.5
11
47.405
21
-66.5
0
LINE
8
0
6
CONTINUOUS
10
47.405
20
-66.5
11
23.655
21
-66.5
0
LINE
8
0
6
CONTINUOUS
10
23.655
20
-66.5
11
23.655
21
-47.5
0
LINE
8
0
6
CONTINUOUS
10
101.9285703
20
-48.4130528
11
120.7869472
21
-50.7285703
0
LINE
8
0
6
CONTINUOUS
10
120.7869472
20
-50.7285703
11
118.4714297
21
-69.5869472
0
LINE
8
0
6
CONTINUOUS
10
118.4714297
20
-69.5869472
11
99.6130528
21
-67.2714297
0
LINE
8
0
6
CONTINUOUS
10
99.6130528
20
-67.2714297
11
101.9285703
21
-48.4130528
0
LINE
8
0
6
CONTINUOUS
10
120.1177587
20
-68.390862
11
134.3677587
21
-43.709138
0
LINE
8
0
6
CONTINUOUS
10
134.3677587
20
-43.709138
11
150.8222413
21
-53.209138
0
LINE
8
0
6
CONTINUOUS
10
150.8222413
20
-53.209138
11
136.5722413
21
-77.890862
0
LINE
8
0
6
CONTINUOUS
10
136.5722413
20
-77.890862
11
120.1177587
21
-68.390862
0
LINE
8
0
6
CONTINUOUS
10
190.5
20
9.5
11
209.5
21
9.5
0
LINE
8
0
6
CONTINUOUS
10
209.5
20
9.5
11
209.5
21
-9.5
0
LINE
8
0
6
CONTINUOUS
10
209.5
20
-9.5
11
190.5
21
-9.5
0
LINE
8
0
6
CONTINUOUS
10
190.5
20
-9.5
11
190.5
21
9.5
0
LINE
8
0
6
CONTINUOUS
10
209.5
20
9.5
11
228.5
21
9.5
0
LINE
8
0
6
CONTINUOUS
10
228.5
20
9.5
11
228.5
21
-9.5
0
LINE
8
0
6
CONTINUOUS
10
228.5
20
-9.5
11
209.5
21
-9.5
0
LINE
8
0
6
CONTINUOUS
10
209.5
20
-9.5
11
209.5
21
9.5
0
LINE
8
0
6
CONTINUOUS
10
228.5
20
9.5
11
247.5
21
9.5
0
LINE
8
0
6
CONTINUOUS
10
247.5
20
9.5
11
247.5
21
-9.5
0
LINE
8
0
6
CONTINUOUS
10
247.5
20
-9.5
11
228.5
21
-9.5
0
LINE
8
0
6
CONTINUOUS
10
228.5
20
-9.5
11
228.5
21
9.5
0
LINE
8
0
6
CONTINUOUS
10
247.5
20
9.5
11
266.5
21
9.5
0
LINE
8
0
6
CONTINUOUS
10
266.5
20
9.5
11
266.5
21
-9.5
0
LINE
8
0
6
CONTINUOUS
10
266.5
20
-9.5
11
247.5
21
-9.5
0
LINE
8
0
6
CONTINUOUS
10
247.5
20
-9.5
11
247.5
21
9.5
0
LINE
8
0
6
CONTINUOUS
10
266.5
20
9.5
11
285.5
21
9.5
0
LINE
8
0
6
CONTINUOUS
10
285.5
20
9.5
11
285.5
21
-9.5
0
LINE
8
0
6
CONTINUOUS
10
285.5
20
-9.5
11
266.5
21
-9.5
0
LINE
8
0
6
CONTINUOUS
10
266.5
20
-9.5
11
266.5
21
9.5
0
LINE
8
0
6
CONTINUOUS
10
285.5
20
9.5
11
304.5
21
9.5
0
LINE
8
0
6
CONTINUOUS
10
304.5
20
9.5
11
304.5
21
-9.5
0
LINE
8
0
6
CONTINUOUS
10
304.5
20
-9.5
11
285.5
21
-9.5
0
LINE
8
0
6
CONTINUOUS
10
285.5
20
-9.5
11
285.5
21
9.5
0
LINE
8
0
6
CONTINUOUS
10
197.53
20
-9.5
11
216.53
21
-9.5
0
LINE
8
0
6
CONTINUOUS
10
216.53
20
-9.5
11
216.53
21
-28.5
0
LINE
8
0
6
CONTINUOUS
10
216.53
20
-28.5
11
197.53
21
-28.5
0
LINE
8
0
6
CONTINUOUS
10
197.53
20
-28.5
11
197.53
21
-9.5
0
LINE
8
0
6
CONTINUOUS
10
216.53
20
-9.5
11
235.53
21
-9.5
0
LINE
8
0
6
CONTINUOUS
10
235.53
20
-9.5
11
235.53
21
-28.5
0
LINE
8
0
6
CONTINUOUS
10
235.53
20
-28.5
11
216.53
21
-28.5
0
LINE
8
0
6
CONTINUOUS
10
216.53
20
-28.5
11
216.53
21
-9.5
0
LINE
8
0
6
CONTINUOUS
10
235.53
20
-9.5
11
254.53
21
-9.5
0
LINE
8
0
6
CONTINUOUS
10
254.53
20
-9.5
11
254.53
21
-28.5
0
LINE
8
0
6
CONTINUOUS
10
254.53
20
-28.5
11
235.53
21
-28.5
0
LINE
8
0
6
CONTINUOUS
10
235.53
20
-28.5
11
235.53
21
-9.5
0
LINE
8
0
6
CONTINUOUS
10
254.53
20
-9.5
11
273.53
21
-9.5
0
LINE
8
0
6
CONTINUOUS
10
273.53
20
-9.5
11
273.53
21
-28.5
0
LINE
8
0
6
CONTINUOUS
10
273.53
20
-28.5
11
254.53
21
-28.5
0
LINE
8
0
6
CONTINUOUS
10
254.53
20
-28.5
11
254.53
21
-9.5
0
LINE
8
0
6
CONTINUOUS
10
273.53
20
-9.5
11
292.53
21
-9.5
0
LINE
8
0
6
CONTINUOUS
10
292.53
20
-9.5
11
292.53
21
-28.5
0
LINE
8
0
6
CONTINUOUS
10
292.53
20
-28.5
11
273.53
21
-28.5
0
LINE
8
0
6
CONTINUOUS
10
273.53
20
-28.5
11
273.53
21
-9.5
0
LINE
8
0
6
CONTINUOUS
10
187.5
20
-28.5
11
206.5
21
-28.5
0
LINE
8
0
6
CONTINUOUS
10
206.5
20
-28.5
11
206.5
21
-47.5
0
LINE
8
0
6
CONTINUOUS
10
206.5
20
-47.5
11
187.5
21
-47.5
0
LINE
8
0
6
CONTINUOUS
10
187.5
20
-47.5
11
187.5
21
-28.5
0
LINE
8
0
6
CONTINUOUS
10
206.5
20
-28.5
11
225.5
21
-28.5
0
LINE
8
0
6
CONTINUOUS
10
225.5
20
-28.5
11
225.5
21
-47.5
0
LINE
8
0
6
CONTINUOUS
10
225.5
20
-47.5
11
206.5
21
-47.5
0
LINE
8
0
6
CONTINUOUS
10
206.5
20
-47.5
11
206.5
21
-28.5
0
LINE
8
0
6
CONTINUOUS
10
225.5
20
-28.5
11
244.5
21
-28.5
0
LINE
8
0
6
CONTINUOUS
10
244.5
20
-28.5
11
244.5
21
-47.5
0
LINE
8
0
6
CONTINUOUS
10
244.5
20
-47.5
11
225.5
21
-47.5
0
LINE
8
0
6
CONTINUOUS
10
225.5
20
-47.5
11
225.5
21
-28.5
0
LINE
8
0
6
CONTINUOUS
10
244.5
20
-28.5
11
263.5
21
-28.5
0
LINE
8
0
6
CONTINUOUS
10
263.5
20
-28.5
11
263.5
21
-47.5
0
LINE
8
0
6
CONTINUOUS
10
263.5
20
-47.5
11
244.5
21
-47.5
0
LINE
8
0
6
CONTINUOUS
10
244.5
20
-47.5
11
244.5
21
-28.5
0
LINE
8
0
6
CONTINUOUS
10
263.5
20
-28.5
11
282.5
21
-28.5
0
LINE
8
0
6
CONTINUOUS
10
282.5
20
-28.5
11
282.5
21
-47.5
0
LINE
8
0
6
CONTINUOUS
10
282.5
20
-47.5
11
263.5
21
-47.5
0
LINE
8
0
6
CONTINUOUS
10
263.5
20
-47.5
11
263.5
21
-28.5
0
LINE
8
0
6
CONTINUOUS
10
282.5
20
-28.5
11
301.5
21
-28.5
0
LINE
8
0
6
CONTINUOUS
10
301.5
20
-28.5
11
301.5
21
-47.5
0
LINE
8
0
6
CONTINUOUS
10
301.5
20
-47.5
11
282.5
21
-47.5
0
LINE
8
0
6
CONTINUOUS
10
282.5
20
-47.5
11
282.5
21
-28.5
0
LINE
8
0
6
CONTINUOUS
10
244.5
20
-47.5
11
263.5
21
-47.5
0
LINE
8
0
6
CONTINUOUS
10
263.5
20
-47.5
11
263.5
21
-66.5
0
LINE
8
0
6
CONTINUOUS
10
263.5
20
-66.5
11
244.5
21
-66.5
0
LINE
8
0
6
CONTINUOUS
10
244.5
20
-66.5
11
244.5
21
-47.5
0
LINE
8
0
6
CONTINUOUS
10
263.500001
20
-47.5
11
282.500001
21
-47.5
0
LINE
8
0
6
CONTINUOUS
10
282.500001
20
-47.5
11
282.500001
21
-66.5
0
LINE
8
0
6
CONTINUOUS
10
282.500001
20
-66.5
11
263.500001
21
-66.5
0
LINE
8
0
6
CONTINUOUS
10
263.500001
20
-66.5
11
263.500001
21
-47.5
0
LINE
8
0
6
CONTINUOUS
10
282.5
20
-47.5
11
301.5
21
-47.5
0
LINE
8
0
6
CONTINUOUS
10
301.5
20
-47.5
11
301.5
21
-66.5
0
LINE
8
0
6
CONTINUOUS
10
301.5
20
-66.5
11
282.5
21
-66.5
0
LINE
8
0
6
CONTINUOUS
10
282.5
20
-66.5
11
282.5
21
-47.5
0
LINE
8
0
6
CONTINUOUS
10
180.6022413
20
-43.709138
11
194.8522413
21
-68.390862
0
LINE
8
0
6
CONTINUOUS
10
194.8522413
20
-68.390862
11
178.3977587
21
-77.890862
0
LINE
8
0
6
CONTINUOUS
10
178.3977587
20
-77.890862
11
164.1477587
21
-53.209138
0
LINE
8
0
6
CONTINUOUS
10
164.1477587
20
-53.209138
11
180.6022413
21
-43.709138
0
LINE
8
0
6
CONTINUOUS
10
196.5130528
20
-50.7285703
11
215.3714297
21
-48.4130528
0
LINE
8
0
6
CONTINUOUS
10
215.3714297
20
-48.4130528
11
217.6869472
21
-67.2714297
0
LINE
8
0
6
CONTINUOUS
10
217.6869472
20
-67.2714297
11
198.8285703
21
-69.5869472
0
LINE
8
0
6
CONTINUOUS
10
198.8285703
20
-69.5869472
11
196.5130528
21
-50.7285703
0
ENDSEC
0
EOF