0
SECTION
2
HEADER
9
$INSUNITS
70
4
0
ENDSEC
0
SECTION
2
TABLES
0
TABLE
2
LTYPE
0
LTYPE
72
65
70
0
2
CONTINUOUS
3
______
73
0
40
0
0
LTYPE
72
65
70
0
2
DASHED
3
_ _ _ 
73
2
40
7.5
49
5
49
-2.5
0
LTYPE
72
65
70
0
2
DOTTED
3
. . . 
73
2
40
1.5
49
0.5
49
-1
0
ENDTAB
0
TABLE
2
LAYER
0
ENDTAB
0
ENDSEC
0
SECTION
2
ENTITIES
0
LINE
8
0
6
CONTINUOUS
10
1
20
10.5
11
20
21
10.5
0
LINE
8
0
6
CONTINUOUS
10
20
20
10.5
11
20
21
-8.5
0
LINE
8
0
6
CONTINUOUS
10
20
20
-8.5
11
1
21
-8.5
0
LINE
8
0
6
CONTINUOUS
10
1
20
-8.5
11
1
21
10.5
0
LINE
8
0
6
CONTINUOUS
10
20
20
10.5
11
39
21
10.5
0
LINE
8
0
6
CONTINUOUS
10
39
20
10.5
11
39
21
-8.5
0
LINE
8
0
6
CONTINUOUS
10
39
20
-8.5
11
20
21
-8.5
0
LINE
8
0
6
CONTINUOUS
10
20
20
-8.5
11
20
21
10.5
0
LINE
8
0
6
CONTINUOUS
10
39
20
10.5
11
58
21
10.5
0
LINE
8
0
6
CONTINUOUS
10
58
20
10.5
11
58
21
-8.5
0
LINE
8
0
6
CONTINUOUS
10
58
20
-8.5
11
39
21
-8.5
0
LINE
8
0
6
CONTINUOUS
10
39
20
-8.5
11
39
21
10.5
0
LINE
8
0
6
CONTINUOUS
10
58
20
10.5
11
77
21
10.5
0
LINE
8
0
6
CONTINUOUS
10
77
20
10.5
11
77
21
-8.5
0
LINE
8
0
6
CONTINUOUS
10
77
20
-8.5
11
58
21
-8.5
0
LINE
8
0
6
CONTINUOUS
10
58
20
-8.5
11
58
21
10.5
0
LINE
8
0
6
CONTINUOUS
10
77
20
10.5
11
96
21
10.5
0
LINE
8
0
6
CONTINUOUS
10
96
20
10.5
11
96
21
-8.5
0
LINE
8
0
6
CONTINUOUS
10
96
20
-8.5
11
77
21
-8.5
0
LINE
8
0
6
CONTINUOUS
10
77
20
-8.5
11
77
21
10.5
0
LINE
8
0
6
CONTINUOUS
10
96
20
10.5
11
115
21
10.5
0
LINE
8
0
6
CONTINUOUS
10
115
20
10.5
11
115
21
-8.5
0
LINE
8
0
6
CONTINUOUS
10
115
20
-8.5
11
96
21
-8.5
0
LINE
8
0
6
CONTINUOUS
10
96
20
-8.5
11
96
21
10.5
0
LINE
8
0
6
CONTINUOUS
10
0.905
20
-8.5
11
24.655
21
-8.5
0
LINE
8
0
6
CONTINUOUS
10
24.655
20
-8.5
11
24.655
21
-27.5
0
LINE
8
0
6
CONTINUOUS
10
24.655
20
-27.5
11
0.905
21
-27.5
0
LINE
8
0
6
CONTINUOUS
10
0.905
20
-27.5
11
0.905
21
-8.5
0
LINE
8
0
6
CONTINUOUS
10
24.75
20
-8.5
11
43.75
21
-8.5
0
LINE
8
0
6
CONTINUOUS
10
43.75
20
-8.5
11
43.75
21
-27.5
0
LINE
8
0
6
CONTINUOUS
10
43.75
20
-27.5
11
24.75
21
-27.5
0
LINE
8
0
6
CONTINUOUS
10
24.75
20
-27.5
11
24.75
21
-8.5
0
LINE
8
0
6
CONTINUOUS
10
43.75
20
-8.5
11
62.75
21
-8.5
0
LINE
8
0
6
CONTINUOUS
10
62.75
20
-8.5
11
62.75
21
-27.5
0
LINE
8
0
6
CONTINUOUS
10
62.75
20
-27.5
11
43.75
21
-27.5
0
LINE
8
0
6
CONTINUOUS
10
43.75
20
-27.5
11
43.75
21
-8.5
0
LINE
8
0
6
CONTINUOUS
10
62.75
20
-8.5
11
81.75
21
-8.5
0
LINE
8
0
6
CONTINUOUS
10
81.75
20
-8.5
11
81.75
21
-27.5
0
LINE
8
0
6
CONTINUOUS
10
81.75
20
-27.5
11
62.75
21
-27.5
0
LINE
8
0
6
CONTINUOUS
10
62.75
20
-27.5
11
62.75
21
-8.5
0
LINE
8
0
6
CONTINUOUS
10
81.75
20
-8.5
11
100.75
21
-8.5
0
LINE
8
0
6
CONTINUOUS
10
100.75
20
-8.5
11
100.75
21
-27.5
0
LINE
8
0
6
CONTINUOUS
10
100.75
20
-27.5
11
81.75
21
-27.5
0
LINE
8
0
6
CONTINUOUS
10
81.75
20
-27.5
11
81.75
21
-8.5
0
LINE
8
0
6
CONTINUOUS
10
100.75
20
-8.5
11
119.75
21
-8.5
0
LINE
8
0
6
CONTINUOUS
10
119.75
20
-8.5
11
119.75
21
-27.5
0
LINE
8
0
6
CONTINUOUS
10
119.75
20
-27.5
11
100.75
21
-27.5
0
LINE
8
0
6
CONTINUOUS
10
100.75
20
-27.5
11
100.75
21
-8.5
0
LINE
8
0
6
CONTINUOUS
10
0.905
20
-27.5
11
34.155
21
-27.5
0
LINE
8
0
6
CONTINUOUS
10
34.155
20
-27.5
11
34.155
21
-46.5
0
LINE
8
0
6
CONTINUOUS
10
34.155
20
-46.5
11
0.905
21
-46.5
0
LINE
8
0
6
CONTINUOUS
10
0.905
20
-46.5
11
0.905
21
-27.5
0
LINE
8
0
6
CONTINUOUS
10
34.25
20
-27.5
11
53.25
21
-27.5
0
LINE
8
0
6
CONTINUOUS
10
53.25
20
-27.5
11
53.25
21
-46.5
0
LINE
8
0
6
CONTINUOUS
10
53.25
20
-46.5
11
34.25
21
-46.5
0
LINE
8
0
6
CONTINUOUS
10
34.25
20
-46.5
11
34.25
21
-27.5
0
LINE
8
0
6
CONTINUOUS
10
53.25
20
-27.5
11
72.25
21
-27.5
0
LINE
8
0
6
CONTINUOUS
10
72.25
20
-27.5
11
72.25
21
-46.5
0
LINE
8
0
6
CONTINUOUS
10
72.25
20
-46.5
11
53.25
21
-46.5
0
LINE
8
0
6
CONTINUOUS
10
53.25
20
-46.5
11
53.25
21
-27.5
0
LINE
8
0
6
CONTINUOUS
10
72.25
20
-27.5
11
91.25
21
-27.5
0
LINE
8
0
6
CONTINUOUS
10
91.25
20
-27.5
11
91.25
21
-46.5
0
LINE
8
0
6
CONTINUOUS
10
91.25
20
-46.5
11
72.25
21
-46.5
0
LINE
8
0
6
CONTINUOUS
10
72.25
20
-46.5
11
72.25
21
-27.5
0
LINE
8
0
6
CONTINUOUS
10
91.25
20
-27.5
11
110.25
21
-27.5
0
LINE
8
0
6
CONTINUOUS
10
110.25
20
-27.5
11
110.25
21
-46.5
0
LINE
8
0
6
CONTINUOUS
10
110.25
20
-46.5
11
91.25
21
-46.5
0
LINE
8
0
6
CONTINUOUS
10
91.25
20
-46.5
11
91.25
21
-27.5
0
LINE
8
0
6
CONTINUOUS
10
110.25
20
-27.5
11
129.25
21
-27.5
0
LINE
8
0
6
CONTINUOUS
10
129.25
20
-27.5
11
129.25
21
-46.5
0
LINE
8
0
6
CONTINUOUS
10
129.25
20
-46.5
11
110.25
21
-46.5
0
LINE
8
0
6
CONTINUOUS
10
110.25
20
-46.5
11
110.25
21
-27.5
0
LINE
8
0
6
CONTINUOUS
10
0.905
20
-46.5
11
24.655
21
-46.5
0
LINE
8
0
6
CONTINUOUS
10
24.655
20
-46.5
11
24.655
21
-65.5
0
LINE
8
0
6
CONTINUOUS
10
24.655
20
-65.5
11
0.905
21
-65.5
0
LINE
8
0
6
CONTINUOUS
10
0.905
20
-65.5
11
0.905
21
-46.5
0
LINE
8
0
6
CONTINUOUS
10
24.655
20
-46.5
11
48.405
21
-46.5
0
LINE
8
0
6
CONTINUOUS
10
48.405
20
-46.5
11
48.405
21
-65.5
0
LINE
8
0
6
CONTINUOUS
10
48.405
20
-65.5
11
24.655
21
-65.5
0
LINE
8
0
6
CONTINUOUS
10
24.655
20
-65.5
11
24.655
21
-46.5
0
LINE
8
0
6
CONTINUOUS
10
102.9285703
20
-47.4130528
11
121.7869472
21
-49.7285703
0
LINE
8
0
6
CONTINUOUS
10
121.7869472
20
-49.7285703
11
119.4714297
21
-68.5869472
0
LINE
8
0
6
CONTINUOUS
10
119.4714297
20
-68.5869472
11
100.6130528
21
-66.2714297
0
LINE
8
0
6
CONTINUOUS
10
100.6130528
20
-66.2714297
11
102.9285703
21
-47.4130528
0
LINE
8
0
6
CONTINUOUS
10
121.1177587
20
-67.390862
11
135.3677587
21
-42.709138
0
LINE
8
0
6
CONTINUOUS
10
135.3677587
20
-42.709138
11
151.8222413
21
-52.209138
0
LINE
8
0
6
CONTINUOUS
10
151.8222413
20
-52.209138
11
137.5722413
21
-76.890862
0
LINE
8
0
6
CONTINUOUS
10
137.5722413
20
-76.890862
11
121.1177587
21
-67.390862
0
LINE
8
0
6
CONTINUOUS
10
191.5
20
10.5
11
210.5
21
10.5
0
LINE
8
0
6
CONTINUOUS
10
210.5
20
10.5
11
210.5
21
-8.5
0
LINE
8
0
6
CONTINUOUS
10
210.5
20
-8.5
11
191.5
21
-8.5
0
LINE
8
0
6
CONTINUOUS
10
191.5
20
-8.5
11
191.5
21
10.5
0
LINE
8
0
6
CONTINUOUS
10
210.5
20
10.5
11
229.5
21
10.5
0
LINE
8
0
6
CONTINUOUS
10
229.5
20
10.5
11
229.5
21
-8.5
0
LINE
8
0
6
CONTINUOUS
10
229.5
20
-8.5
11
210.5
21
-8.5
0
LINE
8
0
6
CONTINUOUS
10
210.5
20
-8.5
11
210.5
21
10.5
0
LINE
8
0
6
CONTINUOUS
10
229.5
20
10.5
11
248.5
21
10.5
0
LINE
8
0
6
CONTINUOUS
10
248.5
20
10.5
11
248.5
21
-8.5
0
LINE
8
0
6
CONTINUOUS
10
248.5
20
-8.5
11
229.5
21
-8.5
0
LINE
8
0
6
CONTINUOUS
10
229.5
20
-8.5
11
229.5
21
10.5
0
LINE
8
0
6
CONTINUOUS
10
248.5
20
10.5
11
267.5
21
10.5
0
LINE
8
0
6
CONTINUOUS
10
267.5
20
10.5
11
267.5
21
-8.5
0
LINE
8
0
6
CONTINUOUS
10
267.5
20
-8.5
11
248.5
21
-8.5
0
LINE
8
0
6
CONTINUOUS
10
248.5
20
-8.5
11
248.5
21
10.5
0
LINE
8
0
6
CONTINUOUS
10
267.5
20
10.5
11
286.5
21
10.5
0
LINE
8
0
6
CONTINUOUS
10
286.5
20
10.5
11
286.5
21
-8.5
0
LINE
8
0
6
CONTINUOUS
10
286.5
20
-8.5
11
267.5
21
-8.5
0
LINE
8
0
6
CONTINUOUS
10
267.5
20
-8.5
11
267.5
21
10.5
0
LINE
8
0
6
CONTINUOUS
10
286.5
20
10.5
11
305.5
21
10.5
0
LINE
8
0
6
CONTINUOUS
10
305.5
20
10.5
11
305.5
21
-8.5
0
LINE
8
0
6
CONTINUOUS
10
305.5
20
-8.5
11
286.5
21
-8.5
0
LINE
8
0
6
CONTINUOUS
10
286.5
20
-8.5
11
286.5
21
10.5
0
LINE
8
0
6
CONTINUOUS
10
198.53
20
-8.5
11
217.53
21
-8.5
0
LINE
8
0
6
CONTINUOUS
10
217.53
20
-8.5
11
217.53
21
-27.5
0
LINE
8
0
6
CONTINUOUS
10
217.53
20
-27.5
11
198.53
21
-27.5
0
LINE
8
0
6
CONTINUOUS
10
198.53
20
-27.5
11
198.53
21
-8.5
0
LINE
8
0
6
CONTINUOUS
10
217.53
20
-8.5
11
236.53
21
-8.5
0
LINE
8
0
6
CONTINUOUS
10
236.53
20
-8.5
11
236.53
21
-27.5
0
LINE
8
0
6
CONTINUOUS
10
236.53
20
-27.5
11
217.53
21
-27.5
0
LINE
8
0
6
CONTINUOUS
10
217.53
20
-27.5
11
217.53
21
-8.5
0
LINE
8
0
6
CONTINUOUS
10
236.53
20
-8.5
11
255.53
21
-8.5
0
LINE
8
0
6
CONTINUOUS
10
255.53
20
-8.5
11
255.53
21
-27.5
0
LINE
8
0
6
CONTINUOUS
10
255.53
20
-27.5
11
236.53
21
-27.5
0
LINE
8
0
6
CONTINUOUS
10
236.53
20
-27.5
11
236.53
21
-8.5
0
LINE
8
0
6
CONTINUOUS
10
255.53
20
-8.5
11
274.53
21
-8.5
0
LINE
8
0
6
CONTINUOUS
10
274.53
20
-8.5
11
274.53
21
-27.5
0
LINE
8
0
6
CONTINUOUS
10
274.53
20
-27.5
11
255.53
21
-27.5
0
LINE
8
0
6
CONTINUOUS
10
255.53
20
-27.5
11
255.53
21
-8.5
0
LINE
8
0
6
CONTINUOUS
10
274.53
20
-8.5
11
293.53
21
-8.5
0
LINE
8
0
6
CONTINUOUS
10
293.53
20
-8.5
11
293.53
21
-27.5
0
LINE
8
0
6
CONTINUOUS
10
293.53
20
-27.5
11
274.53
21
-27.5
0
LINE
8
0
6
CONTINUOUS
10
274.53
20
-27.5
11
274.53
21
-8.5
0
LINE
8
0
6
CONTINUOUS
10
188.5
20
-27.5
11
207.5
21
-27.5
0
LINE
8
0
6
CONTINUOUS
10
207.5
20
-27.5
11
207.5
21
-46.5
0
LINE
8
0
6
CONTINUOUS
10
207.5
20
-46.5
11
188.5
21
-46.5
0
LINE
8
0
6
CONTINUOUS
10
188.5
20
-46.5
11
188.5
21
-27.5
0
LINE
8
0
6
CONTINUOUS
10
207.5
20
-27.5
11
226.5
21
-27.5
0
LINE
8
0
6
CONTINUOUS
10
226.5
20
-27.5
11
226.5
21
-46.5
0
LINE
8
0
6
CONTINUOUS
10
226.5
20
-46.5
11
207.5
21
-46.5
0
LINE
8
0
6
CONTINUOUS
10
207.5
20
-46.5
11
207.5
21
-27.5
0
LINE
8
0
6
CONTINUOUS
10
226.5
20
-27.5
11
245.5
21
-27.5
0
LINE
8
0
6
CONTINUOUS
10
245.5
20
-27.5
11
245.5
21
-46.5
0
LINE
8
0
6
CONTINUOUS
10
245.5
20
-46.5
11
226.5
21
-46.5
0
LINE
8
0
6
CONTINUOUS
10
226.5
20
-46.5
11
226.5
21
-27.5
0
LINE
8
0
6
CONTINUOUS
10
245.5
20
-27.5
11
264.5
21
-27.5
0
LINE
8
0
6
CONTINUOUS
10
264.5
20
-27.5
11
264.5
21
-46.5
0
LINE
8
0
6
CONTINUOUS
10
264.5
20
-46.5
11
245.5
21
-46.5
0
LINE
8
0
6
CONTINUOUS
10
245.5
20
-46.5
11
245.5
21
-27.5
0
LINE
8
0
6
CONTINUOUS
10
264.5
20
-27.5
11
283.5
21
-27.5
0
LINE
8
0
6
CONTINUOUS
10
283.5
20
-27.5
11
283.5
21
-46.5
0
LINE
8
0
6
CONTINUOUS
10
283.5
20
-46.5
11
264.5
21
-46.5
0
LINE
8
0
6
CONTINUOUS
10
264.5
20
-46.5
11
264.5
21
-27.5
0
LINE
8
0
6
CONTINUOUS
10
283.5
20
-27.5
11
302.5
21
-27.5
0
LINE
8
0
6
CONTINUOUS
10
302.5
20
-27.5
11
302.5
21
-46.5
0
LINE
8
0
6
CONTINUOUS
10
302.5
20
-46.5
11
283.5
21
-46.5
0
LINE
8
0
6
CONTINUOUS
10
283.5
20
-46.5
11
283.5
21
-27.5
0
LINE
8
0
6
CONTINUOUS
10
245.5
20
-46.5
11
264.5
21
-46.5
0
LINE
8
0
6
CONTINUOUS
10
264.5
20
-46.5
11
264.5
21
-65.5
0
LINE
8
0
6
CONTINUOUS
10
264.5
20
-65.5
11
245.5
21
-65.5
0
LINE
8
0
6
CONTINUOUS
10
245.5
20
-65.5
11
245.5
21
-46.5
0
LINE
8
0
6
CONTINUOUS
10
264.500001
20
-46.5
11
283.500001
21
-46.5
0
LINE
8
0
6
CONTINUOUS
10
283.500001
20
-46.5
11
283.500001
21
-65.5
0
LINE
8
0
6
CONTINUOUS
10
283.500001
20
-65.5
11
264.500001
21
-65.5
0
LINE
8
0
6
CONTINUOUS
10
264.500001
20
-65.5
11
264.500001
21
-46.5
0
LINE
8
0
6
CONTINUOUS
10
283.5
20
-46.5
11
302.5
21
-46.5
0
LINE
8
0
6
CONTINUOUS
10
302.5
20
-46.5
11
302.5
21
-65.5
0
LINE
8
0
6
CONTINUOUS
10
302.5
20
-65.5
11
283.5
21
-65.5
0
LINE
8
0
6
CONTINUOUS
10
283.5
20
-65.5
11
283.5
21
-46.5
0
LINE
8
0
6
CONTINUOUS
10
181.6022413
20
-42.709138
11
195.8522413
21
-67.390862
0
LINE
8
0
6
CONTINUOUS
10
195.8522413
20
-67.390862
11
179.3977587
21
-76.890862
0
LINE
8
0
6
CONTINUOUS
10
179.3977587
20
-76.890862
11
165.1477587
21
-52.209138
0
LINE
8
0
6
CONTINUOUS
10
165.1477587
20
-52.209138
11
181.6022413
21
-42.709138
0
LINE
8
0
6
CONTINUOUS
10
197.5130528
20
-49.7285703
11
216.3714297
21
-47.4130528
0
LINE
8
0
6
CONTINUOUS
10
216.3714297
20
-47.4130528
11
218.6869472
21
-66.2714297
0
LINE
8
0
6
CONTINUOUS
10
218.6869472
20
-66.2714297
11
199.8285703
21
-68.5869472
0
LINE
8
0
6
CONTINUOUS
10
199.8285703
20
-68.5869472
11
197.5130528
21
-49.7285703
0
ENDSEC
0
EOF