0
SECTION
2
HEADER
9
$INSUNITS
70
4
0
ENDSEC
0
SECTION
2
TABLES
0
TABLE
2
LTYPE
0
LTYPE
72
65
70
0
2
CONTINUOUS
3
______
73
0
40
0
0
LTYPE
72
65
70
0
2
DASHED
3
_ _ _ 
73
2
40
7.5
49
5
49
-2.5
0
LTYPE
72
65
70
0
2
DOTTED
3
. . . 
73
2
40
1.5
49
0.5
49
-1
0
ENDTAB
0
TABLE
2
LAYER
0
ENDTAB
0
ENDSEC
0
SECTION
2
ENTITIES
0
LINE
8
0
6
CONTINUOUS
10
-9.5
20
9.5
11
19
21
9.5
0
LINE
8
0
6
CONTINUOUS
10
19
20
9.5
11
19
21
-9.5
0
LINE
8
0
6
CONTINUOUS
10
19
20
-9.5
11
-9.5
21
-9.5
0
LINE
8
0
6
CONTINUOUS
10
-9.5
20
-9.5
11
-9.5
21
9.5
0
LINE
8
0
6
CONTINUOUS
10
19
20
9.5
11
38
21
9.5
0
LINE
8
0
6
CONTINUOUS
10
38
20
9.5
11
38
21
-9.5
0
LINE
8
0
6
CONTINUOUS
10
38
20
-9.5
11
19
21
-9.5
0
LINE
8
0
6
CONTINUOUS
10
19
20
-9.5
11
19
21
9.5
0
LINE
8
0
6
CONTINUOUS
10
38
20
9.5
11
57
21
9.5
0
LINE
8
0
6
CONTINUOUS
10
57
20
9.5
11
57
21
-9.5
0
LINE
8
0
6
CONTINUOUS
10
57
20
-9.5
11
38
21
-9.5
0
LINE
8
0
6
CONTINUOUS
10
38
20
-9.5
11
38
21
9.5
0
LINE
8
0
6
CONTINUOUS
10
57
20
9.5
11
76
21
9.5
0
LINE
8
0
6
CONTINUOUS
10
76
20
9.5
11
76
21
-9.5
0
LINE
8
0
6
CONTINUOUS
10
76
20
-9.5
11
57
21
-9.5
0
LINE
8
0
6
CONTINUOUS
10
57
20
-9.5
11
57
21
9.5
0
LINE
8
0
6
CONTINUOUS
10
76
20
9.5
11
95
21
9.5
0
LINE
8
0
6
CONTINUOUS
10
95
20
9.5
11
95
21
-9.5
0
LINE
8
0
6
CONTINUOUS
10
95
20
-9.5
11
76
21
-9.5
0
LINE
8
0
6
CONTINUOUS
10
76
20
-9.5
11
76
21
9.5
0
LINE
8
0
6
CONTINUOUS
10
95
20
9.5
11
114
21
9.5
0
LINE
8
0
6
CONTINUOUS
10
114
20
9.5
11
114
21
-9.5
0
LINE
8
0
6
CONTINUOUS
10
114
20
-9.5
11
95
21
-9.5
0
LINE
8
0
6
CONTINUOUS
10
95
20
-9.5
11
95
21
9.5
0
LINE
8
0
6
CONTINUOUS
10
-9.5
20
-9.5
11
23.75
21
-9.5
0
LINE
8
0
6
CONTINUOUS
10
23.75
20
-9.5
11
23.75
21
-28.5
0
LINE
8
0
6
CONTINUOUS
10
23.75
20
-28.5
11
-9.5
21
-28.5
0
LINE
8
0
6
CONTINUOUS
10
-9.5
20
-28.5
11
-9.5
21
-9.5
0
LINE
8
0
6
CONTINUOUS
10
23.75
20
-9.5
11
42.75
21
-9.5
0
LINE
8
0
6
CONTINUOUS
10
42.75
20
-9.5
11
42.75
21
-28.5
0
LINE
8
0
6
CONTINUOUS
10
42.75
20
-28.5
11
23.75
21
-28.5
0
LINE
8
0
6
CONTINUOUS
10
23.75
20
-28.5
11
23.75
21
-9.5
0
LINE
8
0
6
CONTINUOUS
10
42.75
20
-9.5
11
61.75
21
-9.5
0
LINE
8
0
6
CONTINUOUS
10
61.75
20
-9.5
11
61.75
21
-28.5
0
LINE
8
0
6
CONTINUOUS
10
61.75
20
-28.5
11
42.75
21
-28.5
0
LINE
8
0
6
CONTINUOUS
10
42.75
20
-28.5
11
42.75
21
-9.5
0
LINE
8
0
6
CONTINUOUS
10
61.75
20
-9.5
11
80.75
21
-9.5
0
LINE
8
0
6
CONTINUOUS
10
80.75
20
-9.5
11
80.75
21
-28.5
0
LINE
8
0
6
CONTINUOUS
10
80.75
20
-28.5
11
61.75
21
-28.5
0
LINE
8
0
6
CONTINUOUS
10
61.75
20
-28.5
11
61.75
21
-9.5
0
LINE
8
0
6
CONTINUOUS
10
80.75
20
-9.5
11
99.75
21
-9.5
0
LINE
8
0
6
CONTINUOUS
10
99.75
20
-9.5
11
99.75
21
-28.5
0
LINE
8
0
6
CONTINUOUS
10
99.75
20
-28.5
11
80.75
21
-28.5
0
LINE
8
0
6
CONTINUOUS
10
80.75
20
-28.5
11
80.75
21
-9.5
0
LINE
8
0
6
CONTINUOUS
10
99.75
20
-9.5
11
118.75
21
-9.5
0
LINE
8
0
6
CONTINUOUS
10
118.75
20
-9.5
11
118.75
21
-28.5
0
LINE
8
0
6
CONTINUOUS
10
118.75
20
-28.5
11
99.75
21
-28.5
0
LINE
8
0
6
CONTINUOUS
10
99.75
20
-28.5
11
99.75
21
-9.5
0
LINE
8
0
6
CONTINUOUS
10
-9.5
20
-28.5
11
33.25
21
-28.5
0
LINE
8
0
6
CONTINUOUS
10
33.25
20
-28.5
11
33.25
21
-47.5
0
LINE
8
0
6
CONTINUOUS
10
33.25
20
-47.5
11
-9.5
21
-47.5
0
LINE
8
0
6
CONTINUOUS
10
-9.5
20
-47.5
11
-9.5
21
-28.5
0
LINE
8
0
6
CONTINUOUS
10
33.25
20
-28.5
11
52.25
21
-28.5
0
LINE
8
0
6
CONTINUOUS
10
52.25
20
-28.5
11
52.25
21
-47.5
0
LINE
8
0
6
CONTINUOUS
10
52.25
20
-47.5
11
33.25
21
-47.5
0
LINE
8
0
6
CONTINUOUS
10
33.25
20
-47.5
11
33.25
21
-28.5
0
LINE
8
0
6
CONTINUOUS
10
52.25
20
-28.5
11
71.25
21
-28.5
0
LINE
8
0
6
CONTINUOUS
10
71.25
20
-28.5
11
71.25
21
-47.5
0
LINE
8
0
6
CONTINUOUS
10
71.25
20
-47.5
11
52.25
21
-47.5
0
LINE
8
0
6
CONTINUOUS
10
52.25
20
-47.5
11
52.25
21
-28.5
0
LINE
8
0
6
CONTINUOUS
10
71.25
20
-28.5
11
90.25
21
-28.5
0
LINE
8
0
6
CONTINUOUS
10
90.25
20
-28.5
11
90.25
21
-47.5
0
LINE
8
0
6
CONTINUOUS
10
90.25
20
-47.5
11
71.25
21
-47.5
0
LINE
8
0
6
CONTINUOUS
10
71.25
20
-47.5
11
71.25
21
-28.5
0
LINE
8
0
6
CONTINUOUS
10
90.25
20
-28.5
11
109.25
21
-28.5
0
LINE
8
0
6
CONTINUOUS
10
109.25
20
-28.5
11
109.25
21
-47.5
0
LINE
8
0
6
CONTINUOUS
10
109.25
20
-47.5
11
90.25
21
-47.5
0
LINE
8
0
6
CONTINUOUS
10
90.25
20
-47.5
11
90.25
21
-28.5
0
LINE
8
0
6
CONTINUOUS
10
109.25
20
-28.5
11
128.25
21
-28.5
0
LINE
8
0
6
CONTINUOUS
10
128.25
20
-28.5
11
128.25
21
-47.5
0
LINE
8
0
6
CONTINUOUS
10
128.25
20
-47.5
11
109.25
21
-47.5
0
LINE
8
0
6
CONTINUOUS
10
109.25
20
-47.5
11
109.25
21
-28.5
0
LINE
8
0
6
CONTINUOUS
10
-9.5
20
-47.5
11
14.25
21
-47.5
0
LINE
8
0
6
CONTINUOUS
10
14.25
20
-47.5
11
14.25
21
-66.5
0
LINE
8
0
6
CONTINUOUS
10
14.25
20
-66.5
11
-9.5
21
-66.5
0
LINE
8
0
6
CONTINUOUS
10
-9.5
20
-66.5
11
-9.5
21
-47.5
0
LINE
8
0
6
CONTINUOUS
10
14.25
20
-47.5
11
38
21
-47.5
0
LINE
8
0
6
CONTINUOUS
10
38
20
-47.5
11
38
21
-66.5
0
LINE
8
0
6
CONTINUOUS
10
38
20
-66.5
11
14.25
21
-66.5
0
LINE
8
0
6
CONTINUOUS
10
14.25
20
-66.5
11
14.25
21
-47.5
0
LINE
8
0
6
CONTINUOUS
10
38
20
-47.5
11
61.75
21
-47.5
0
LINE
8
0
6
CONTINUOUS
10
61.75
20
-47.5
11
61.75
21
-66.5
0
LINE
8
0
6
CONTINUOUS
10
61.75
20
-66.5
11
38
21
-66.5
0
LINE
8
0
6
CONTINUOUS
10
38
20
-66.5
11
38
21
-47.5
0
LINE
8
0
6
CONTINUOUS
10
80.75
20
-47.5
11
109.25
21
-47.5
0
LINE
8
0
6
CONTINUOUS
10
109.25
20
-47.5
11
109.25
21
-66.5
0
LINE
8
0
6
CONTINUOUS
10
109.25
20
-66.5
11
80.75
21
-66.5
0
LINE
8
0
6
CONTINUOUS
10
80.75
20
-66.5
11
80.75
21
-47.5
0
LINE
8
0
6
CONTINUOUS
10
290
20
9.5
11
318.5
21
9.5
0
LINE
8
0
6
CONTINUOUS
10
318.5
20
9.5
11
318.5
21
-9.5
0
LINE
8
0
6
CONTINUOUS
10
318.5
20
-9.5
11
290
21
-9.5
0
LINE
8
0
6
CONTINUOUS
10
290
20
-9.5
11
290
21
9.5
0
LINE
8
0
6
CONTINUOUS
10
271
20
9.5
11
290
21
9.5
0
LINE
8
0
6
CONTINUOUS
10
290
20
9.5
11
290
21
-9.5
0
LINE
8
0
6
CONTINUOUS
10
290
20
-9.5
11
271
21
-9.5
0
LINE
8
0
6
CONTINUOUS
10
271
20
-9.5
11
271
21
9.5
0
LINE
8
0
6
CONTINUOUS
10
252
20
9.5
11
271
21
9.5
0
LINE
8
0
6
CONTINUOUS
10
271
20
9.5
11
271
21
-9.5
0
LINE
8
0
6
CONTINUOUS
10
271
20
-9.5
11
252
21
-9.5
0
LINE
8
0
6
CONTINUOUS
10
252
20
-9.5
11
252
21
9.5
0
LINE
8
0
6
CONTINUOUS
10
233
20
9.5
11
252
21
9.5
0
LINE
8
0
6
CONTINUOUS
10
252
20
9.5
11
252
21
-9.5
0
LINE
8
0
6
CONTINUOUS
10
252
20
-9.5
11
233
21
-9.5
0
LINE
8
0
6
CONTINUOUS
10
233
20
-9.5
11
233
21
9.5
0
LINE
8
0
6
CONTINUOUS
10
214
20
9.5
11
233
21
9.5
0
LINE
8
0
6
CONTINUOUS
10
233
20
9.5
11
233
21
-9.5
0
LINE
8
0
6
CONTINUOUS
10
233
20
-9.5
11
214
21
-9.5
0
LINE
8
0
6
CONTINUOUS
10
214
20
-9.5
11
214
21
9.5
0
LINE
8
0
6
CONTINUOUS
10
195
20
9.5
11
214
21
9.5
0
LINE
8
0
6
CONTINUOUS
10
214
20
9.5
11
214
21
-9.5
0
LINE
8
0
6
CONTINUOUS
10
214
20
-9.5
11
195
21
-9.5
0
LINE
8
0
6
CONTINUOUS
10
195
20
-9.5
11
195
21
9.5
0
LINE
8
0
6
CONTINUOUS
10
285.25
20
-9.5
11
318.5
21
-9.5
0
LINE
8
0
6
CONTINUOUS
10
318.5
20
-9.5
11
318.5
21
-28.5
0
LINE
8
0
6
CONTINUOUS
10
318.5
20
-28.5
11
285.25
21
-28.5
0
LINE
8
0
6
CONTINUOUS
10
285.25
20
-28.5
11
285.25
21
-9.5
0
LINE
8
0
6
CONTINUOUS
10
266.25
20
-9.5
11
285.25
21
-9.5
0
LINE
8
0
6
CONTINUOUS
10
285.25
20
-9.5
11
285.25
21
-28.5
0
LINE
8
0
6
CONTINUOUS
10
285.25
20
-28.5
11
266.25
21
-28.5
0
LINE
8
0
6
CONTINUOUS
10
266.25
20
-28.5
11
266.25
21
-9.5
0
LINE
8
0
6
CONTINUOUS
10
247.25
20
-9.5
11
266.25
21
-9.5
0
LINE
8
0
6
CONTINUOUS
10
266.25
20
-9.5
11
266.25
21
-28.5
0
LINE
8
0
6
CONTINUOUS
10
266.25
20
-28.5
11
247.25
21
-28.5
0
LINE
8
0
6
CONTINUOUS
10
247.25
20
-28.5
11
247.25
21
-9.5
0
LINE
8
0
6
CONTINUOUS
10
228.25
20
-9.5
11
247.25
21
-9.5
0
LINE
8
0
6
CONTINUOUS
10
247.25
20
-9.5
11
247.25
21
-28.5
0
LINE
8
0
6
CONTINUOUS
10
247.25
20
-28.5
11
228.25
21
-28.5
0
LINE
8
0
6
CONTINUOUS
10
228.25
20
-28.5
11
228.25
21
-9.5
0
LINE
8
0
6
CONTINUOUS
10
209.25
20
-9.5
11
228.25
21
-9.5
0
LINE
8
0
6
CONTINUOUS
10
228.25
20
-9.5
11
228.25
21
-28.5
0
LINE
8
0
6
CONTINUOUS
10
228.25
20
-28.5
11
209.25
21
-28.5
0
LINE
8
0
6
CONTINUOUS
10
209.25
20
-28.5
11
209.25
21
-9.5
0
LINE
8
0
6
CONTINUOUS
10
190.25
20
-9.5
11
209.25
21
-9.5
0
LINE
8
0
6
CONTINUOUS
10
209.25
20
-9.5
11
209.25
21
-28.5
0
LINE
8
0
6
CONTINUOUS
10
209.25
20
-28.5
11
190.25
21
-28.5
0
LINE
8
0
6
CONTINUOUS
10
190.25
20
-28.5
11
190.25
21
-9.5
0
LINE
8
0
6
CONTINUOUS
10
275.75
20
-28.5
11
318.5
21
-28.5
0
LINE
8
0
6
CONTINUOUS
10
318.5
20
-28.5
11
318.5
21
-47.5
0
LINE
8
0
6
CONTINUOUS
10
318.5
20
-47.5
11
275.75
21
-47.5
0
LINE
8
0
6
CONTINUOUS
10
275.75
20
-47.5
11
275.75
21
-28.5
0
LINE
8
0
6
CONTINUOUS
10
256.75
20
-28.5
11
275.75
21
-28.5
0
LINE
8
0
6
CONTINUOUS
10
275.75
20
-28.5
11
275.75
21
-47.5
0
LINE
8
0
6
CONTINUOUS
10
275.75
20
-47.5
11
256.75
21
-47.5
0
LINE
8
0
6
CONTINUOUS
10
256.75
20
-47.5
11
256.75
21
-28.5
0
LINE
8
0
6
CONTINUOUS
10
237.75
20
-28.5
11
256.75
21
-28.5
0
LINE
8
0
6
CONTINUOUS
10
256.75
20
-28.5
11
256.75
21
-47.5
0
LINE
8
0
6
CONTINUOUS
10
256.75
20
-47.5
11
237.75
21
-47.5
0
LINE
8
0
6
CONTINUOUS
10
237.75
20
-47.5
11
237.75
21
-28.5
0
LINE
8
0
6
CONTINUOUS
10
218.75
20
-28.5
11
237.75
21
-28.5
0
LINE
8
0
6
CONTINUOUS
10
237.75
20
-28.5
11
237.75
21
-47.5
0
LINE
8
0
6
CONTINUOUS
10
237.75
20
-47.5
11
218.75
21
-47.5
0
LINE
8
0
6
CONTINUOUS
10
218.75
20
-47.5
11
218.75
21
-28.5
0
LINE
8
0
6
CONTINUOUS
10
199.75
20
-28.5
11
218.75
21
-28.5
0
LINE
8
0
6
CONTINUOUS
10
218.75
20
-28.5
11
218.75
21
-47.5
0
LINE
8
0
6
CONTINUOUS
10
218.75
20
-47.5
11
199.75
21
-47.5
0
LINE
8
0
6
CONTINUOUS
10
199.75
20
-47.5
11
199.75
21
-28.5
0
LINE
8
0
6
CONTINUOUS
10
180.75
20
-28.5
11
199.75
21
-28.5
0
LINE
8
0
6
CONTINUOUS
10
199.75
20
-28.5
11
199.75
21
-47.5
0
LINE
8
0
6
CONTINUOUS
10
199.75
20
-47.5
11
180.75
21
-47.5
0
LINE
8
0
6
CONTINUOUS
10
180.75
20
-47.5
11
180.75
21
-28.5
0
LINE
8
0
6
CONTINUOUS
10
294.75
20
-47.5
11
318.5
21
-47.5
0
LINE
8
0
6
CONTINUOUS
10
318.5
20
-47.5
11
318.5
21
-66.5
0
LINE
8
0
6
CONTINUOUS
10
318.5
20
-66.5
11
294.75
21
-66.5
0
LINE
8
0
6
CONTINUOUS
10
294.75
20
-66.5
11
294.75
21
-47.5
0
LINE
8
0
6
CONTINUOUS
10
271
20
-47.5
11
294.75
21
-47.5
0
LINE
8
0
6
CONTINUOUS
10
294.75
20
-47.5
11
294.75
21
-66.5
0
LINE
8
0
6
CONTINUOUS
10
294.75
20
-66.5
11
271
21
-66.5
0
LINE
8
0
6
CONTINUOUS
10
271
20
-66.5
11
271
21
-47.5
0
LINE
8
0
6
CONTINUOUS
10
247.25
20
-47.5
11
271
21
-47.5
0
LINE
8
0
6
CONTINUOUS
10
271
20
-47.5
11
271
21
-66.5
0
LINE
8
0
6
CONTINUOUS
10
271
20
-66.5
11
247.25
21
-66.5
0
LINE
8
0
6
CONTINUOUS
10
247.25
20
-66.5
11
247.25
21
-47.5
0
LINE
8
0
6
CONTINUOUS
10
199.75
20
-47.5
11
228.25
21
-47.5
0
LINE
8
0
6
CONTINUOUS
10
228.25
20
-47.5
11
228.25
21
-66.5
0
LINE
8
0
6
CONTINUOUS
10
228.25
20
-66.5
11
199.75
21
-66.5
0
LINE
8
0
6
CONTINUOUS
10
199.75
20
-66.5
11
199.75
21
-47.5
0
ENDSEC
0
EOF