<svg width="314mm" height="76mm" viewBox="0 0 314 76" xmlns="http://www.w3.org/2000/svg"><g id="svgGroup" stroke-linecap="round" fill-rule="evenodd" font-size="9pt" stroke="#000" stroke-width="0.25mm" fill="none" style="stroke:#000;stroke-width:0.25mm;fill:none"><path d="M 0 38 L 42.75 38 L 42.75 57 L 0 57 L 0 38 Z M 0 19 L 33.25 19 L 33.25 38 L 0 38 L 0 19 Z M 0 0 L 28.5 0 L 28.5 19 L 0 19 L 0 0 Z M 118.75 57 L 90.25 57 L 90.25 76 L 118.75 76 L 118.75 57 Z M 254 57 L 273 57 L 292 57 L 292 38 L 273 38 L 273 57 Z M 292 57 L 273 57 L 311 57 L 311 38 L 292 38 L 292 57 Z M 292 57 L 273 57 L 273 76 L 254 76 L 254 57 L 273 57 M 216.25 57 L 244.75 57 L 244.75 76 L 216.25 76 L 216.25 57 Z M 0 57 L 23.75 57 L 23.75 76 L 0 76 L 0 57 Z M 23.75 57 L 47.5 57 L 47.5 76 L 23.75 76 L 23.75 57 Z M 47.5 57 L 71.25 57 L 71.25 76 L 47.5 76 L 47.5 57 Z M 28.5 0 L 47.5 0 L 47.5 19 L 28.5 19 L 28.5 0 Z M 47.5 0 L 66.5 0 L 66.5 19 L 47.5 19 L 47.5 0 Z M 66.5 0 L 85.5 0 L 85.5 19 L 66.5 19 L 66.5 0 Z M 85.5 0 L 104.5 0 L 104.5 19 L 85.5 19 L 85.5 0 Z M 104.5 0 L 123.5 0 L 123.5 19 L 104.5 19 L 104.5 0 Z M 33.25 19 L 52.25 19 L 52.25 38 L 33.25 38 L 33.25 19 Z M 52.25 19 L 71.25 19 L 71.25 38 L 52.25 38 L 52.25 19 Z M 71.25 19 L 90.25 19 L 90.25 38 L 71.25 38 L 71.25 19 Z M 90.25 19 L 109.25 19 L 109.25 38 L 90.25 38 L 90.25 19 Z M 109.25 19 L 128.25 19 L 128.25 38 L 109.25 38 L 109.25 19 Z M 42.75 38 L 61.75 38 L 61.75 57 L 42.75 57 L 42.75 38 Z M 61.75 38 L 80.75 38 L 80.75 57 L 61.75 57 L 61.75 38 Z M 80.75 38 L 99.75 38 L 99.75 57 L 80.75 57 L 80.75 38 Z M 99.75 38 L 118.75 38 L 118.75 57 L 99.75 57 L 99.75 38 Z M 118.75 38 L 137.75 38 L 137.75 57 L 118.75 57 L 118.75 38 Z M 200 0 L 219 0 L 219 19 L 200 19 L 200 0 Z M 219 0 L 238 0 L 238 19 L 219 19 L 219 0 Z M 238 0 L 257 0 L 257 19 L 238 19 L 238 0 Z M 257 0 L 276 0 L 276 19 L 257 19 L 257 0 Z M 276 0 L 295 0 L 295 19 L 276 19 L 276 0 Z M 295 0 L 314 0 L 314 19 L 295 19 L 295 0 Z M 207.03 19 L 226.03 19 L 226.03 38 L 207.03 38 L 207.03 19 Z M 226.03 19 L 245.03 19 L 245.03 38 L 226.03 38 L 226.03 19 Z M 245.03 19 L 264.03 19 L 264.03 38 L 245.03 38 L 245.03 19 Z M 264.03 19 L 283.03 19 L 283.03 38 L 264.03 38 L 264.03 19 Z M 283.03 19 L 302.03 19 L 302.03 38 L 283.03 38 L 283.03 19 Z M 197 38 L 216 38 L 216 57 L 197 57 L 197 38 Z M 216 38 L 235 38 L 235 57 L 216 57 L 216 38 Z M 235 38 L 254 38 L 254 57 L 235 57 L 235 38 Z M 254 38 L 273 38 L 273 57 L 254 57 L 254 38 Z M 292 57 L 311 57 L 311 76 L 292 76 L 292 57 Z M 311 76 L 292 76 L 292 57" vector-effect="non-scaling-stroke"/></g></svg>