0
SECTION
2
HEADER
9
$INSUNITS
70
4
0
ENDSEC
0
SECTION
2
TABLES
0
TABLE
2
LTYPE
0
LTYPE
72
65
70
0
2
CONTINUOUS
3
______
73
0
40
0
0
LTYPE
72
65
70
0
2
DASHED
3
_ _ _ 
73
2
40
7.5
49
5
49
-2.5
0
LTYPE
72
65
70
0
2
DOTTED
3
. . . 
73
2
40
1.5
49
0.5
49
-1
0
ENDTAB
0
TABLE
2
LAYER
0
ENDTAB
0
ENDSEC
0
SECTION
2
ENTITIES
0
LINE
8
0
6
CONTINUOUS
10
242.2928211
20
-89.5
11
101.9904
21
-89.5
0
LINE
8
0
6
CONTINUOUS
10
98.9904154
20
-92.4903847
11
98.7596462
21
-164.4903847
0
LINE
8
0
6
CONTINUOUS
10
101.7596308
20
-167.5
11
145.655
21
-167.5
0
LINE
8
0
6
CONTINUOUS
10
148.655
20
-164.5
11
148.655
21
-160.0425704
0
LINE
8
0
6
CONTINUOUS
10
151.6972685
20
-157.0428682
11
196.4354708
21
-157.673269
0
LINE
8
0
6
CONTINUOUS
10
199.3708408
20
-161.0385791
11
198.810195
21
-165.6046728
0
LINE
8
0
6
CONTINUOUS
10
200.9545226
20
-168.8522233
11
234.6814912
21
-178.604343
0
LINE
8
0
6
CONTINUOUS
10
238.1128783
20
-177.2224004
11
251.7863429
21
-153.539265
0
LINE
8
0
6
CONTINUOUS
10
252.1882667
20
-152.039265
11
252.1882667
21
-99.1215139
0
LINE
8
0
6
CONTINUOUS
10
251.2661702
20
-96.9576478
11
244.3707247
21
-90.3361338
0
ARC
8
0
6
CONTINUOUS
10
101.9904
20
-92.5
40
3
50
90
51
179.816361
0
ARC
8
0
6
CONTINUOUS
10
101.7596308
20
-164.5
40
3
50
179.816361
51
270
0
ARC
8
0
6
CONTINUOUS
10
145.655
20
-164.5
40
3
50
270
51
0
0
ARC
8
0
6
CONTINUOUS
10
151.655
20
-160.0425704
40
3
50
89.1927044
51
180
0
ARC
8
0
6
CONTINUOUS
10
196.3932023
20
-160.6729712
40
3
50
353.0000028
51
89.1927044
0
ARC
8
0
6
CONTINUOUS
10
201.7878335
20
-165.9702807
40
3
50
173.0000028
51
253.8728254
0
ARC
8
0
6
CONTINUOUS
10
235.5148021
20
-175.7224004
40
3
50
253.8728254
51
329.9999999
0
ARC
8
0
6
CONTINUOUS
10
249.1882667
20
-152.039265
40
3
50
329.9999999
51
0
0
ARC
8
0
6
CONTINUOUS
10
249.1882667
20
-99.1215139
40
3
50
0
51
46.1609825
0
ARC
8
0
6
CONTINUOUS
10
242.2928211
20
-92.5
40
3
50
46.1609825
51
90
0
LINE
8
0
6
CONTINUOUS
10
102.25
20
-109.25
11
116.75
21
-109.25
0
LINE
8
0
6
CONTINUOUS
10
118.75
20
-107.25
11
118.75
21
-92.75
0
LINE
8
0
6
CONTINUOUS
10
116.75
20
-90.75
11
102.25
21
-90.75
0
LINE
8
0
6
CONTINUOUS
10
100.25
20
-92.75
11
100.25
21
-107.25
0
LINE
8
0
6
CONTINUOUS
10
121.25
20
-109.25
11
135.75
21
-109.25
0
LINE
8
0
6
CONTINUOUS
10
137.75
20
-107.25
11
137.75
21
-92.75
0
LINE
8
0
6
CONTINUOUS
10
135.75
20
-90.75
11
121.25
21
-90.75
0
LINE
8
0
6
CONTINUOUS
10
119.25
20
-92.75
11
119.25
21
-107.25
0
LINE
8
0
6
CONTINUOUS
10
140.25
20
-109.25
11
154.75
21
-109.25
0
LINE
8
0
6
CONTINUOUS
10
156.75
20
-107.25
11
156.75
21
-92.75
0
LINE
8
0
6
CONTINUOUS
10
154.75
20
-90.75
11
140.25
21
-90.75
0
LINE
8
0
6
CONTINUOUS
10
138.25
20
-92.75
11
138.25
21
-107.25
0
LINE
8
0
6
CONTINUOUS
10
159.25
20
-109.25
11
173.75
21
-109.25
0
LINE
8
0
6
CONTINUOUS
10
175.75
20
-107.25
11
175.75
21
-92.75
0
LINE
8
0
6
CONTINUOUS
10
173.75
20
-90.75
11
159.25
21
-90.75
0
LINE
8
0
6
CONTINUOUS
10
157.25
20
-92.75
11
157.25
21
-107.25
0
LINE
8
0
6
CONTINUOUS
10
178.25
20
-109.25
11
192.75
21
-109.25
0
LINE
8
0
6
CONTINUOUS
10
194.75
20
-107.25
11
194.75
21
-92.75
0
LINE
8
0
6
CONTINUOUS
10
192.75
20
-90.75
11
178.25
21
-90.75
0
LINE
8
0
6
CONTINUOUS
10
176.25
20
-92.75
11
176.25
21
-107.25
0
LINE
8
0
6
CONTINUOUS
10
197.25
20
-109.25
11
211.75
21
-109.25
0
LINE
8
0
6
CONTINUOUS
10
213.75
20
-107.25
11
213.75
21
-92.75
0
LINE
8
0
6
CONTINUOUS
10
211.75
20
-90.75
11
197.25
21
-90.75
0
LINE
8
0
6
CONTINUOUS
10
195.25
20
-92.75
11
195.25
21
-107.25
0
LINE
8
0
6
CONTINUOUS
10
102.25
20
-128.25
11
121.5
21
-128.25
0
LINE
8
0
6
CONTINUOUS
10
102.25
20
-109.75
11
121.5
21
-109.75
0
LINE
8
0
6
CONTINUOUS
10
126
20
-128.25
11
140.5
21
-128.25
0
LINE
8
0
6
CONTINUOUS
10
142.5
20
-126.25
11
142.5
21
-111.75
0
LINE
8
0
6
CONTINUOUS
10
140.5
20
-109.75
11
126
21
-109.75
0
LINE
8
0
6
CONTINUOUS
10
124
20
-111.75
11
124
21
-126.25
0
LINE
8
0
6
CONTINUOUS
10
145
20
-128.25
11
159.5
21
-128.25
0
LINE
8
0
6
CONTINUOUS
10
161.5
20
-126.25
11
161.5
21
-111.75
0
LINE
8
0
6
CONTINUOUS
10
159.5
20
-109.75
11
145
21
-109.75
0
LINE
8
0
6
CONTINUOUS
10
143
20
-111.75
11
143
21
-126.25
0
LINE
8
0
6
CONTINUOUS
10
164
20
-128.25
11
178.5
21
-128.25
0
LINE
8
0
6
CONTINUOUS
10
180.5
20
-126.25
11
180.5
21
-111.75
0
LINE
8
0
6
CONTINUOUS
10
178.5
20
-109.75
11
164
21
-109.75
0
LINE
8
0
6
CONTINUOUS
10
162
20
-111.75
11
162
21
-126.25
0
LINE
8
0
6
CONTINUOUS
10
183
20
-128.25
11
197.5
21
-128.25
0
LINE
8
0
6
CONTINUOUS
10
199.5
20
-126.25
11
199.5
21
-111.75
0
LINE
8
0
6
CONTINUOUS
10
197.5
20
-109.75
11
183
21
-109.75
0
LINE
8
0
6
CONTINUOUS
10
181
20
-111.75
11
181
21
-126.25
0
LINE
8
0
6
CONTINUOUS
10
202
20
-128.25
11
216.5
21
-128.25
0
LINE
8
0
6
CONTINUOUS
10
218.5
20
-126.25
11
218.5
21
-111.75
0
LINE
8
0
6
CONTINUOUS
10
216.5
20
-109.75
11
202
21
-109.75
0
LINE
8
0
6
CONTINUOUS
10
200
20
-111.75
11
200
21
-126.25
0
LINE
8
0
6
CONTINUOUS
10
102.25
20
-147.25
11
131
21
-147.25
0
LINE
8
0
6
CONTINUOUS
10
102.25
20
-128.75
11
131
21
-128.75
0
LINE
8
0
6
CONTINUOUS
10
135.5
20
-147.25
11
150
21
-147.25
0
LINE
8
0
6
CONTINUOUS
10
152
20
-145.25
11
152
21
-130.75
0
LINE
8
0
6
CONTINUOUS
10
150
20
-128.75
11
135.5
21
-128.75
0
LINE
8
0
6
CONTINUOUS
10
133.5
20
-130.75
11
133.5
21
-145.25
0
LINE
8
0
6
CONTINUOUS
10
154.5
20
-147.25
11
169
21
-147.25
0
LINE
8
0
6
CONTINUOUS
10
171
20
-145.25
11
171
21
-130.75
0
LINE
8
0
6
CONTINUOUS
10
169
20
-128.75
11
154.5
21
-128.75
0
LINE
8
0
6
CONTINUOUS
10
152.5
20
-130.75
11
152.5
21
-145.25
0
LINE
8
0
6
CONTINUOUS
10
173.5
20
-147.25
11
188
21
-147.25
0
LINE
8
0
6
CONTINUOUS
10
190
20
-145.25
11
190
21
-130.75
0
LINE
8
0
6
CONTINUOUS
10
188
20
-128.75
11
173.5
21
-128.75
0
LINE
8
0
6
CONTINUOUS
10
171.5
20
-130.75
11
171.5
21
-145.25
0
LINE
8
0
6
CONTINUOUS
10
192.5
20
-147.25
11
207
21
-147.25
0
LINE
8
0
6
CONTINUOUS
10
209
20
-145.25
11
209
21
-130.75
0
LINE
8
0
6
CONTINUOUS
10
207
20
-128.75
11
192.5
21
-128.75
0
LINE
8
0
6
CONTINUOUS
10
190.5
20
-130.75
11
190.5
21
-145.25
0
LINE
8
0
6
CONTINUOUS
10
211.5
20
-147.25
11
226
21
-147.25
0
LINE
8
0
6
CONTINUOUS
10
228
20
-145.25
11
228
21
-130.75
0
LINE
8
0
6
CONTINUOUS
10
226
20
-128.75
11
211.5
21
-128.75
0
LINE
8
0
6
CONTINUOUS
10
209.5
20
-130.75
11
209.5
21
-145.25
0
LINE
8
0
6
CONTINUOUS
10
102.25
20
-166.25
11
121.5
21
-166.25
0
LINE
8
0
6
CONTINUOUS
10
102.25
20
-147.75
11
121.5
21
-147.75
0
LINE
8
0
6
CONTINUOUS
10
125.905
20
-166.25
11
145.155
21
-166.25
0
LINE
8
0
6
CONTINUOUS
10
125.905
20
-147.75
11
145.155
21
-147.75
0
LINE
8
0
6
CONTINUOUS
10
201.8767491
20
-167.2974992
11
216.2686683
21
-169.0646046
0
LINE
8
0
6
CONTINUOUS
10
218.4974992
20
-167.3232509
11
220.2646046
21
-152.9313317
0
LINE
8
0
6
CONTINUOUS
10
218.5232509
20
-150.7025008
11
204.1313317
21
-148.9353954
0
LINE
8
0
6
CONTINUOUS
10
201.9025008
20
-150.6767491
11
200.1353954
21
-165.0686683
0
LINE
8
0
6
CONTINUOUS
10
237.480735
20
-175.8173049
11
249.480735
21
-155.0326951
0
LINE
8
0
6
CONTINUOUS
10
221.459265
20
-166.5673049
11
233.459265
21
-145.7826951
0
LINE
8
0
6
CONTINUOUS
10
248.7486842
20
-152.3006443
11
236.1913158
21
-145.0506443
0
LINE
8
0
6
CONTINUOUS
10
222.1913158
20
-169.2993557
11
234.7486842
21
-176.5493557
0
LINE
8
0
6
CONTINUOUS
10
123.5
20
-164.25
11
123.5
21
-149.75
0
LINE
8
0
6
CONTINUOUS
10
100.25
20
-149.75
11
100.25
21
-164.25
0
LINE
8
0
6
CONTINUOUS
10
133
20
-145.25
11
133
21
-130.75
0
LINE
8
0
6
CONTINUOUS
10
100.25
20
-130.75
11
100.25
21
-145.25
0
LINE
8
0
6
CONTINUOUS
10
123.5
20
-126.25
11
123.5
21
-111.75
0
LINE
8
0
6
CONTINUOUS
10
100.25
20
-111.75
11
100.25
21
-126.25
0
ARC
8
0
6
CONTINUOUS
10
131
20
-145.25
40
2
50
270
51
0
0
ARC
8
0
6
CONTINUOUS
10
131
20
-130.75
40
2
50
0
51
90
0
ARC
8
0
6
CONTINUOUS
10
102.25
20
-130.75
40
2
50
90
51
180
0
ARC
8
0
6
CONTINUOUS
10
102.25
20
-145.25
40
2
50
180
51
270
0
ARC
8
0
6
CONTINUOUS
10
247.7486842
20
-154.0326951
40
2
50
329.9999999
51
59.9999999
0
ARC
8
0
6
CONTINUOUS
10
235.1913158
20
-146.7826951
40
2
50
59.9999999
51
149.9999999
0
ARC
8
0
6
CONTINUOUS
10
223.1913158
20
-167.5673049
40
2
50
149.9999999
51
239.9999999
0
ARC
8
0
6
CONTINUOUS
10
235.7486842
20
-174.8173049
40
2
50
239.9999999
51
329.9999999
0
ARC
8
0
6
CONTINUOUS
10
121.5
20
-126.25
40
2
50
270
51
0
0
ARC
8
0
6
CONTINUOUS
10
121.5
20
-111.75
40
2
50
0
51
90
0
ARC
8
0
6
CONTINUOUS
10
102.25
20
-111.75
40
2
50
90
51
180
0
ARC
8
0
6
CONTINUOUS
10
102.25
20
-126.25
40
2
50
180
51
270
0
ARC
8
0
6
CONTINUOUS
10
121.5
20
-164.25
40
2
50
270
51
0
0
ARC
8
0
6
CONTINUOUS
10
121.5
20
-149.75
40
2
50
0
51
90
0
ARC
8
0
6
CONTINUOUS
10
102.25
20
-149.75
40
2
50
90
51
180
0
ARC
8
0
6
CONTINUOUS
10
102.25
20
-164.25
40
2
50
180
51
270
0
ARC
8
0
6
CONTINUOUS
10
116.75
20
-107.25
40
2
50
270
51
0
0
ARC
8
0
6
CONTINUOUS
10
116.75
20
-92.75
40
2
50
0
51
90
0
ARC
8
0
6
CONTINUOUS
10
102.25
20
-92.75
40
2
50
90
51
180
0
ARC
8
0
6
CONTINUOUS
10
102.25
20
-107.25
40
2
50
180
51
270
0
ARC
8
0
6
CONTINUOUS
10
135.75
20
-107.25
40
2
50
270
51
0
0
ARC
8
0
6
CONTINUOUS
10
135.75
20
-92.75
40
2
50
0
51
90
0
ARC
8
0
6
CONTINUOUS
10
121.25
20
-92.75
40
2
50
90
51
180
0
ARC
8
0
6
CONTINUOUS
10
121.25
20
-107.25
40
2
50
180
51
270
0
ARC
8
0
6
CONTINUOUS
10
154.75
20
-107.25
40
2
50
270
51
0
0
ARC
8
0
6
CONTINUOUS
10
154.75
20
-92.75
40
2
50
0
51
90
0
ARC
8
0
6
CONTINUOUS
10
140.25
20
-92.75
40
2
50
90
51
180
0
ARC
8
0
6
CONTINUOUS
10
140.25
20
-107.25
40
2
50
180
51
270
0
ARC
8
0
6
CONTINUOUS
10
173.75
20
-107.25
40
2
50
270
51
0
0
ARC
8
0
6
CONTINUOUS
10
173.75
20
-92.75
40
2
50
0
51
90
0
ARC
8
0
6
CONTINUOUS
10
159.25
20
-92.75
40
2
50
90
51
180
0
ARC
8
0
6
CONTINUOUS
10
159.25
20
-107.25
40
2
50
180
51
270
0
ARC
8
0
6
CONTINUOUS
10
192.75
20
-107.25
40
2
50
270
51
0
0
ARC
8
0
6
CONTINUOUS
10
192.75
20
-92.75
40
2
50
0
51
90
0
ARC
8
0
6
CONTINUOUS
10
178.25
20
-92.75
40
2
50
90
51
180
0
ARC
8
0
6
CONTINUOUS
10
178.25
20
-107.25
40
2
50
180
51
270
0
ARC
8
0
6
CONTINUOUS
10
211.75
20
-107.25
40
2
50
270
51
0
0
ARC
8
0
6
CONTINUOUS
10
211.75
20
-92.75
40
2
50
0
51
90
0
ARC
8
0
6
CONTINUOUS
10
197.25
20
-92.75
40
2
50
90
51
180
0
ARC
8
0
6
CONTINUOUS
10
197.25
20
-107.25
40
2
50
180
51
270
0
ARC
8
0
6
CONTINUOUS
10
140.5
20
-126.25
40
2
50
270
51
0
0
ARC
8
0
6
CONTINUOUS
10
140.5
20
-111.75
40
2
50
0
51
90
0
ARC
8
0
6
CONTINUOUS
10
126
20
-111.75
40
2
50
90
51
180
0
ARC
8
0
6
CONTINUOUS
10
126
20
-126.25
40
2
50
180
51
270
0
ARC
8
0
6
CONTINUOUS
10
159.5
20
-126.25
40
2
50
270
51
0
0
ARC
8
0
6
CONTINUOUS
10
159.5
20
-111.75
40
2
50
0
51
90
0
ARC
8
0
6
CONTINUOUS
10
145
20
-111.75
40
2
50
90
51
180
0
ARC
8
0
6
CONTINUOUS
10
145
20
-126.25
40
2
50
180
51
270
0
ARC
8
0
6
CONTINUOUS
10
178.5
20
-126.25
40
2
50
270
51
0
0
ARC
8
0
6
CONTINUOUS
10
178.5
20
-111.75
40
2
50
0
51
90
0
ARC
8
0
6
CONTINUOUS
10
164
20
-111.75
40
2
50
90
51
180
0
ARC
8
0
6
CONTINUOUS
10
164
20
-126.25
40
2
50
180
51
270
0
ARC
8
0
6
CONTINUOUS
10
197.5
20
-126.25
40
2
50
270
51
0
0
ARC
8
0
6
CONTINUOUS
10
197.5
20
-111.75
40
2
50
0
51
90
0
ARC
8
0
6
CONTINUOUS
10
183
20
-111.75
40
2
50
90
51
180
0
ARC
8
0
6
CONTINUOUS
10
183
20
-126.25
40
2
50
180
51
270
0
ARC
8
0
6
CONTINUOUS
10
216.5
20
-126.25
40
2
50
270
51
0
0
ARC
8
0
6
CONTINUOUS
10
216.5
20
-111.75
40
2
50
0
51
90
0
ARC
8
0
6
CONTINUOUS
10
202
20
-111.75
40
2
50
90
51
180
0
ARC
8
0
6
CONTINUOUS
10
202
20
-126.25
40
2
50
180
51
270
0
ARC
8
0
6
CONTINUOUS
10
150
20
-145.25
40
2
50
270
51
0
0
ARC
8
0
6
CONTINUOUS
10
150
20
-130.75
40
2
50
0
51
90
0
ARC
8
0
6
CONTINUOUS
10
135.5
20
-130.75
40
2
50
90
51
180
0
ARC
8
0
6
CONTINUOUS
10
135.5
20
-145.25
40
2
50
180
51
270
0
ARC
8
0
6
CONTINUOUS
10
169
20
-145.25
40
2
50
270
51
0
0
ARC
8
0
6
CONTINUOUS
10
169
20
-130.75
40
2
50
0
51
90
0
ARC
8
0
6
CONTINUOUS
10
154.5
20
-130.75
40
2
50
90
51
180
0
ARC
8
0
6
CONTINUOUS
10
154.5
20
-145.25
40
2
50
180
51
270
0
ARC
8
0
6
CONTINUOUS
10
188
20
-145.25
40
2
50
270
51
0
0
ARC
8
0
6
CONTINUOUS
10
188
20
-130.75
40
2
50
0
51
90
0
ARC
8
0
6
CONTINUOUS
10
173.5
20
-130.75
40
2
50
90
51
180
0
ARC
8
0
6
CONTINUOUS
10
173.5
20
-145.25
40
2
50
180
51
270
0
ARC
8
0
6
CONTINUOUS
10
207
20
-145.25
40
2
50
270
51
0
0
ARC
8
0
6
CONTINUOUS
10
207
20
-130.75
40
2
50
0
51
90
0
ARC
8
0
6
CONTINUOUS
10
192.5
20
-130.75
40
2
50
90
51
180
0
ARC
8
0
6
CONTINUOUS
10
192.5
20
-145.25
40
2
50
180
51
270
0
ARC
8
0
6
CONTINUOUS
10
226
20
-145.25
40
2
50
270
51
0
0
ARC
8
0
6
CONTINUOUS
10
226
20
-130.75
40
2
50
0
51
90
0
ARC
8
0
6
CONTINUOUS
10
211.5
20
-130.75
40
2
50
90
51
180
0
ARC
8
0
6
CONTINUOUS
10
211.5
20
-145.25
40
2
50
180
51
270
0
ARC
8
0
6
CONTINUOUS
10
216.5124069
20
-167.0795123
40
2
50
263.0000028
51
353.0000028
0
ARC
8
0
6
CONTINUOUS
10
218.2795123
20
-152.6875931
40
2
50
353.0000028
51
83.0000028
0
ARC
8
0
6
CONTINUOUS
10
203.8875931
20
-150.9204877
40
2
50
83.0000028
51
173.0000028
0
ARC
8
0
6
CONTINUOUS
10
202.1204877
20
-165.3124069
40
2
50
173.0000028
51
263.0000028
0
LINE
8
0
6
CONTINUOUS
10
147.155
20
-164.25
11
147.155
21
-149.75
0
LINE
8
0
6
CONTINUOUS
10
123.905
20
-149.75
11
123.905
21
-164.25
0
ARC
8
0
6
CONTINUOUS
10
145.155
20
-164.25
40
2
50
270
51
0
0
ARC
8
0
6
CONTINUOUS
10
145.155
20
-149.75
40
2
50
0
51
90
0
ARC
8
0
6
CONTINUOUS
10
125.905
20
-149.75
40
2
50
90
51
180
0
ARC
8
0
6
CONTINUOUS
10
125.905
20
-164.25
40
2
50
180
51
270
0
ENDSEC
0
EOF