0
SECTION
2
HEADER
9
$INSUNITS
70
4
0
ENDSEC
0
SECTION
2
TABLES
0
TABLE
2
LTYPE
0
LTYPE
72
65
70
0
2
CONTINUOUS
3
______
73
0
40
0
0
LTYPE
72
65
70
0
2
DASHED
3
_ _ _ 
73
2
40
7.5
49
5
49
-2.5
0
LTYPE
72
65
70
0
2
DOTTED
3
. . . 
73
2
40
1.5
49
0.5
49
-1
0
ENDTAB
0
TABLE
2
LAYER
0
ENDTAB
0
ENDSEC
0
SECTION
2
ENTITIES
0
LINE
8
0
6
CONTINUOUS
10
99.1571006
20
-164.5230763
11
98.6032544
21
-92.5230763
0
LINE
8
0
6
CONTINUOUS
10
101.6031656
20
-89.5
11
254.0735218
21
-89.5
0
LINE
8
0
6
CONTINUOUS
10
257.0725985
20
-92.4255775
11
258.3021401
21
-141.973704
0
LINE
8
0
6
CONTINUOUS
10
257.9011396
20
-143.5481265
11
238.7753523
21
-176.674962
0
LINE
8
0
6
CONTINUOUS
10
235.3976901
20
-178.0718993
11
201.0141616
21
-168.8190517
0
LINE
8
0
6
CONTINUOUS
10
198.8161091
20
-165.5565064
11
199.3705587
21
-161.0408765
0
LINE
8
0
6
CONTINUOUS
10
196.4331247
20
-157.675538
11
149.0702045
21
-157.040747
0
LINE
8
0
6
CONTINUOUS
10
146.03
20
-160.0404776
11
146.03
21
-164.5
0
LINE
8
0
6
CONTINUOUS
10
143.03
20
-167.5
11
102.1570118
21
-167.5
0
ARC
8
0
6
CONTINUOUS
10
101.6031656
20
-92.5
40
3
50
90
51
180.4407292
0
ARC
8
0
6
CONTINUOUS
10
254.0735218
20
-92.5
40
3
50
1.4215109
51
90
0
ARC
8
0
6
CONTINUOUS
10
255.3030634
20
-142.0481265
40
3
50
329.9999999
51
1.4215109
0
ARC
8
0
6
CONTINUOUS
10
236.1772761
20
-175.174962
40
3
50
254.9381267
51
329.9999999
0
ARC
8
0
6
CONTINUOUS
10
201.7937476
20
-165.9221143
40
3
50
173.0000028
51
254.9381267
0
ARC
8
0
6
CONTINUOUS
10
196.3929202
20
-160.6752686
40
3
50
353.0000028
51
89.2321276
0
ARC
8
0
6
CONTINUOUS
10
149.03
20
-160.0404776
40
3
50
89.2321276
51
180
0
ARC
8
0
6
CONTINUOUS
10
143.03
20
-164.5
40
3
50
270
51
0
0
ARC
8
0
6
CONTINUOUS
10
102.1570118
20
-164.5
40
3
50
180.4407292
51
270
0
LINE
8
0
6
CONTINUOUS
10
102.25
20
-109.25
11
116.75
21
-109.25
0
LINE
8
0
6
CONTINUOUS
10
118.75
20
-107.25
11
118.75
21
-92.75
0
LINE
8
0
6
CONTINUOUS
10
116.75
20
-90.75
11
102.25
21
-90.75
0
LINE
8
0
6
CONTINUOUS
10
100.25
20
-92.75
11
100.25
21
-107.25
0
LINE
8
0
6
CONTINUOUS
10
121.25
20
-109.25
11
135.75
21
-109.25
0
LINE
8
0
6
CONTINUOUS
10
137.75
20
-107.25
11
137.75
21
-92.75
0
LINE
8
0
6
CONTINUOUS
10
135.75
20
-90.75
11
121.25
21
-90.75
0
LINE
8
0
6
CONTINUOUS
10
119.25
20
-92.75
11
119.25
21
-107.25
0
LINE
8
0
6
CONTINUOUS
10
140.25
20
-109.25
11
154.75
21
-109.25
0
LINE
8
0
6
CONTINUOUS
10
156.75
20
-107.25
11
156.75
21
-92.75
0
LINE
8
0
6
CONTINUOUS
10
154.75
20
-90.75
11
140.25
21
-90.75
0
LINE
8
0
6
CONTINUOUS
10
138.25
20
-92.75
11
138.25
21
-107.25
0
LINE
8
0
6
CONTINUOUS
10
159.25
20
-109.25
11
173.75
21
-109.25
0
LINE
8
0
6
CONTINUOUS
10
175.75
20
-107.25
11
175.75
21
-92.75
0
LINE
8
0
6
CONTINUOUS
10
173.75
20
-90.75
11
159.25
21
-90.75
0
LINE
8
0
6
CONTINUOUS
10
157.25
20
-92.75
11
157.25
21
-107.25
0
LINE
8
0
6
CONTINUOUS
10
178.25
20
-109.25
11
192.75
21
-109.25
0
LINE
8
0
6
CONTINUOUS
10
194.75
20
-107.25
11
194.75
21
-92.75
0
LINE
8
0
6
CONTINUOUS
10
192.75
20
-90.75
11
178.25
21
-90.75
0
LINE
8
0
6
CONTINUOUS
10
176.25
20
-92.75
11
176.25
21
-107.25
0
LINE
8
0
6
CONTINUOUS
10
197.25
20
-109.25
11
211.75
21
-109.25
0
LINE
8
0
6
CONTINUOUS
10
213.75
20
-107.25
11
213.75
21
-92.75
0
LINE
8
0
6
CONTINUOUS
10
211.75
20
-90.75
11
197.25
21
-90.75
0
LINE
8
0
6
CONTINUOUS
10
195.25
20
-92.75
11
195.25
21
-107.25
0
LINE
8
0
6
CONTINUOUS
10
126
20
-128.25
11
140.5
21
-128.25
0
LINE
8
0
6
CONTINUOUS
10
142.5
20
-126.25
11
142.5
21
-111.75
0
LINE
8
0
6
CONTINUOUS
10
140.5
20
-109.75
11
126
21
-109.75
0
LINE
8
0
6
CONTINUOUS
10
124
20
-111.75
11
124
21
-126.25
0
LINE
8
0
6
CONTINUOUS
10
145
20
-128.25
11
159.5
21
-128.25
0
LINE
8
0
6
CONTINUOUS
10
161.5
20
-126.25
11
161.5
21
-111.75
0
LINE
8
0
6
CONTINUOUS
10
159.5
20
-109.75
11
145
21
-109.75
0
LINE
8
0
6
CONTINUOUS
10
143
20
-111.75
11
143
21
-126.25
0
LINE
8
0
6
CONTINUOUS
10
164
20
-128.25
11
178.5
21
-128.25
0
LINE
8
0
6
CONTINUOUS
10
180.5
20
-126.25
11
180.5
21
-111.75
0
LINE
8
0
6
CONTINUOUS
10
178.5
20
-109.75
11
164
21
-109.75
0
LINE
8
0
6
CONTINUOUS
10
162
20
-111.75
11
162
21
-126.25
0
LINE
8
0
6
CONTINUOUS
10
183
20
-128.25
11
197.5
21
-128.25
0
LINE
8
0
6
CONTINUOUS
10
199.5
20
-126.25
11
199.5
21
-111.75
0
LINE
8
0
6
CONTINUOUS
10
197.5
20
-109.75
11
183
21
-109.75
0
LINE
8
0
6
CONTINUOUS
10
181
20
-111.75
11
181
21
-126.25
0
LINE
8
0
6
CONTINUOUS
10
202
20
-128.25
11
216.5
21
-128.25
0
LINE
8
0
6
CONTINUOUS
10
218.5
20
-126.25
11
218.5
21
-111.75
0
LINE
8
0
6
CONTINUOUS
10
216.5
20
-109.75
11
202
21
-109.75
0
LINE
8
0
6
CONTINUOUS
10
200
20
-111.75
11
200
21
-126.25
0
LINE
8
0
6
CONTINUOUS
10
135.5
20
-147.25
11
150
21
-147.25
0
LINE
8
0
6
CONTINUOUS
10
152
20
-145.25
11
152
21
-130.75
0
LINE
8
0
6
CONTINUOUS
10
150
20
-128.75
11
135.5
21
-128.75
0
LINE
8
0
6
CONTINUOUS
10
133.5
20
-130.75
11
133.5
21
-145.25
0
LINE
8
0
6
CONTINUOUS
10
154.5
20
-147.25
11
169
21
-147.25
0
LINE
8
0
6
CONTINUOUS
10
171
20
-145.25
11
171
21
-130.75
0
LINE
8
0
6
CONTINUOUS
10
169
20
-128.75
11
154.5
21
-128.75
0
LINE
8
0
6
CONTINUOUS
10
152.5
20
-130.75
11
152.5
21
-145.25
0
LINE
8
0
6
CONTINUOUS
10
173.5
20
-147.25
11
188
21
-147.25
0
LINE
8
0
6
CONTINUOUS
10
190
20
-145.25
11
190
21
-130.75
0
LINE
8
0
6
CONTINUOUS
10
188
20
-128.75
11
173.5
21
-128.75
0
LINE
8
0
6
CONTINUOUS
10
171.5
20
-130.75
11
171.5
21
-145.25
0
LINE
8
0
6
CONTINUOUS
10
192.5
20
-147.25
11
207
21
-147.25
0
LINE
8
0
6
CONTINUOUS
10
209
20
-145.25
11
209
21
-130.75
0
LINE
8
0
6
CONTINUOUS
10
207
20
-128.75
11
192.5
21
-128.75
0
LINE
8
0
6
CONTINUOUS
10
190.5
20
-130.75
11
190.5
21
-145.25
0
LINE
8
0
6
CONTINUOUS
10
211.5
20
-147.25
11
226
21
-147.25
0
LINE
8
0
6
CONTINUOUS
10
228
20
-145.25
11
228
21
-130.75
0
LINE
8
0
6
CONTINUOUS
10
226
20
-128.75
11
211.5
21
-128.75
0
LINE
8
0
6
CONTINUOUS
10
209.5
20
-130.75
11
209.5
21
-145.25
0
LINE
8
0
6
CONTINUOUS
10
128.28
20
-166.25
11
142.78
21
-166.25
0
LINE
8
0
6
CONTINUOUS
10
144.78
20
-164.25
11
144.78
21
-149.75
0
LINE
8
0
6
CONTINUOUS
10
142.78
20
-147.75
11
128.28
21
-147.75
0
LINE
8
0
6
CONTINUOUS
10
126.28
20
-149.75
11
126.28
21
-164.25
0
LINE
8
0
6
CONTINUOUS
10
201.8767491
20
-167.2974992
11
216.2686683
21
-169.0646046
0
LINE
8
0
6
CONTINUOUS
10
218.4974992
20
-167.3232509
11
220.2646046
21
-152.9313317
0
LINE
8
0
6
CONTINUOUS
10
218.5232509
20
-150.7025008
11
204.1313317
21
-148.9353954
0
LINE
8
0
6
CONTINUOUS
10
201.9025008
20
-150.6767491
11
200.1353954
21
-165.0686683
0
LINE
8
0
6
CONTINUOUS
10
237.5722413
20
-176.1588112
11
249.8222413
21
-154.9411888
0
LINE
8
0
6
CONTINUOUS
10
249.0901905
20
-152.209138
11
236.0998095
21
-144.709138
0
LINE
8
0
6
CONTINUOUS
10
233.3677587
20
-145.4411888
11
221.1177587
21
-166.6588112
0
LINE
8
0
6
CONTINUOUS
10
221.8498095
20
-169.390862
11
234.8401905
21
-176.890862
0
LINE
8
0
6
CONTINUOUS
10
101.905
20
-166.495
11
121.655
21
-166.495
0
LINE
8
0
6
CONTINUOUS
10
123.655
20
-164.495
11
123.655
21
-149.505
0
LINE
8
0
6
CONTINUOUS
10
121.655
20
-147.505
11
101.905
21
-147.505
0
LINE
8
0
6
CONTINUOUS
10
99.905
20
-149.505
11
99.905
21
-164.495
0
LINE
8
0
6
CONTINUOUS
10
101.905
20
-147.495
11
131.155
21
-147.495
0
LINE
8
0
6
CONTINUOUS
10
133.155
20
-145.495
11
133.155
21
-130.505
0
LINE
8
0
6
CONTINUOUS
10
131.155
20
-128.505
11
101.905
21
-128.505
0
LINE
8
0
6
CONTINUOUS
10
99.905
20
-130.505
11
99.905
21
-145.495
0
LINE
8
0
6
CONTINUOUS
10
101.905
20
-128.495
11
121.655
21
-128.495
0
LINE
8
0
6
CONTINUOUS
10
123.655
20
-126.495
11
123.655
21
-111.505
0
LINE
8
0
6
CONTINUOUS
10
121.655
20
-109.505
11
101.905
21
-109.505
0
LINE
8
0
6
CONTINUOUS
10
99.905
20
-111.505
11
99.905
21
-126.495
0
ARC
8
0
6
CONTINUOUS
10
131.155
20
-145.495
40
2
50
270
51
0
0
ARC
8
0
6
CONTINUOUS
10
131.155
20
-130.505
40
2
50
0
51
90
0
ARC
8
0
6
CONTINUOUS
10
101.905
20
-130.505
40
2
50
90
51
180
0
ARC
8
0
6
CONTINUOUS
10
101.905
20
-145.495
40
2
50
180
51
270
0
ARC
8
0
6
CONTINUOUS
10
248.0901905
20
-153.9411888
40
2
50
329.9999999
51
59.9999999
0
ARC
8
0
6
CONTINUOUS
10
235.0998095
20
-146.4411888
40
2
50
59.9999999
51
149.9999999
0
ARC
8
0
6
CONTINUOUS
10
222.8498095
20
-167.6588112
40
2
50
149.9999999
51
239.9999999
0
ARC
8
0
6
CONTINUOUS
10
235.8401905
20
-175.1588112
40
2
50
239.9999999
51
329.9999999
0
ARC
8
0
6
CONTINUOUS
10
121.655
20
-164.495
40
2
50
270
51
0
0
ARC
8
0
6
CONTINUOUS
10
121.655
20
-149.505
40
2
50
0
51
90
0
ARC
8
0
6
CONTINUOUS
10
101.905
20
-149.505
40
2
50
90
51
180
0
ARC
8
0
6
CONTINUOUS
10
101.905
20
-164.495
40
2
50
180
51
270
0
ARC
8
0
6
CONTINUOUS
10
121.655
20
-126.495
40
2
50
270
51
0
0
ARC
8
0
6
CONTINUOUS
10
121.655
20
-111.505
40
2
50
0
51
90
0
ARC
8
0
6
CONTINUOUS
10
101.905
20
-111.505
40
2
50
90
51
180
0
ARC
8
0
6
CONTINUOUS
10
101.905
20
-126.495
40
2
50
180
51
270
0
ARC
8
0
6
CONTINUOUS
10
116.75
20
-107.25
40
2
50
270
51
0
0
ARC
8
0
6
CONTINUOUS
10
116.75
20
-92.75
40
2
50
0
51
90
0
ARC
8
0
6
CONTINUOUS
10
102.25
20
-92.75
40
2
50
90
51
180
0
ARC
8
0
6
CONTINUOUS
10
102.25
20
-107.25
40
2
50
180
51
270
0
ARC
8
0
6
CONTINUOUS
10
135.75
20
-107.25
40
2
50
270
51
0
0
ARC
8
0
6
CONTINUOUS
10
135.75
20
-92.75
40
2
50
0
51
90
0
ARC
8
0
6
CONTINUOUS
10
121.25
20
-92.75
40
2
50
90
51
180
0
ARC
8
0
6
CONTINUOUS
10
121.25
20
-107.25
40
2
50
180
51
270
0
ARC
8
0
6
CONTINUOUS
10
154.75
20
-107.25
40
2
50
270
51
0
0
ARC
8
0
6
CONTINUOUS
10
154.75
20
-92.75
40
2
50
0
51
90
0
ARC
8
0
6
CONTINUOUS
10
140.25
20
-92.75
40
2
50
90
51
180
0
ARC
8
0
6
CONTINUOUS
10
140.25
20
-107.25
40
2
50
180
51
270
0
ARC
8
0
6
CONTINUOUS
10
173.75
20
-107.25
40
2
50
270
51
0
0
ARC
8
0
6
CONTINUOUS
10
173.75
20
-92.75
40
2
50
0
51
90
0
ARC
8
0
6
CONTINUOUS
10
159.25
20
-92.75
40
2
50
90
51
180
0
ARC
8
0
6
CONTINUOUS
10
159.25
20
-107.25
40
2
50
180
51
270
0
ARC
8
0
6
CONTINUOUS
10
192.75
20
-107.25
40
2
50
270
51
0
0
ARC
8
0
6
CONTINUOUS
10
192.75
20
-92.75
40
2
50
0
51
90
0
ARC
8
0
6
CONTINUOUS
10
178.25
20
-92.75
40
2
50
90
51
180
0
ARC
8
0
6
CONTINUOUS
10
178.25
20
-107.25
40
2
50
180
51
270
0
ARC
8
0
6
CONTINUOUS
10
211.75
20
-107.25
40
2
50
270
51
0
0
ARC
8
0
6
CONTINUOUS
10
211.75
20
-92.75
40
2
50
0
51
90
0
ARC
8
0
6
CONTINUOUS
10
197.25
20
-92.75
40
2
50
90
51
180
0
ARC
8
0
6
CONTINUOUS
10
197.25
20
-107.25
40
2
50
180
51
270
0
ARC
8
0
6
CONTINUOUS
10
140.5
20
-126.25
40
2
50
270
51
0
0
ARC
8
0
6
CONTINUOUS
10
140.5
20
-111.75
40
2
50
0
51
90
0
ARC
8
0
6
CONTINUOUS
10
126
20
-111.75
40
2
50
90
51
180
0
ARC
8
0
6
CONTINUOUS
10
126
20
-126.25
40
2
50
180
51
270
0
ARC
8
0
6
CONTINUOUS
10
159.5
20
-126.25
40
2
50
270
51
0
0
ARC
8
0
6
CONTINUOUS
10
159.5
20
-111.75
40
2
50
0
51
90
0
ARC
8
0
6
CONTINUOUS
10
145
20
-111.75
40
2
50
90
51
180
0
ARC
8
0
6
CONTINUOUS
10
145
20
-126.25
40
2
50
180
51
270
0
ARC
8
0
6
CONTINUOUS
10
178.5
20
-126.25
40
2
50
270
51
0
0
ARC
8
0
6
CONTINUOUS
10
178.5
20
-111.75
40
2
50
0
51
90
0
ARC
8
0
6
CONTINUOUS
10
164
20
-111.75
40
2
50
90
51
180
0
ARC
8
0
6
CONTINUOUS
10
164
20
-126.25
40
2
50
180
51
270
0
ARC
8
0
6
CONTINUOUS
10
197.5
20
-126.25
40
2
50
270
51
0
0
ARC
8
0
6
CONTINUOUS
10
197.5
20
-111.75
40
2
50
0
51
90
0
ARC
8
0
6
CONTINUOUS
10
183
20
-111.75
40
2
50
90
51
180
0
ARC
8
0
6
CONTINUOUS
10
183
20
-126.25
40
2
50
180
51
270
0
ARC
8
0
6
CONTINUOUS
10
216.5
20
-126.25
40
2
50
270
51
0
0
ARC
8
0
6
CONTINUOUS
10
216.5
20
-111.75
40
2
50
0
51
90
0
ARC
8
0
6
CONTINUOUS
10
202
20
-111.75
40
2
50
90
51
180
0
ARC
8
0
6
CONTINUOUS
10
202
20
-126.25
40
2
50
180
51
270
0
ARC
8
0
6
CONTINUOUS
10
150
20
-145.25
40
2
50
270
51
0
0
ARC
8
0
6
CONTINUOUS
10
150
20
-130.75
40
2
50
0
51
90
0
ARC
8
0
6
CONTINUOUS
10
135.5
20
-130.75
40
2
50
90
51
180
0
ARC
8
0
6
CONTINUOUS
10
135.5
20
-145.25
40
2
50
180
51
270
0
ARC
8
0
6
CONTINUOUS
10
169
20
-145.25
40
2
50
270
51
0
0
ARC
8
0
6
CONTINUOUS
10
169
20
-130.75
40
2
50
0
51
90
0
ARC
8
0
6
CONTINUOUS
10
154.5
20
-130.75
40
2
50
90
51
180
0
ARC
8
0
6
CONTINUOUS
10
154.5
20
-145.25
40
2
50
180
51
270
0
ARC
8
0
6
CONTINUOUS
10
188
20
-145.25
40
2
50
270
51
0
0
ARC
8
0
6
CONTINUOUS
10
188
20
-130.75
40
2
50
0
51
90
0
ARC
8
0
6
CONTINUOUS
10
173.5
20
-130.75
40
2
50
90
51
180
0
ARC
8
0
6
CONTINUOUS
10
173.5
20
-145.25
40
2
50
180
51
270
0
ARC
8
0
6
CONTINUOUS
10
207
20
-145.25
40
2
50
270
51
0
0
ARC
8
0
6
CONTINUOUS
10
207
20
-130.75
40
2
50
0
51
90
0
ARC
8
0
6
CONTINUOUS
10
192.5
20
-130.75
40
2
50
90
51
180
0
ARC
8
0
6
CONTINUOUS
10
192.5
20
-145.25
40
2
50
180
51
270
0
ARC
8
0
6
CONTINUOUS
10
226
20
-145.25
40
2
50
270
51
0
0
ARC
8
0
6
CONTINUOUS
10
226
20
-130.75
40
2
50
0
51
90
0
ARC
8
0
6
CONTINUOUS
10
211.5
20
-130.75
40
2
50
90
51
180
0
ARC
8
0
6
CONTINUOUS
10
211.5
20
-145.25
40
2
50
180
51
270
0
ARC
8
0
6
CONTINUOUS
10
142.78
20
-164.25
40
2
50
270
51
0
0
ARC
8
0
6
CONTINUOUS
10
142.78
20
-149.75
40
2
50
0
51
90
0
ARC
8
0
6
CONTINUOUS
10
128.28
20
-149.75
40
2
50
90
51
180
0
ARC
8
0
6
CONTINUOUS
10
128.28
20
-164.25
40
2
50
180
51
270
0
ARC
8
0
6
CONTINUOUS
10
216.5124069
20
-167.0795123
40
2
50
263.0000028
51
353.0000028
0
ARC
8
0
6
CONTINUOUS
10
218.2795123
20
-152.6875931
40
2
50
353.0000028
51
83.0000028
0
ARC
8
0
6
CONTINUOUS
10
203.8875931
20
-150.9204877
40
2
50
83.0000028
51
173.0000028
0
ARC
8
0
6
CONTINUOUS
10
202.1204877
20
-165.3124069
40
2
50
173.0000028
51
263.0000028
0
ENDSEC
0
EOF