0
SECTION
2
HEADER
9
$INSUNITS
70
4
0
ENDSEC
0
SECTION
2
TABLES
0
TABLE
2
LTYPE
0
LTYPE
72
65
70
0
2
CONTINUOUS
3
______
73
0
40
0
0
LTYPE
72
65
70
0
2
DASHED
3
_ _ _ 
73
2
40
7.5
49
5
49
-2.5
0
LTYPE
72
65
70
0
2
DOTTED
3
. . . 
73
2
40
1.5
49
0.5
49
-1
0
ENDTAB
0
TABLE
2
LAYER
0
ENDTAB
0
ENDSEC
0
SECTION
2
ENTITIES
0
LINE
8
0
6
CONTINUOUS
10
102.25
20
-109.25
11
116.75
21
-109.25
0
LINE
8
0
6
CONTINUOUS
10
118.75
20
-107.25
11
118.75
21
-92.75
0
LINE
8
0
6
CONTINUOUS
10
116.75
20
-90.75
11
102.25
21
-90.75
0
LINE
8
0
6
CONTINUOUS
10
100.25
20
-92.75
11
100.25
21
-107.25
0
LINE
8
0
6
CONTINUOUS
10
121.25
20
-109.25
11
135.75
21
-109.25
0
LINE
8
0
6
CONTINUOUS
10
137.75
20
-107.25
11
137.75
21
-92.75
0
LINE
8
0
6
CONTINUOUS
10
135.75
20
-90.75
11
121.25
21
-90.75
0
LINE
8
0
6
CONTINUOUS
10
119.25
20
-92.75
11
119.25
21
-107.25
0
LINE
8
0
6
CONTINUOUS
10
140.25
20
-109.25
11
154.75
21
-109.25
0
LINE
8
0
6
CONTINUOUS
10
156.75
20
-107.25
11
156.75
21
-92.75
0
LINE
8
0
6
CONTINUOUS
10
154.75
20
-90.75
11
140.25
21
-90.75
0
LINE
8
0
6
CONTINUOUS
10
138.25
20
-92.75
11
138.25
21
-107.25
0
LINE
8
0
6
CONTINUOUS
10
159.25
20
-109.25
11
173.75
21
-109.25
0
LINE
8
0
6
CONTINUOUS
10
175.75
20
-107.25
11
175.75
21
-92.75
0
LINE
8
0
6
CONTINUOUS
10
173.75
20
-90.75
11
159.25
21
-90.75
0
LINE
8
0
6
CONTINUOUS
10
157.25
20
-92.75
11
157.25
21
-107.25
0
LINE
8
0
6
CONTINUOUS
10
178.25
20
-109.25
11
192.75
21
-109.25
0
LINE
8
0
6
CONTINUOUS
10
194.75
20
-107.25
11
194.75
21
-92.75
0
LINE
8
0
6
CONTINUOUS
10
192.75
20
-90.75
11
178.25
21
-90.75
0
LINE
8
0
6
CONTINUOUS
10
176.25
20
-92.75
11
176.25
21
-107.25
0
LINE
8
0
6
CONTINUOUS
10
197.25
20
-109.25
11
211.75
21
-109.25
0
LINE
8
0
6
CONTINUOUS
10
213.75
20
-107.25
11
213.75
21
-92.75
0
LINE
8
0
6
CONTINUOUS
10
211.75
20
-90.75
11
197.25
21
-90.75
0
LINE
8
0
6
CONTINUOUS
10
195.25
20
-92.75
11
195.25
21
-107.25
0
LINE
8
0
6
CONTINUOUS
10
102.25
20
-128.25
11
121.5
21
-128.25
0
LINE
8
0
6
CONTINUOUS
10
102.25
20
-109.75
11
121.5
21
-109.75
0
LINE
8
0
6
CONTINUOUS
10
126
20
-128.25
11
140.5
21
-128.25
0
LINE
8
0
6
CONTINUOUS
10
142.5
20
-126.25
11
142.5
21
-111.75
0
LINE
8
0
6
CONTINUOUS
10
140.5
20
-109.75
11
126
21
-109.75
0
LINE
8
0
6
CONTINUOUS
10
124
20
-111.75
11
124
21
-126.25
0
LINE
8
0
6
CONTINUOUS
10
145
20
-128.25
11
159.5
21
-128.25
0
LINE
8
0
6
CONTINUOUS
10
161.5
20
-126.25
11
161.5
21
-111.75
0
LINE
8
0
6
CONTINUOUS
10
159.5
20
-109.75
11
145
21
-109.75
0
LINE
8
0
6
CONTINUOUS
10
143
20
-111.75
11
143
21
-126.25
0
LINE
8
0
6
CONTINUOUS
10
164
20
-128.25
11
178.5
21
-128.25
0
LINE
8
0
6
CONTINUOUS
10
180.5
20
-126.25
11
180.5
21
-111.75
0
LINE
8
0
6
CONTINUOUS
10
178.5
20
-109.75
11
164
21
-109.75
0
LINE
8
0
6
CONTINUOUS
10
162
20
-111.75
11
162
21
-126.25
0
LINE
8
0
6
CONTINUOUS
10
183
20
-128.25
11
197.5
21
-128.25
0
LINE
8
0
6
CONTINUOUS
10
199.5
20
-126.25
11
199.5
21
-111.75
0
LINE
8
0
6
CONTINUOUS
10
197.5
20
-109.75
11
183
21
-109.75
0
LINE
8
0
6
CONTINUOUS
10
181
20
-111.75
11
181
21
-126.25
0
LINE
8
0
6
CONTINUOUS
10
202
20
-128.25
11
216.5
21
-128.25
0
LINE
8
0
6
CONTINUOUS
10
218.5
20
-126.25
11
218.5
21
-111.75
0
LINE
8
0
6
CONTINUOUS
10
216.5
20
-109.75
11
202
21
-109.75
0
LINE
8
0
6
CONTINUOUS
10
200
20
-111.75
11
200
21
-126.25
0
LINE
8
0
6
CONTINUOUS
10
102.25
20
-147.25
11
131
21
-147.25
0
LINE
8
0
6
CONTINUOUS
10
102.25
20
-128.75
11
131
21
-128.75
0
LINE
8
0
6
CONTINUOUS
10
135.5
20
-147.25
11
150
21
-147.25
0
LINE
8
0
6
CONTINUOUS
10
152
20
-145.25
11
152
21
-130.75
0
LINE
8
0
6
CONTINUOUS
10
150
20
-128.75
11
135.5
21
-128.75
0
LINE
8
0
6
CONTINUOUS
10
133.5
20
-130.75
11
133.5
21
-145.25
0
LINE
8
0
6
CONTINUOUS
10
154.5
20
-147.25
11
169
21
-147.25
0
LINE
8
0
6
CONTINUOUS
10
171
20
-145.25
11
171
21
-130.75
0
LINE
8
0
6
CONTINUOUS
10
169
20
-128.75
11
154.5
21
-128.75
0
LINE
8
0
6
CONTINUOUS
10
152.5
20
-130.75
11
152.5
21
-145.25
0
LINE
8
0
6
CONTINUOUS
10
173.5
20
-147.25
11
188
21
-147.25
0
LINE
8
0
6
CONTINUOUS
10
190
20
-145.25
11
190
21
-130.75
0
LINE
8
0
6
CONTINUOUS
10
188
20
-128.75
11
173.5
21
-128.75
0
LINE
8
0
6
CONTINUOUS
10
171.5
20
-130.75
11
171.5
21
-145.25
0
LINE
8
0
6
CONTINUOUS
10
192.5
20
-147.25
11
207
21
-147.25
0
LINE
8
0
6
CONTINUOUS
10
209
20
-145.25
11
209
21
-130.75
0
LINE
8
0
6
CONTINUOUS
10
207
20
-128.75
11
192.5
21
-128.75
0
LINE
8
0
6
CONTINUOUS
10
190.5
20
-130.75
11
190.5
21
-145.25
0
LINE
8
0
6
CONTINUOUS
10
211.5
20
-147.25
11
226
21
-147.25
0
LINE
8
0
6
CONTINUOUS
10
228
20
-145.25
11
228
21
-130.75
0
LINE
8
0
6
CONTINUOUS
10
226
20
-128.75
11
211.5
21
-128.75
0
LINE
8
0
6
CONTINUOUS
10
209.5
20
-130.75
11
209.5
21
-145.25
0
LINE
8
0
6
CONTINUOUS
10
102.25
20
-166.25
11
121.5
21
-166.25
0
LINE
8
0
6
CONTINUOUS
10
102.25
20
-147.75
11
121.5
21
-147.75
0
LINE
8
0
6
CONTINUOUS
10
125.905
20
-166.25
11
145.155
21
-166.25
0
LINE
8
0
6
CONTINUOUS
10
125.905
20
-147.75
11
145.155
21
-147.75
0
LINE
8
0
6
CONTINUOUS
10
192.95
20
-170.05
11
207.45
21
-170.05
0
LINE
8
0
6
CONTINUOUS
10
209.45
20
-168.05
11
209.45
21
-153.55
0
LINE
8
0
6
CONTINUOUS
10
207.45
20
-151.55
11
192.95
21
-151.55
0
LINE
8
0
6
CONTINUOUS
10
190.95
20
-153.55
11
190.95
21
-168.05
0
LINE
8
0
6
CONTINUOUS
10
217.2
20
-170.05
11
241.2
21
-170.05
0
LINE
8
0
6
CONTINUOUS
10
217.2
20
-151.55
11
241.2
21
-151.55
0
LINE
8
0
6
CONTINUOUS
10
243.2
20
-168.05
11
243.2
21
-153.55
0
LINE
8
0
6
CONTINUOUS
10
215.2
20
-153.55
11
215.2
21
-168.05
0
LINE
8
0
6
CONTINUOUS
10
123.5
20
-164.25
11
123.5
21
-149.75
0
LINE
8
0
6
CONTINUOUS
10
100.25
20
-149.75
11
100.25
21
-164.25
0
LINE
8
0
6
CONTINUOUS
10
133
20
-145.25
11
133
21
-130.75
0
LINE
8
0
6
CONTINUOUS
10
100.25
20
-130.75
11
100.25
21
-145.25
0
LINE
8
0
6
CONTINUOUS
10
123.5
20
-126.25
11
123.5
21
-111.75
0
LINE
8
0
6
CONTINUOUS
10
100.25
20
-111.75
11
100.25
21
-126.25
0
ARC
8
0
6
CONTINUOUS
10
131
20
-145.25
40
2
50
270
51
0
0
ARC
8
0
6
CONTINUOUS
10
131
20
-130.75
40
2
50
0
51
90
0
ARC
8
0
6
CONTINUOUS
10
102.25
20
-130.75
40
2
50
90
51
180
0
ARC
8
0
6
CONTINUOUS
10
102.25
20
-145.25
40
2
50
180
51
270
0
ARC
8
0
6
CONTINUOUS
10
241.2
20
-168.05
40
2
50
270
51
0
0
ARC
8
0
6
CONTINUOUS
10
241.2
20
-153.55
40
2
50
0
51
90
0
ARC
8
0
6
CONTINUOUS
10
217.2
20
-153.55
40
2
50
90
51
180
0
ARC
8
0
6
CONTINUOUS
10
217.2
20
-168.05
40
2
50
180
51
270
0
ARC
8
0
6
CONTINUOUS
10
121.5
20
-126.25
40
2
50
270
51
0
0
ARC
8
0
6
CONTINUOUS
10
121.5
20
-111.75
40
2
50
0
51
90
0
ARC
8
0
6
CONTINUOUS
10
102.25
20
-111.75
40
2
50
90
51
180
0
ARC
8
0
6
CONTINUOUS
10
102.25
20
-126.25
40
2
50
180
51
270
0
ARC
8
0
6
CONTINUOUS
10
121.5
20
-164.25
40
2
50
270
51
0
0
ARC
8
0
6
CONTINUOUS
10
121.5
20
-149.75
40
2
50
0
51
90
0
ARC
8
0
6
CONTINUOUS
10
102.25
20
-149.75
40
2
50
90
51
180
0
ARC
8
0
6
CONTINUOUS
10
102.25
20
-164.25
40
2
50
180
51
270
0
ARC
8
0
6
CONTINUOUS
10
116.75
20
-107.25
40
2
50
270
51
0
0
ARC
8
0
6
CONTINUOUS
10
116.75
20
-92.75
40
2
50
0
51
90
0
ARC
8
0
6
CONTINUOUS
10
102.25
20
-92.75
40
2
50
90
51
180
0
ARC
8
0
6
CONTINUOUS
10
102.25
20
-107.25
40
2
50
180
51
270
0
ARC
8
0
6
CONTINUOUS
10
135.75
20
-107.25
40
2
50
270
51
0
0
ARC
8
0
6
CONTINUOUS
10
135.75
20
-92.75
40
2
50
0
51
90
0
ARC
8
0
6
CONTINUOUS
10
121.25
20
-92.75
40
2
50
90
51
180
0
ARC
8
0
6
CONTINUOUS
10
121.25
20
-107.25
40
2
50
180
51
270
0
ARC
8
0
6
CONTINUOUS
10
154.75
20
-107.25
40
2
50
270
51
0
0
ARC
8
0
6
CONTINUOUS
10
154.75
20
-92.75
40
2
50
0
51
90
0
ARC
8
0
6
CONTINUOUS
10
140.25
20
-92.75
40
2
50
90
51
180
0
ARC
8
0
6
CONTINUOUS
10
140.25
20
-107.25
40
2
50
180
51
270
0
ARC
8
0
6
CONTINUOUS
10
173.75
20
-107.25
40
2
50
270
51
0
0
ARC
8
0
6
CONTINUOUS
10
173.75
20
-92.75
40
2
50
0
51
90
0
ARC
8
0
6
CONTINUOUS
10
159.25
20
-92.75
40
2
50
90
51
180
0
ARC
8
0
6
CONTINUOUS
10
159.25
20
-107.25
40
2
50
180
51
270
0
ARC
8
0
6
CONTINUOUS
10
192.75
20
-107.25
40
2
50
270
51
0
0
ARC
8
0
6
CONTINUOUS
10
192.75
20
-92.75
40
2
50
0
51
90
0
ARC
8
0
6
CONTINUOUS
10
178.25
20
-92.75
40
2
50
90
51
180
0
ARC
8
0
6
CONTINUOUS
10
178.25
20
-107.25
40
2
50
180
51
270
0
ARC
8
0
6
CONTINUOUS
10
211.75
20
-107.25
40
2
50
270
51
0
0
ARC
8
0
6
CONTINUOUS
10
211.75
20
-92.75
40
2
50
0
51
90
0
ARC
8
0
6
CONTINUOUS
10
197.25
20
-92.75
40
2
50
90
51
180
0
ARC
8
0
6
CONTINUOUS
10
197.25
20
-107.25
40
2
50
180
51
270
0
ARC
8
0
6
CONTINUOUS
10
140.5
20
-126.25
40
2
50
270
51
0
0
ARC
8
0
6
CONTINUOUS
10
140.5
20
-111.75
40
2
50
0
51
90
0
ARC
8
0
6
CONTINUOUS
10
126
20
-111.75
40
2
50
90
51
180
0
ARC
8
0
6
CONTINUOUS
10
126
20
-126.25
40
2
50
180
51
270
0
ARC
8
0
6
CONTINUOUS
10
159.5
20
-126.25
40
2
50
270
51
0
0
ARC
8
0
6
CONTINUOUS
10
159.5
20
-111.75
40
2
50
0
51
90
0
ARC
8
0
6
CONTINUOUS
10
145
20
-111.75
40
2
50
90
51
180
0
ARC
8
0
6
CONTINUOUS
10
145
20
-126.25
40
2
50
180
51
270
0
ARC
8
0
6
CONTINUOUS
10
178.5
20
-126.25
40
2
50
270
51
0
0
ARC
8
0
6
CONTINUOUS
10
178.5
20
-111.75
40
2
50
0
51
90
0
ARC
8
0
6
CONTINUOUS
10
164
20
-111.75
40
2
50
90
51
180
0
ARC
8
0
6
CONTINUOUS
10
164
20
-126.25
40
2
50
180
51
270
0
ARC
8
0
6
CONTINUOUS
10
197.5
20
-126.25
40
2
50
270
51
0
0
ARC
8
0
6
CONTINUOUS
10
197.5
20
-111.75
40
2
50
0
51
90
0
ARC
8
0
6
CONTINUOUS
10
183
20
-111.75
40
2
50
90
51
180
0
ARC
8
0
6
CONTINUOUS
10
183
20
-126.25
40
2
50
180
51
270
0
ARC
8
0
6
CONTINUOUS
10
216.5
20
-126.25
40
2
50
270
51
0
0
ARC
8
0
6
CONTINUOUS
10
216.5
20
-111.75
40
2
50
0
51
90
0
ARC
8
0
6
CONTINUOUS
10
202
20
-111.75
40
2
50
90
51
180
0
ARC
8
0
6
CONTINUOUS
10
202
20
-126.25
40
2
50
180
51
270
0
ARC
8
0
6
CONTINUOUS
10
150
20
-145.25
40
2
50
270
51
0
0
ARC
8
0
6
CONTINUOUS
10
150
20
-130.75
40
2
50
0
51
90
0
ARC
8
0
6
CONTINUOUS
10
135.5
20
-130.75
40
2
50
90
51
180
0
ARC
8
0
6
CONTINUOUS
10
135.5
20
-145.25
40
2
50
180
51
270
0
ARC
8
0
6
CONTINUOUS
10
169
20
-145.25
40
2
50
270
51
0
0
ARC
8
0
6
CONTINUOUS
10
169
20
-130.75
40
2
50
0
51
90
0
ARC
8
0
6
CONTINUOUS
10
154.5
20
-130.75
40
2
50
90
51
180
0
ARC
8
0
6
CONTINUOUS
10
154.5
20
-145.25
40
2
50
180
51
270
0
ARC
8
0
6
CONTINUOUS
10
188
20
-145.25
40
2
50
270
51
0
0
ARC
8
0
6
CONTINUOUS
10
188
20
-130.75
40
2
50
0
51
90
0
ARC
8
0
6
CONTINUOUS
10
173.5
20
-130.75
40
2
50
90
51
180
0
ARC
8
0
6
CONTINUOUS
10
173.5
20
-145.25
40
2
50
180
51
270
0
ARC
8
0
6
CONTINUOUS
10
207
20
-145.25
40
2
50
270
51
0
0
ARC
8
0
6
CONTINUOUS
10
207
20
-130.75
40
2
50
0
51
90
0
ARC
8
0
6
CONTINUOUS
10
192.5
20
-130.75
40
2
50
90
51
180
0
ARC
8
0
6
CONTINUOUS
10
192.5
20
-145.25
40
2
50
180
51
270
0
ARC
8
0
6
CONTINUOUS
10
226
20
-145.25
40
2
50
270
51
0
0
ARC
8
0
6
CONTINUOUS
10
226
20
-130.75
40
2
50
0
51
90
0
ARC
8
0
6
CONTINUOUS
10
211.5
20
-130.75
40
2
50
90
51
180
0
ARC
8
0
6
CONTINUOUS
10
211.5
20
-145.25
40
2
50
180
51
270
0
ARC
8
0
6
CONTINUOUS
10
207.45
20
-168.05
40
2
50
270
51
0
0
ARC
8
0
6
CONTINUOUS
10
207.45
20
-153.55
40
2
50
0
51
90
0
ARC
8
0
6
CONTINUOUS
10
192.95
20
-153.55
40
2
50
90
51
180
0
ARC
8
0
6
CONTINUOUS
10
192.95
20
-168.05
40
2
50
180
51
270
0
LINE
8
0
6
CONTINUOUS
10
147.155
20
-164.25
11
147.155
21
-149.75
0
LINE
8
0
6
CONTINUOUS
10
123.905
20
-149.75
11
123.905
21
-164.25
0
ARC
8
0
6
CONTINUOUS
10
145.155
20
-164.25
40
2
50
270
51
0
0
ARC
8
0
6
CONTINUOUS
10
145.155
20
-149.75
40
2
50
0
51
90
0
ARC
8
0
6
CONTINUOUS
10
125.905
20
-149.75
40
2
50
90
51
180
0
ARC
8
0
6
CONTINUOUS
10
125.905
20
-164.25
40
2
50
180
51
270
0
ENDSEC
0
EOF