0
SECTION
2
HEADER
9
$INSUNITS
70
4
0
ENDSEC
0
SECTION
2
TABLES
0
TABLE
2
LTYPE
0
LTYPE
72
65
70
0
2
CONTINUOUS
3
______
73
0
40
0
0
LTYPE
72
65
70
0
2
DASHED
3
_ _ _ 
73
2
40
7.5
49
5
49
-2.5
0
LTYPE
72
65
70
0
2
DOTTED
3
. . . 
73
2
40
1.5
49
0.5
49
-1
0
ENDTAB
0
TABLE
2
LAYER
0
ENDTAB
0
ENDSEC
0
SECTION
2
ENTITIES
0
LINE
8
0
6
CONTINUOUS
10
142.75
20
-109.25
11
157.25
21
-109.25
0
LINE
8
0
6
CONTINUOUS
10
159.25
20
-107.25
11
159.25
21
-92.75
0
LINE
8
0
6
CONTINUOUS
10
157.25
20
-90.75
11
142.75
21
-90.75
0
LINE
8
0
6
CONTINUOUS
10
140.75
20
-92.75
11
140.75
21
-107.25
0
LINE
8
0
6
CONTINUOUS
10
161.75
20
-109.25
11
176.25
21
-109.25
0
LINE
8
0
6
CONTINUOUS
10
178.25
20
-107.25
11
178.25
21
-92.75
0
LINE
8
0
6
CONTINUOUS
10
176.25
20
-90.75
11
161.75
21
-90.75
0
LINE
8
0
6
CONTINUOUS
10
159.75
20
-92.75
11
159.75
21
-107.25
0
LINE
8
0
6
CONTINUOUS
10
180.75
20
-109.25
11
195.25
21
-109.25
0
LINE
8
0
6
CONTINUOUS
10
197.25
20
-107.25
11
197.25
21
-92.75
0
LINE
8
0
6
CONTINUOUS
10
195.25
20
-90.75
11
180.75
21
-90.75
0
LINE
8
0
6
CONTINUOUS
10
178.75
20
-92.75
11
178.75
21
-107.25
0
LINE
8
0
6
CONTINUOUS
10
199.75
20
-109.25
11
214.25
21
-109.25
0
LINE
8
0
6
CONTINUOUS
10
216.25
20
-107.25
11
216.25
21
-92.75
0
LINE
8
0
6
CONTINUOUS
10
214.25
20
-90.75
11
199.75
21
-90.75
0
LINE
8
0
6
CONTINUOUS
10
197.75
20
-92.75
11
197.75
21
-107.25
0
LINE
8
0
6
CONTINUOUS
10
218.75
20
-109.25
11
233.25
21
-109.25
0
LINE
8
0
6
CONTINUOUS
10
235.25
20
-107.25
11
235.25
21
-92.75
0
LINE
8
0
6
CONTINUOUS
10
233.25
20
-90.75
11
218.75
21
-90.75
0
LINE
8
0
6
CONTINUOUS
10
216.75
20
-92.75
11
216.75
21
-107.25
0
LINE
8
0
6
CONTINUOUS
10
237.75
20
-109.25
11
252.25
21
-109.25
0
LINE
8
0
6
CONTINUOUS
10
254.25
20
-107.25
11
254.25
21
-92.75
0
LINE
8
0
6
CONTINUOUS
10
252.25
20
-90.75
11
237.75
21
-90.75
0
LINE
8
0
6
CONTINUOUS
10
235.75
20
-92.75
11
235.75
21
-107.25
0
LINE
8
0
6
CONTINUOUS
10
256.75
20
-109.25
11
271.25
21
-109.25
0
LINE
8
0
6
CONTINUOUS
10
273.25
20
-107.25
11
273.25
21
-92.75
0
LINE
8
0
6
CONTINUOUS
10
271.25
20
-90.75
11
256.75
21
-90.75
0
LINE
8
0
6
CONTINUOUS
10
254.75
20
-92.75
11
254.75
21
-107.25
0
LINE
8
0
6
CONTINUOUS
10
149.78
20
-128.25
11
164.28
21
-128.25
0
LINE
8
0
6
CONTINUOUS
10
166.28
20
-126.25
11
166.28
21
-111.75
0
LINE
8
0
6
CONTINUOUS
10
164.28
20
-109.75
11
149.78
21
-109.75
0
LINE
8
0
6
CONTINUOUS
10
147.78
20
-111.75
11
147.78
21
-126.25
0
LINE
8
0
6
CONTINUOUS
10
168.78
20
-128.25
11
183.28
21
-128.25
0
LINE
8
0
6
CONTINUOUS
10
185.28
20
-126.25
11
185.28
21
-111.75
0
LINE
8
0
6
CONTINUOUS
10
183.28
20
-109.75
11
168.78
21
-109.75
0
LINE
8
0
6
CONTINUOUS
10
166.78
20
-111.75
11
166.78
21
-126.25
0
LINE
8
0
6
CONTINUOUS
10
187.78
20
-128.25
11
202.28
21
-128.25
0
LINE
8
0
6
CONTINUOUS
10
204.28
20
-126.25
11
204.28
21
-111.75
0
LINE
8
0
6
CONTINUOUS
10
202.28
20
-109.75
11
187.78
21
-109.75
0
LINE
8
0
6
CONTINUOUS
10
185.78
20
-111.75
11
185.78
21
-126.25
0
LINE
8
0
6
CONTINUOUS
10
206.78
20
-128.25
11
221.28
21
-128.25
0
LINE
8
0
6
CONTINUOUS
10
223.28
20
-126.25
11
223.28
21
-111.75
0
LINE
8
0
6
CONTINUOUS
10
221.28
20
-109.75
11
206.78
21
-109.75
0
LINE
8
0
6
CONTINUOUS
10
204.78
20
-111.75
11
204.78
21
-126.25
0
LINE
8
0
6
CONTINUOUS
10
225.78
20
-128.25
11
240.28
21
-128.25
0
LINE
8
0
6
CONTINUOUS
10
242.28
20
-126.25
11
242.28
21
-111.75
0
LINE
8
0
6
CONTINUOUS
10
240.28
20
-109.75
11
225.78
21
-109.75
0
LINE
8
0
6
CONTINUOUS
10
223.78
20
-111.75
11
223.78
21
-126.25
0
LINE
8
0
6
CONTINUOUS
10
139.75
20
-147.25
11
154.25
21
-147.25
0
LINE
8
0
6
CONTINUOUS
10
156.25
20
-145.25
11
156.25
21
-130.75
0
LINE
8
0
6
CONTINUOUS
10
154.25
20
-128.75
11
139.75
21
-128.75
0
LINE
8
0
6
CONTINUOUS
10
137.75
20
-130.75
11
137.75
21
-145.25
0
LINE
8
0
6
CONTINUOUS
10
158.75
20
-147.25
11
173.25
21
-147.25
0
LINE
8
0
6
CONTINUOUS
10
175.25
20
-145.25
11
175.25
21
-130.75
0
LINE
8
0
6
CONTINUOUS
10
173.25
20
-128.75
11
158.75
21
-128.75
0
LINE
8
0
6
CONTINUOUS
10
156.75
20
-130.75
11
156.75
21
-145.25
0
LINE
8
0
6
CONTINUOUS
10
177.75
20
-147.25
11
192.25
21
-147.25
0
LINE
8
0
6
CONTINUOUS
10
194.25
20
-145.25
11
194.25
21
-130.75
0
LINE
8
0
6
CONTINUOUS
10
192.25
20
-128.75
11
177.75
21
-128.75
0
LINE
8
0
6
CONTINUOUS
10
175.75
20
-130.75
11
175.75
21
-145.25
0
LINE
8
0
6
CONTINUOUS
10
196.75
20
-147.25
11
211.25
21
-147.25
0
LINE
8
0
6
CONTINUOUS
10
213.25
20
-145.25
11
213.25
21
-130.75
0
LINE
8
0
6
CONTINUOUS
10
211.25
20
-128.75
11
196.75
21
-128.75
0
LINE
8
0
6
CONTINUOUS
10
194.75
20
-130.75
11
194.75
21
-145.25
0
LINE
8
0
6
CONTINUOUS
10
215.75
20
-147.25
11
230.25
21
-147.25
0
LINE
8
0
6
CONTINUOUS
10
232.25
20
-145.25
11
232.25
21
-130.75
0
LINE
8
0
6
CONTINUOUS
10
230.25
20
-128.75
11
215.75
21
-128.75
0
LINE
8
0
6
CONTINUOUS
10
213.75
20
-130.75
11
213.75
21
-145.25
0
LINE
8
0
6
CONTINUOUS
10
234.75
20
-147.25
11
249.25
21
-147.25
0
LINE
8
0
6
CONTINUOUS
10
251.25
20
-145.25
11
251.25
21
-130.75
0
LINE
8
0
6
CONTINUOUS
10
249.25
20
-128.75
11
234.75
21
-128.75
0
LINE
8
0
6
CONTINUOUS
10
232.75
20
-130.75
11
232.75
21
-145.25
0
LINE
8
0
6
CONTINUOUS
10
253.75
20
-147.25
11
268.25
21
-147.25
0
LINE
8
0
6
CONTINUOUS
10
270.25
20
-145.25
11
270.25
21
-130.75
0
LINE
8
0
6
CONTINUOUS
10
268.25
20
-128.75
11
253.75
21
-128.75
0
LINE
8
0
6
CONTINUOUS
10
251.75
20
-130.75
11
251.75
21
-145.25
0
LINE
8
0
6
CONTINUOUS
10
215.75
20
-166.25
11
230.25
21
-166.25
0
LINE
8
0
6
CONTINUOUS
10
232.25
20
-164.25
11
232.25
21
-149.75
0
LINE
8
0
6
CONTINUOUS
10
230.25
20
-147.75
11
215.75
21
-147.75
0
LINE
8
0
6
CONTINUOUS
10
213.75
20
-149.75
11
213.75
21
-164.25
0
LINE
8
0
6
CONTINUOUS
10
234.75
20
-166.25
11
249.25
21
-166.25
0
LINE
8
0
6
CONTINUOUS
10
251.25
20
-164.25
11
251.25
21
-149.75
0
LINE
8
0
6
CONTINUOUS
10
249.25
20
-147.75
11
234.75
21
-147.75
0
LINE
8
0
6
CONTINUOUS
10
232.75
20
-149.75
11
232.75
21
-164.25
0
LINE
8
0
6
CONTINUOUS
10
253.75
20
-166.25
11
268.25
21
-166.25
0
LINE
8
0
6
CONTINUOUS
10
270.25
20
-164.25
11
270.25
21
-149.75
0
LINE
8
0
6
CONTINUOUS
10
268.25
20
-147.75
11
253.75
21
-147.75
0
LINE
8
0
6
CONTINUOUS
10
251.75
20
-149.75
11
251.75
21
-164.25
0
LINE
8
0
6
CONTINUOUS
10
161.25
20
-170.05
11
175.75
21
-170.05
0
LINE
8
0
6
CONTINUOUS
10
177.75
20
-168.05
11
177.75
21
-153.55
0
LINE
8
0
6
CONTINUOUS
10
175.75
20
-151.55
11
161.25
21
-151.55
0
LINE
8
0
6
CONTINUOUS
10
159.25
20
-153.55
11
159.25
21
-168.05
0
LINE
8
0
6
CONTINUOUS
10
245.48
20
-128.5
11
268.08
21
-128.5
0
LINE
8
0
6
CONTINUOUS
10
270.08
20
-126.5
11
270.08
21
-111.5
0
LINE
8
0
6
CONTINUOUS
10
268.08
20
-109.5
11
245.48
21
-109.5
0
LINE
8
0
6
CONTINUOUS
10
243.48
20
-111.5
11
243.48
21
-126.5
0
LINE
8
0
6
CONTINUOUS
10
127.75
20
-170.3
11
152.25
21
-170.3
0
LINE
8
0
6
CONTINUOUS
10
154.25
20
-168.3
11
154.25
21
-153.3
0
LINE
8
0
6
CONTINUOUS
10
152.25
20
-151.3
11
127.75
21
-151.3
0
LINE
8
0
6
CONTINUOUS
10
125.75
20
-153.3
11
125.75
21
-168.3
0
ARC
8
0
6
CONTINUOUS
10
152.25
20
-168.3
40
2
50
270
51
0
0
ARC
8
0
6
CONTINUOUS
10
152.25
20
-153.3
40
2
50
0
51
90
0
ARC
8
0
6
CONTINUOUS
10
127.75
20
-153.3
40
2
50
90
51
180
0
ARC
8
0
6
CONTINUOUS
10
127.75
20
-168.3
40
2
50
180
51
270
0
ARC
8
0
6
CONTINUOUS
10
268.08
20
-126.5
40
2
50
270
51
0
0
ARC
8
0
6
CONTINUOUS
10
268.08
20
-111.5
40
2
50
0
51
90
0
ARC
8
0
6
CONTINUOUS
10
245.48
20
-111.5
40
2
50
90
51
180
0
ARC
8
0
6
CONTINUOUS
10
245.48
20
-126.5
40
2
50
180
51
270
0
ARC
8
0
6
CONTINUOUS
10
157.25
20
-107.25
40
2
50
270
51
0
0
ARC
8
0
6
CONTINUOUS
10
157.25
20
-92.75
40
2
50
0
51
90
0
ARC
8
0
6
CONTINUOUS
10
142.75
20
-92.75
40
2
50
90
51
180
0
ARC
8
0
6
CONTINUOUS
10
142.75
20
-107.25
40
2
50
180
51
270
0
ARC
8
0
6
CONTINUOUS
10
176.25
20
-107.25
40
2
50
270
51
0
0
ARC
8
0
6
CONTINUOUS
10
176.25
20
-92.75
40
2
50
0
51
90
0
ARC
8
0
6
CONTINUOUS
10
161.75
20
-92.75
40
2
50
90
51
180
0
ARC
8
0
6
CONTINUOUS
10
161.75
20
-107.25
40
2
50
180
51
270
0
ARC
8
0
6
CONTINUOUS
10
195.25
20
-107.25
40
2
50
270
51
0
0
ARC
8
0
6
CONTINUOUS
10
195.25
20
-92.75
40
2
50
0
51
90
0
ARC
8
0
6
CONTINUOUS
10
180.75
20
-92.75
40
2
50
90
51
180
0
ARC
8
0
6
CONTINUOUS
10
180.75
20
-107.25
40
2
50
180
51
270
0
ARC
8
0
6
CONTINUOUS
10
214.25
20
-107.25
40
2
50
270
51
0
0
ARC
8
0
6
CONTINUOUS
10
214.25
20
-92.75
40
2
50
0
51
90
0
ARC
8
0
6
CONTINUOUS
10
199.75
20
-92.75
40
2
50
90
51
180
0
ARC
8
0
6
CONTINUOUS
10
199.75
20
-107.25
40
2
50
180
51
270
0
ARC
8
0
6
CONTINUOUS
10
233.25
20
-107.25
40
2
50
270
51
0
0
ARC
8
0
6
CONTINUOUS
10
233.25
20
-92.75
40
2
50
0
51
90
0
ARC
8
0
6
CONTINUOUS
10
218.75
20
-92.75
40
2
50
90
51
180
0
ARC
8
0
6
CONTINUOUS
10
218.75
20
-107.25
40
2
50
180
51
270
0
ARC
8
0
6
CONTINUOUS
10
252.25
20
-107.25
40
2
50
270
51
0
0
ARC
8
0
6
CONTINUOUS
10
252.25
20
-92.75
40
2
50
0
51
90
0
ARC
8
0
6
CONTINUOUS
10
237.75
20
-92.75
40
2
50
90
51
180
0
ARC
8
0
6
CONTINUOUS
10
237.75
20
-107.25
40
2
50
180
51
270
0
ARC
8
0
6
CONTINUOUS
10
271.25
20
-107.25
40
2
50
270
51
0
0
ARC
8
0
6
CONTINUOUS
10
271.25
20
-92.75
40
2
50
0
51
90
0
ARC
8
0
6
CONTINUOUS
10
256.75
20
-92.75
40
2
50
90
51
180
0
ARC
8
0
6
CONTINUOUS
10
256.75
20
-107.25
40
2
50
180
51
270
0
ARC
8
0
6
CONTINUOUS
10
164.28
20
-126.25
40
2
50
270
51
0
0
ARC
8
0
6
CONTINUOUS
10
164.28
20
-111.75
40
2
50
0
51
90
0
ARC
8
0
6
CONTINUOUS
10
149.78
20
-111.75
40
2
50
90
51
180
0
ARC
8
0
6
CONTINUOUS
10
149.78
20
-126.25
40
2
50
180
51
270
0
ARC
8
0
6
CONTINUOUS
10
183.28
20
-126.25
40
2
50
270
51
0
0
ARC
8
0
6
CONTINUOUS
10
183.28
20
-111.75
40
2
50
0
51
90
0
ARC
8
0
6
CONTINUOUS
10
168.78
20
-111.75
40
2
50
90
51
180
0
ARC
8
0
6
CONTINUOUS
10
168.78
20
-126.25
40
2
50
180
51
270
0
ARC
8
0
6
CONTINUOUS
10
202.28
20
-126.25
40
2
50
270
51
0
0
ARC
8
0
6
CONTINUOUS
10
202.28
20
-111.75
40
2
50
0
51
90
0
ARC
8
0
6
CONTINUOUS
10
187.78
20
-111.75
40
2
50
90
51
180
0
ARC
8
0
6
CONTINUOUS
10
187.78
20
-126.25
40
2
50
180
51
270
0
ARC
8
0
6
CONTINUOUS
10
221.28
20
-126.25
40
2
50
270
51
0
0
ARC
8
0
6
CONTINUOUS
10
221.28
20
-111.75
40
2
50
0
51
90
0
ARC
8
0
6
CONTINUOUS
10
206.78
20
-111.75
40
2
50
90
51
180
0
ARC
8
0
6
CONTINUOUS
10
206.78
20
-126.25
40
2
50
180
51
270
0
ARC
8
0
6
CONTINUOUS
10
240.28
20
-126.25
40
2
50
270
51
0
0
ARC
8
0
6
CONTINUOUS
10
240.28
20
-111.75
40
2
50
0
51
90
0
ARC
8
0
6
CONTINUOUS
10
225.78
20
-111.75
40
2
50
90
51
180
0
ARC
8
0
6
CONTINUOUS
10
225.78
20
-126.25
40
2
50
180
51
270
0
ARC
8
0
6
CONTINUOUS
10
154.25
20
-145.25
40
2
50
270
51
0
0
ARC
8
0
6
CONTINUOUS
10
154.25
20
-130.75
40
2
50
0
51
90
0
ARC
8
0
6
CONTINUOUS
10
139.75
20
-130.75
40
2
50
90
51
180
0
ARC
8
0
6
CONTINUOUS
10
139.75
20
-145.25
40
2
50
180
51
270
0
ARC
8
0
6
CONTINUOUS
10
173.25
20
-145.25
40
2
50
270
51
0
0
ARC
8
0
6
CONTINUOUS
10
173.25
20
-130.75
40
2
50
0
51
90
0
ARC
8
0
6
CONTINUOUS
10
158.75
20
-130.75
40
2
50
90
51
180
0
ARC
8
0
6
CONTINUOUS
10
158.75
20
-145.25
40
2
50
180
51
270
0
ARC
8
0
6
CONTINUOUS
10
192.25
20
-145.25
40
2
50
270
51
0
0
ARC
8
0
6
CONTINUOUS
10
192.25
20
-130.75
40
2
50
0
51
90
0
ARC
8
0
6
CONTINUOUS
10
177.75
20
-130.75
40
2
50
90
51
180
0
ARC
8
0
6
CONTINUOUS
10
177.75
20
-145.25
40
2
50
180
51
270
0
ARC
8
0
6
CONTINUOUS
10
211.25
20
-145.25
40
2
50
270
51
0
0
ARC
8
0
6
CONTINUOUS
10
211.25
20
-130.75
40
2
50
0
51
90
0
ARC
8
0
6
CONTINUOUS
10
196.75
20
-130.75
40
2
50
90
51
180
0
ARC
8
0
6
CONTINUOUS
10
196.75
20
-145.25
40
2
50
180
51
270
0
ARC
8
0
6
CONTINUOUS
10
230.25
20
-145.25
40
2
50
270
51
0
0
ARC
8
0
6
CONTINUOUS
10
230.25
20
-130.75
40
2
50
0
51
90
0
ARC
8
0
6
CONTINUOUS
10
215.75
20
-130.75
40
2
50
90
51
180
0
ARC
8
0
6
CONTINUOUS
10
215.75
20
-145.25
40
2
50
180
51
270
0
ARC
8
0
6
CONTINUOUS
10
249.25
20
-145.25
40
2
50
270
51
0
0
ARC
8
0
6
CONTINUOUS
10
249.25
20
-130.75
40
2
50
0
51
90
0
ARC
8
0
6
CONTINUOUS
10
234.75
20
-130.75
40
2
50
90
51
180
0
ARC
8
0
6
CONTINUOUS
10
234.75
20
-145.25
40
2
50
180
51
270
0
ARC
8
0
6
CONTINUOUS
10
268.25
20
-145.25
40
2
50
270
51
0
0
ARC
8
0
6
CONTINUOUS
10
268.25
20
-130.75
40
2
50
0
51
90
0
ARC
8
0
6
CONTINUOUS
10
253.75
20
-130.75
40
2
50
90
51
180
0
ARC
8
0
6
CONTINUOUS
10
253.75
20
-145.25
40
2
50
180
51
270
0
ARC
8
0
6
CONTINUOUS
10
230.25
20
-164.25
40
2
50
270
51
0
0
ARC
8
0
6
CONTINUOUS
10
230.25
20
-149.75
40
2
50
0
51
90
0
ARC
8
0
6
CONTINUOUS
10
215.75
20
-149.75
40
2
50
90
51
180
0
ARC
8
0
6
CONTINUOUS
10
215.75
20
-164.25
40
2
50
180
51
270
0
ARC
8
0
6
CONTINUOUS
10
249.25
20
-164.25
40
2
50
270
51
0
0
ARC
8
0
6
CONTINUOUS
10
249.25
20
-149.75
40
2
50
0
51
90
0
ARC
8
0
6
CONTINUOUS
10
234.75
20
-149.75
40
2
50
90
51
180
0
ARC
8
0
6
CONTINUOUS
10
234.75
20
-164.25
40
2
50
180
51
270
0
ARC
8
0
6
CONTINUOUS
10
268.25
20
-164.25
40
2
50
270
51
0
0
ARC
8
0
6
CONTINUOUS
10
268.25
20
-149.75
40
2
50
0
51
90
0
ARC
8
0
6
CONTINUOUS
10
253.75
20
-149.75
40
2
50
90
51
180
0
ARC
8
0
6
CONTINUOUS
10
253.75
20
-164.25
40
2
50
180
51
270
0
ARC
8
0
6
CONTINUOUS
10
175.75
20
-168.05
40
2
50
270
51
0
0
ARC
8
0
6
CONTINUOUS
10
175.75
20
-153.55
40
2
50
0
51
90
0
ARC
8
0
6
CONTINUOUS
10
161.25
20
-153.55
40
2
50
90
51
180
0
ARC
8
0
6
CONTINUOUS
10
161.25
20
-168.05
40
2
50
180
51
270
0
ENDSEC
0
EOF