0
SECTION
2
HEADER
9
$INSUNITS
70
4
0
ENDSEC
0
SECTION
2
TABLES
0
TABLE
2
LTYPE
0
LTYPE
72
65
70
0
2
CONTINUOUS
3
______
73
0
40
0
0
LTYPE
72
65
70
0
2
DASHED
3
_ _ _ 
73
2
40
7.5
49
5
49
-2.5
0
LTYPE
72
65
70
0
2
DOTTED
3
. . . 
73
2
40
1.5
49
0.5
49
-1
0
ENDTAB
0
TABLE
2
LAYER
0
ENDTAB
0
ENDSEC
0
SECTION
2
ENTITIES
0
LINE
8
0
6
CONTINUOUS
10
100
20
-109.5
11
102.28
21
-109.5
0
LINE
8
0
6
CONTINUOUS
10
100
20
-90.5
11
214
21
-90.5
0
LINE
8
0
6
CONTINUOUS
10
100
20
-90.5
11
100
21
-109.5
0
LINE
8
0
6
CONTINUOUS
10
121.28
20
-109.5
11
123.75
21
-109.5
0
LINE
8
0
6
CONTINUOUS
10
214
20
-109.5
11
214
21
-90.5
0
LINE
8
0
6
CONTINUOUS
10
102.28
20
-128.5
11
107.03
21
-128.5
0
LINE
8
0
6
CONTINUOUS
10
121.28
20
-128.5
11
121.28
21
-109.5
0
LINE
8
0
6
CONTINUOUS
10
102.28
20
-109.5
11
102.28
21
-128.5
0
LINE
8
0
6
CONTINUOUS
10
126.03
20
-128.5
11
133.25
21
-128.5
0
LINE
8
0
6
CONTINUOUS
10
123.75
20
-109.5
11
123.75
21
-128.5
0
LINE
8
0
6
CONTINUOUS
10
218.75
20
-128.5
11
218.75
21
-109.5
0
LINE
8
0
6
CONTINUOUS
10
218.75
20
-109.5
11
214
21
-109.5
0
LINE
8
0
6
CONTINUOUS
10
121.28
20
-147.5
11
133.25
21
-147.5
0
LINE
8
0
6
CONTINUOUS
10
126.03
20
-166.5
11
126.03
21
-128.5
0
LINE
8
0
6
CONTINUOUS
10
123.75
20
-128.5
11
121.28
21
-128.5
0
LINE
8
0
6
CONTINUOUS
10
107.03
20
-128.5
11
107.03
21
-147.5
0
LINE
8
0
6
CONTINUOUS
10
145.03
20
-147.5
11
228.25
21
-147.5
0
LINE
8
0
6
CONTINUOUS
10
133.25
20
-128.5
11
133.25
21
-147.5
0
LINE
8
0
6
CONTINUOUS
10
228.25
20
-147.5
11
228.25
21
-128.5
0
LINE
8
0
6
CONTINUOUS
10
228.25
20
-128.5
11
218.75
21
-128.5
0
LINE
8
0
6
CONTINUOUS
10
102.28
20
-166.5
11
121.28
21
-166.5
0
LINE
8
0
6
CONTINUOUS
10
121.28
20
-166.5
11
121.28
21
-147.5
0
LINE
8
0
6
CONTINUOUS
10
107.03
20
-147.5
11
102.28
21
-147.5
0
LINE
8
0
6
CONTINUOUS
10
102.28
20
-147.5
11
102.28
21
-166.5
0
LINE
8
0
6
CONTINUOUS
10
126.03
20
-166.5
11
145.03
21
-166.5
0
LINE
8
0
6
CONTINUOUS
10
145.03
20
-166.5
11
145.03
21
-147.5
0
LINE
8
0
6
CONTINUOUS
10
199.6130528
20
-167.2714297
11
218.4714297
21
-169.5869472
0
LINE
8
0
6
CONTINUOUS
10
218.4714297
20
-169.5869472
11
220.7869472
21
-150.7285703
0
LINE
8
0
6
CONTINUOUS
10
220.7869472
20
-150.7285703
11
201.9285703
21
-148.4130528
0
LINE
8
0
6
CONTINUOUS
10
201.9285703
20
-148.4130528
11
199.6130528
21
-167.2714297
0
LINE
8
0
6
CONTINUOUS
10
238.9472413
20
-173.7772413
11
248.4472413
21
-157.3227587
0
LINE
8
0
6
CONTINUOUS
10
248.4472413
20
-157.3227587
11
231.9927587
21
-147.8227587
0
LINE
8
0
6
CONTINUOUS
10
231.9927587
20
-147.8227587
11
222.4927587
21
-164.2772413
0
LINE
8
0
6
CONTINUOUS
10
222.4927587
20
-164.2772413
11
238.9472413
21
-173.7772413
0
ENDSEC
0
EOF