0
SECTION
2
HEADER
9
$INSUNITS
70
4
0
ENDSEC
0
SECTION
2
TABLES
0
TABLE
2
LTYPE
0
LTYPE
72
65
70
0
2
CONTINUOUS
3
______
73
0
40
0
0
LTYPE
72
65
70
0
2
DASHED
3
_ _ _ 
73
2
40
7.5
49
5
49
-2.5
0
LTYPE
72
65
70
0
2
DOTTED
3
. . . 
73
2
40
1.5
49
0.5
49
-1
0
ENDTAB
0
TABLE
2
LAYER
0
ENDTAB
0
ENDSEC
0
SECTION
2
ENTITIES
0
LINE
8
0
6
CONTINUOUS
10
100
20
-109.5
11
102.375
21
-109.5
0
LINE
8
0
6
CONTINUOUS
10
100
20
-90.5
11
214
21
-90.5
0
LINE
8
0
6
CONTINUOUS
10
100
20
-90.5
11
100
21
-109.5
0
LINE
8
0
6
CONTINUOUS
10
121.375
20
-109.5
11
123.75
21
-109.5
0
LINE
8
0
6
CONTINUOUS
10
214
20
-109.5
11
214
21
-90.5
0
LINE
8
0
6
CONTINUOUS
10
102.375
20
-128.5
11
107.125
21
-128.5
0
LINE
8
0
6
CONTINUOUS
10
121.375
20
-128.5
11
121.375
21
-109.5
0
LINE
8
0
6
CONTINUOUS
10
102.375
20
-109.5
11
102.375
21
-128.5
0
LINE
8
0
6
CONTINUOUS
10
126.125
20
-128.5
11
133.25
21
-128.5
0
LINE
8
0
6
CONTINUOUS
10
123.75
20
-109.5
11
123.75
21
-128.5
0
LINE
8
0
6
CONTINUOUS
10
218.75
20
-128.5
11
218.75
21
-109.5
0
LINE
8
0
6
CONTINUOUS
10
218.75
20
-109.5
11
214
21
-109.5
0
LINE
8
0
6
CONTINUOUS
10
121.375
20
-147.5
11
126.03
21
-147.5
0
LINE
8
0
6
CONTINUOUS
10
126.125
20
-147.5
11
126.125
21
-128.5
0
LINE
8
0
6
CONTINUOUS
10
123.75
20
-128.5
11
121.375
21
-128.5
0
LINE
8
0
6
CONTINUOUS
10
107.125
20
-128.5
11
107.125
21
-147.5
0
LINE
8
0
6
CONTINUOUS
10
145.03
20
-147.5
11
228.25
21
-147.5
0
LINE
8
0
6
CONTINUOUS
10
133.25
20
-128.5
11
133.25
21
-147.5
0
LINE
8
0
6
CONTINUOUS
10
228.25
20
-147.5
11
228.25
21
-128.5
0
LINE
8
0
6
CONTINUOUS
10
228.25
20
-128.5
11
218.75
21
-128.5
0
LINE
8
0
6
CONTINUOUS
10
102.375
20
-166.5
11
121.375
21
-166.5
0
LINE
8
0
6
CONTINUOUS
10
121.375
20
-166.5
11
121.375
21
-147.5
0
LINE
8
0
6
CONTINUOUS
10
107.125
20
-147.5
11
102.375
21
-147.5
0
LINE
8
0
6
CONTINUOUS
10
102.375
20
-147.5
11
102.375
21
-166.5
0
LINE
8
0
6
CONTINUOUS
10
126.03
20
-166.5
11
145.03
21
-166.5
0
LINE
8
0
6
CONTINUOUS
10
145.03
20
-166.5
11
145.03
21
-147.5
0
LINE
8
0
6
CONTINUOUS
10
133.25
20
-147.5
11
126.125
21
-147.5
0
LINE
8
0
6
CONTINUOUS
10
126.03
20
-147.5
11
126.03
21
-166.5
0
LINE
8
0
6
CONTINUOUS
10
190.7
20
-170.3
11
209.7
21
-170.3
0
LINE
8
0
6
CONTINUOUS
10
209.7
20
-170.3
11
209.7
21
-151.3
0
LINE
8
0
6
CONTINUOUS
10
209.7
20
-151.3
11
190.7
21
-151.3
0
LINE
8
0
6
CONTINUOUS
10
190.7
20
-151.3
11
190.7
21
-170.3
0
LINE
8
0
6
CONTINUOUS
10
219.7
20
-170.3
11
238.7
21
-170.3
0
LINE
8
0
6
CONTINUOUS
10
238.7
20
-170.3
11
238.7
21
-151.3
0
LINE
8
0
6
CONTINUOUS
10
238.7
20
-151.3
11
219.7
21
-151.3
0
LINE
8
0
6
CONTINUOUS
10
219.7
20
-151.3
11
219.7
21
-170.3
0
ENDSEC
0
EOF