0
SECTION
2
HEADER
9
$INSUNITS
70
4
0
ENDSEC
0
SECTION
2
TABLES
0
TABLE
2
LTYPE
0
LTYPE
72
65
70
0
2
CONTINUOUS
3
______
73
0
40
0
0
LTYPE
72
65
70
0
2
DASHED
3
_ _ _ 
73
2
40
7.5
49
5
49
-2.5
0
LTYPE
72
65
70
0
2
DOTTED
3
. . . 
73
2
40
1.5
49
0.5
49
-1
0
ENDTAB
0
TABLE
2
LAYER
0
ENDTAB
0
ENDSEC
0
SECTION
2
ENTITIES
0
LINE
8
0
6
CONTINUOUS
10
101.75
20
-107.75
11
117.25
21
-107.75
0
LINE
8
0
6
CONTINUOUS
10
117.25
20
-107.75
11
117.25
21
-92.25
0
LINE
8
0
6
CONTINUOUS
10
117.25
20
-92.25
11
101.75
21
-92.25
0
LINE
8
0
6
CONTINUOUS
10
101.75
20
-92.25
11
101.75
21
-107.75
0
LINE
8
0
6
CONTINUOUS
10
120.75
20
-107.75
11
136.25
21
-107.75
0
LINE
8
0
6
CONTINUOUS
10
136.25
20
-107.75
11
136.25
21
-92.25
0
LINE
8
0
6
CONTINUOUS
10
136.25
20
-92.25
11
120.75
21
-92.25
0
LINE
8
0
6
CONTINUOUS
10
120.75
20
-92.25
11
120.75
21
-107.75
0
LINE
8
0
6
CONTINUOUS
10
139.75
20
-107.75
11
155.25
21
-107.75
0
LINE
8
0
6
CONTINUOUS
10
155.25
20
-107.75
11
155.25
21
-92.25
0
LINE
8
0
6
CONTINUOUS
10
155.25
20
-92.25
11
139.75
21
-92.25
0
LINE
8
0
6
CONTINUOUS
10
139.75
20
-92.25
11
139.75
21
-107.75
0
LINE
8
0
6
CONTINUOUS
10
158.75
20
-107.75
11
174.25
21
-107.75
0
LINE
8
0
6
CONTINUOUS
10
174.25
20
-107.75
11
174.25
21
-92.25
0
LINE
8
0
6
CONTINUOUS
10
174.25
20
-92.25
11
158.75
21
-92.25
0
LINE
8
0
6
CONTINUOUS
10
158.75
20
-92.25
11
158.75
21
-107.75
0
LINE
8
0
6
CONTINUOUS
10
177.75
20
-107.75
11
193.25
21
-107.75
0
LINE
8
0
6
CONTINUOUS
10
193.25
20
-107.75
11
193.25
21
-92.25
0
LINE
8
0
6
CONTINUOUS
10
193.25
20
-92.25
11
177.75
21
-92.25
0
LINE
8
0
6
CONTINUOUS
10
177.75
20
-92.25
11
177.75
21
-107.75
0
LINE
8
0
6
CONTINUOUS
10
196.75
20
-107.75
11
212.25
21
-107.75
0
LINE
8
0
6
CONTINUOUS
10
212.25
20
-107.75
11
212.25
21
-92.25
0
LINE
8
0
6
CONTINUOUS
10
212.25
20
-92.25
11
196.75
21
-92.25
0
LINE
8
0
6
CONTINUOUS
10
196.75
20
-92.25
11
196.75
21
-107.75
0
LINE
8
0
6
CONTINUOUS
10
104.125
20
-126.75
11
119.625
21
-126.75
0
LINE
8
0
6
CONTINUOUS
10
119.625
20
-126.75
11
119.625
21
-111.25
0
LINE
8
0
6
CONTINUOUS
10
119.625
20
-111.25
11
104.125
21
-111.25
0
LINE
8
0
6
CONTINUOUS
10
104.125
20
-111.25
11
104.125
21
-126.75
0
LINE
8
0
6
CONTINUOUS
10
125.5
20
-126.75
11
141
21
-126.75
0
LINE
8
0
6
CONTINUOUS
10
141
20
-126.75
11
141
21
-111.25
0
LINE
8
0
6
CONTINUOUS
10
141
20
-111.25
11
125.5
21
-111.25
0
LINE
8
0
6
CONTINUOUS
10
125.5
20
-111.25
11
125.5
21
-126.75
0
LINE
8
0
6
CONTINUOUS
10
144.5
20
-126.75
11
160
21
-126.75
0
LINE
8
0
6
CONTINUOUS
10
160
20
-126.75
11
160
21
-111.25
0
LINE
8
0
6
CONTINUOUS
10
160
20
-111.25
11
144.5
21
-111.25
0
LINE
8
0
6
CONTINUOUS
10
144.5
20
-111.25
11
144.5
21
-126.75
0
LINE
8
0
6
CONTINUOUS
10
163.5
20
-126.75
11
179
21
-126.75
0
LINE
8
0
6
CONTINUOUS
10
179
20
-126.75
11
179
21
-111.25
0
LINE
8
0
6
CONTINUOUS
10
179
20
-111.25
11
163.5
21
-111.25
0
LINE
8
0
6
CONTINUOUS
10
163.5
20
-111.25
11
163.5
21
-126.75
0
LINE
8
0
6
CONTINUOUS
10
182.5
20
-126.75
11
198
21
-126.75
0
LINE
8
0
6
CONTINUOUS
10
198
20
-126.75
11
198
21
-111.25
0
LINE
8
0
6
CONTINUOUS
10
198
20
-111.25
11
182.5
21
-111.25
0
LINE
8
0
6
CONTINUOUS
10
182.5
20
-111.25
11
182.5
21
-126.75
0
LINE
8
0
6
CONTINUOUS
10
201.5
20
-126.75
11
217
21
-126.75
0
LINE
8
0
6
CONTINUOUS
10
217
20
-126.75
11
217
21
-111.25
0
LINE
8
0
6
CONTINUOUS
10
217
20
-111.25
11
201.5
21
-111.25
0
LINE
8
0
6
CONTINUOUS
10
201.5
20
-111.25
11
201.5
21
-126.75
0
LINE
8
0
6
CONTINUOUS
10
108.875
20
-145.75
11
124.375
21
-145.75
0
LINE
8
0
6
CONTINUOUS
10
124.375
20
-145.75
11
124.375
21
-130.25
0
LINE
8
0
6
CONTINUOUS
10
124.375
20
-130.25
11
108.875
21
-130.25
0
LINE
8
0
6
CONTINUOUS
10
108.875
20
-130.25
11
108.875
21
-145.75
0
LINE
8
0
6
CONTINUOUS
10
135
20
-145.75
11
150.5
21
-145.75
0
LINE
8
0
6
CONTINUOUS
10
150.5
20
-145.75
11
150.5
21
-130.25
0
LINE
8
0
6
CONTINUOUS
10
150.5
20
-130.25
11
135
21
-130.25
0
LINE
8
0
6
CONTINUOUS
10
135
20
-130.25
11
135
21
-145.75
0
LINE
8
0
6
CONTINUOUS
10
154
20
-145.75
11
169.5
21
-145.75
0
LINE
8
0
6
CONTINUOUS
10
169.5
20
-145.75
11
169.5
21
-130.25
0
LINE
8
0
6
CONTINUOUS
10
169.5
20
-130.25
11
154
21
-130.25
0
LINE
8
0
6
CONTINUOUS
10
154
20
-130.25
11
154
21
-145.75
0
LINE
8
0
6
CONTINUOUS
10
173
20
-145.75
11
188.5
21
-145.75
0
LINE
8
0
6
CONTINUOUS
10
188.5
20
-145.75
11
188.5
21
-130.25
0
LINE
8
0
6
CONTINUOUS
10
188.5
20
-130.25
11
173
21
-130.25
0
LINE
8
0
6
CONTINUOUS
10
173
20
-130.25
11
173
21
-145.75
0
LINE
8
0
6
CONTINUOUS
10
192
20
-145.75
11
207.5
21
-145.75
0
LINE
8
0
6
CONTINUOUS
10
207.5
20
-145.75
11
207.5
21
-130.25
0
LINE
8
0
6
CONTINUOUS
10
207.5
20
-130.25
11
192
21
-130.25
0
LINE
8
0
6
CONTINUOUS
10
192
20
-130.25
11
192
21
-145.75
0
LINE
8
0
6
CONTINUOUS
10
211
20
-145.75
11
226.5
21
-145.75
0
LINE
8
0
6
CONTINUOUS
10
226.5
20
-145.75
11
226.5
21
-130.25
0
LINE
8
0
6
CONTINUOUS
10
226.5
20
-130.25
11
211
21
-130.25
0
LINE
8
0
6
CONTINUOUS
10
211
20
-130.25
11
211
21
-145.75
0
LINE
8
0
6
CONTINUOUS
10
104.125
20
-164.75
11
119.625
21
-164.75
0
LINE
8
0
6
CONTINUOUS
10
119.625
20
-164.75
11
119.625
21
-149.25
0
LINE
8
0
6
CONTINUOUS
10
119.625
20
-149.25
11
104.125
21
-149.25
0
LINE
8
0
6
CONTINUOUS
10
104.125
20
-149.25
11
104.125
21
-164.75
0
LINE
8
0
6
CONTINUOUS
10
127.78
20
-164.75
11
143.28
21
-164.75
0
LINE
8
0
6
CONTINUOUS
10
143.28
20
-164.75
11
143.28
21
-149.25
0
LINE
8
0
6
CONTINUOUS
10
143.28
20
-149.25
11
127.78
21
-149.25
0
LINE
8
0
6
CONTINUOUS
10
127.78
20
-149.25
11
127.78
21
-164.75
0
LINE
8
0
6
CONTINUOUS
10
201.5632799
20
-165.7477453
11
216.9477453
21
-167.6367201
0
LINE
8
0
6
CONTINUOUS
10
216.9477453
20
-167.6367201
11
218.8367201
21
-152.2522547
0
LINE
8
0
6
CONTINUOUS
10
218.8367201
20
-152.2522547
11
203.4522547
21
-150.3632799
0
LINE
8
0
6
CONTINUOUS
10
203.4522547
20
-150.3632799
11
201.5632799
21
-165.7477453
0
LINE
8
0
6
CONTINUOUS
10
238.3066969
20
-171.3866969
11
246.0566969
21
-157.9633031
0
LINE
8
0
6
CONTINUOUS
10
246.0566969
20
-157.9633031
11
232.6333031
21
-150.2133031
0
LINE
8
0
6
CONTINUOUS
10
232.6333031
20
-150.2133031
11
224.8833031
21
-163.6366969
0
LINE
8
0
6
CONTINUOUS
10
224.8833031
20
-163.6366969
11
238.3066969
21
-171.3866969
0
ENDSEC
0
EOF