0
SECTION
2
HEADER
9
$INSUNITS
70
4
0
ENDSEC
0
SECTION
2
TABLES
0
TABLE
2
LTYPE
0
LTYPE
72
65
70
0
2
CONTINUOUS
3
______
73
0
40
0
0
LTYPE
72
65
70
0
2
DASHED
3
_ _ _ 
73
2
40
7.5
49
5
49
-2.5
0
LTYPE
72
65
70
0
2
DOTTED
3
. . . 
73
2
40
1.5
49
0.5
49
-1
0
ENDTAB
0
TABLE
2
LAYER
0
ENDTAB
0
ENDSEC
0
SECTION
2
ENTITIES
0
LINE
8
0
6
CONTINUOUS
10
117.25312
20
-87.4018736
11
271.50312
21
-87.4981294
0
ARC
8
0
6
CONTINUOUS
10
271.5
20
-92.4981285
40
5
50
0
51
89.9642474
0
LINE
8
0
6
CONTINUOUS
10
276.5
20
-92.4981285
11
276.5
21
-164.5
0
ARC
8
0
6
CONTINUOUS
10
271.5
20
-164.5
40
5
50
270
51
360
0
LINE
8
0
6
CONTINUOUS
10
271.5
20
-169.5
11
212.6508118
21
-169.5
0
ARC
8
0
6
CONTINUOUS
10
212.6508118
20
-170.5
40
1
50
90
51
95.7557319
0
LINE
8
0
6
CONTINUOUS
10
212.5505242
20
-169.5050415
11
175.1506261
21
-173.2747925
0
ARC
8
0
6
CONTINUOUS
10
174.6491882
20
-168.3
40
5
50
270
51
275.7557319
0
LINE
8
0
6
CONTINUOUS
10
174.6491882
20
-173.3
11
126.9122777
21
-173.3
0
ARC
8
0
6
CONTINUOUS
10
126.9122777
20
-168.3
40
5
50
198.4349506
51
270
0
LINE
8
0
6
CONTINUOUS
10
122.1688612
20
-169.8811389
11
112.5065835
21
-140.8943059
0
ARC
8
0
6
CONTINUOUS
10
117.25
20
-139.313167
40
5
50
180
51
198.4349506
0
LINE
8
0
6
CONTINUOUS
10
112.25
20
-139.313167
11
112.25
21
-92.4018726
0
ARC
8
0
6
CONTINUOUS
10
117.25
20
-92.4018726
40
5
50
89.9642474
51
180
0
CIRCLE
8
0
6
CONTINUOUS
10
140.5
20
-100
40
1
0
CIRCLE
8
0
6
CONTINUOUS
10
139.93
20
-126.6
40
1
0
CIRCLE
8
0
6
CONTINUOUS
10
180.85
20
-151.3
40
1
0
CIRCLE
8
0
6
CONTINUOUS
10
210.65
20
-151.3
40
1
0
CIRCLE
8
0
6
CONTINUOUS
10
271.45
20
-138
40
1
0
CIRCLE
8
0
6
CONTINUOUS
10
268.18
20
-110.45
40
1
0
LINE
8
0
6
CONTINUOUS
10
143.05
20
-106.95
11
156.95
21
-106.95
0
LINE
8
0
6
CONTINUOUS
10
156.95
20
-106.95
11
156.95
21
-93.05
0
LINE
8
0
6
CONTINUOUS
10
156.95
20
-93.05
11
143.05
21
-93.05
0
LINE
8
0
6
CONTINUOUS
10
143.05
20
-93.05
11
143.05
21
-106.95
0
LINE
8
0
6
CONTINUOUS
10
162.05
20
-106.95
11
175.95
21
-106.95
0
LINE
8
0
6
CONTINUOUS
10
175.95
20
-106.95
11
175.95
21
-93.05
0
LINE
8
0
6
CONTINUOUS
10
175.95
20
-93.05
11
162.05
21
-93.05
0
LINE
8
0
6
CONTINUOUS
10
162.05
20
-93.05
11
162.05
21
-106.95
0
LINE
8
0
6
CONTINUOUS
10
181.05
20
-106.95
11
194.95
21
-106.95
0
LINE
8
0
6
CONTINUOUS
10
194.95
20
-106.95
11
194.95
21
-93.05
0
LINE
8
0
6
CONTINUOUS
10
194.95
20
-93.05
11
181.05
21
-93.05
0
LINE
8
0
6
CONTINUOUS
10
181.05
20
-93.05
11
181.05
21
-106.95
0
LINE
8
0
6
CONTINUOUS
10
200.05
20
-106.95
11
213.95
21
-106.95
0
LINE
8
0
6
CONTINUOUS
10
213.95
20
-106.95
11
213.95
21
-93.05
0
LINE
8
0
6
CONTINUOUS
10
213.95
20
-93.05
11
200.05
21
-93.05
0
LINE
8
0
6
CONTINUOUS
10
200.05
20
-93.05
11
200.05
21
-106.95
0
LINE
8
0
6
CONTINUOUS
10
219.05
20
-106.95
11
232.95
21
-106.95
0
LINE
8
0
6
CONTINUOUS
10
232.95
20
-106.95
11
232.95
21
-93.05
0
LINE
8
0
6
CONTINUOUS
10
232.95
20
-93.05
11
219.05
21
-93.05
0
LINE
8
0
6
CONTINUOUS
10
219.05
20
-93.05
11
219.05
21
-106.95
0
LINE
8
0
6
CONTINUOUS
10
238.05
20
-106.95
11
251.95
21
-106.95
0
LINE
8
0
6
CONTINUOUS
10
251.95
20
-106.95
11
251.95
21
-93.05
0
LINE
8
0
6
CONTINUOUS
10
251.95
20
-93.05
11
238.05
21
-93.05
0
LINE
8
0
6
CONTINUOUS
10
238.05
20
-93.05
11
238.05
21
-106.95
0
LINE
8
0
6
CONTINUOUS
10
257.05
20
-106.95
11
270.95
21
-106.95
0
LINE
8
0
6
CONTINUOUS
10
270.95
20
-106.95
11
270.95
21
-93.05
0
LINE
8
0
6
CONTINUOUS
10
270.95
20
-93.05
11
257.05
21
-93.05
0
LINE
8
0
6
CONTINUOUS
10
257.05
20
-93.05
11
257.05
21
-106.95
0
LINE
8
0
6
CONTINUOUS
10
150.08
20
-125.95
11
163.98
21
-125.95
0
LINE
8
0
6
CONTINUOUS
10
163.98
20
-125.95
11
163.98
21
-112.05
0
LINE
8
0
6
CONTINUOUS
10
163.98
20
-112.05
11
150.08
21
-112.05
0
LINE
8
0
6
CONTINUOUS
10
150.08
20
-112.05
11
150.08
21
-125.95
0
LINE
8
0
6
CONTINUOUS
10
169.08
20
-125.95
11
182.98
21
-125.95
0
LINE
8
0
6
CONTINUOUS
10
182.98
20
-125.95
11
182.98
21
-112.05
0
LINE
8
0
6
CONTINUOUS
10
182.98
20
-112.05
11
169.08
21
-112.05
0
LINE
8
0
6
CONTINUOUS
10
169.08
20
-112.05
11
169.08
21
-125.95
0
LINE
8
0
6
CONTINUOUS
10
188.08
20
-125.95
11
201.98
21
-125.95
0
LINE
8
0
6
CONTINUOUS
10
201.98
20
-125.95
11
201.98
21
-112.05
0
LINE
8
0
6
CONTINUOUS
10
201.98
20
-112.05
11
188.08
21
-112.05
0
LINE
8
0
6
CONTINUOUS
10
188.08
20
-112.05
11
188.08
21
-125.95
0
LINE
8
0
6
CONTINUOUS
10
207.08
20
-125.95
11
220.98
21
-125.95
0
LINE
8
0
6
CONTINUOUS
10
220.98
20
-125.95
11
220.98
21
-112.05
0
LINE
8
0
6
CONTINUOUS
10
220.98
20
-112.05
11
207.08
21
-112.05
0
LINE
8
0
6
CONTINUOUS
10
207.08
20
-112.05
11
207.08
21
-125.95
0
LINE
8
0
6
CONTINUOUS
10
226.08
20
-125.95
11
239.98
21
-125.95
0
LINE
8
0
6
CONTINUOUS
10
239.98
20
-125.95
11
239.98
21
-112.05
0
LINE
8
0
6
CONTINUOUS
10
239.98
20
-112.05
11
226.08
21
-112.05
0
LINE
8
0
6
CONTINUOUS
10
226.08
20
-112.05
11
226.08
21
-125.95
0
LINE
8
0
6
CONTINUOUS
10
249.83
20
-125.95
11
263.73
21
-125.95
0
LINE
8
0
6
CONTINUOUS
10
263.73
20
-125.95
11
263.73
21
-112.05
0
LINE
8
0
6
CONTINUOUS
10
263.73
20
-112.05
11
249.83
21
-112.05
0
LINE
8
0
6
CONTINUOUS
10
249.83
20
-112.05
11
249.83
21
-125.95
0
LINE
8
0
6
CONTINUOUS
10
140.05
20
-144.95
11
153.95
21
-144.95
0
LINE
8
0
6
CONTINUOUS
10
153.95
20
-144.95
11
153.95
21
-131.05
0
LINE
8
0
6
CONTINUOUS
10
153.95
20
-131.05
11
140.05
21
-131.05
0
LINE
8
0
6
CONTINUOUS
10
140.05
20
-131.05
11
140.05
21
-144.95
0
LINE
8
0
6
CONTINUOUS
10
159.05
20
-144.95
11
172.95
21
-144.95
0
LINE
8
0
6
CONTINUOUS
10
172.95
20
-144.95
11
172.95
21
-131.05
0
LINE
8
0
6
CONTINUOUS
10
172.95
20
-131.05
11
159.05
21
-131.05
0
LINE
8
0
6
CONTINUOUS
10
159.05
20
-131.05
11
159.05
21
-144.95
0
LINE
8
0
6
CONTINUOUS
10
178.05
20
-144.95
11
191.95
21
-144.95
0
LINE
8
0
6
CONTINUOUS
10
191.95
20
-144.95
11
191.95
21
-131.05
0
LINE
8
0
6
CONTINUOUS
10
191.95
20
-131.05
11
178.05
21
-131.05
0
LINE
8
0
6
CONTINUOUS
10
178.05
20
-131.05
11
178.05
21
-144.95
0
LINE
8
0
6
CONTINUOUS
10
197.05
20
-144.95
11
210.95
21
-144.95
0
LINE
8
0
6
CONTINUOUS
10
210.95
20
-144.95
11
210.95
21
-131.05
0
LINE
8
0
6
CONTINUOUS
10
210.95
20
-131.05
11
197.05
21
-131.05
0
LINE
8
0
6
CONTINUOUS
10
197.05
20
-131.05
11
197.05
21
-144.95
0
LINE
8
0
6
CONTINUOUS
10
216.05
20
-144.95
11
229.95
21
-144.95
0
LINE
8
0
6
CONTINUOUS
10
229.95
20
-144.95
11
229.95
21
-131.05
0
LINE
8
0
6
CONTINUOUS
10
229.95
20
-131.05
11
216.05
21
-131.05
0
LINE
8
0
6
CONTINUOUS
10
216.05
20
-131.05
11
216.05
21
-144.95
0
LINE
8
0
6
CONTINUOUS
10
235.05
20
-144.95
11
248.95
21
-144.95
0
LINE
8
0
6
CONTINUOUS
10
248.95
20
-144.95
11
248.95
21
-131.05
0
LINE
8
0
6
CONTINUOUS
10
248.95
20
-131.05
11
235.05
21
-131.05
0
LINE
8
0
6
CONTINUOUS
10
235.05
20
-131.05
11
235.05
21
-144.95
0
LINE
8
0
6
CONTINUOUS
10
254.05
20
-144.95
11
267.95
21
-144.95
0
LINE
8
0
6
CONTINUOUS
10
267.95
20
-144.95
11
267.95
21
-131.05
0
LINE
8
0
6
CONTINUOUS
10
267.95
20
-131.05
11
254.05
21
-131.05
0
LINE
8
0
6
CONTINUOUS
10
254.05
20
-131.05
11
254.05
21
-144.95
0
LINE
8
0
6
CONTINUOUS
10
216.05
20
-163.95
11
229.95
21
-163.95
0
LINE
8
0
6
CONTINUOUS
10
229.95
20
-163.95
11
229.95
21
-150.05
0
LINE
8
0
6
CONTINUOUS
10
229.95
20
-150.05
11
216.05
21
-150.05
0
LINE
8
0
6
CONTINUOUS
10
216.05
20
-150.05
11
216.05
21
-163.95
0
LINE
8
0
6
CONTINUOUS
10
235.05
20
-163.95
11
248.95
21
-163.95
0
LINE
8
0
6
CONTINUOUS
10
248.95
20
-163.95
11
248.95
21
-150.05
0
LINE
8
0
6
CONTINUOUS
10
248.95
20
-150.05
11
235.05
21
-150.05
0
LINE
8
0
6
CONTINUOUS
10
235.05
20
-150.05
11
235.05
21
-163.95
0
LINE
8
0
6
CONTINUOUS
10
254.05
20
-163.95
11
267.95
21
-163.95
0
LINE
8
0
6
CONTINUOUS
10
267.95
20
-163.95
11
267.95
21
-150.05
0
LINE
8
0
6
CONTINUOUS
10
267.95
20
-150.05
11
254.05
21
-150.05
0
LINE
8
0
6
CONTINUOUS
10
254.05
20
-150.05
11
254.05
21
-163.95
0
LINE
8
0
6
CONTINUOUS
10
133.05
20
-167.75
11
146.95
21
-167.75
0
LINE
8
0
6
CONTINUOUS
10
146.95
20
-167.75
11
146.95
21
-153.85
0
LINE
8
0
6
CONTINUOUS
10
146.95
20
-153.85
11
133.05
21
-153.85
0
LINE
8
0
6
CONTINUOUS
10
133.05
20
-153.85
11
133.05
21
-167.75
0
LINE
8
0
6
CONTINUOUS
10
161.55
20
-167.75
11
175.45
21
-167.75
0
LINE
8
0
6
CONTINUOUS
10
175.45
20
-167.75
11
175.45
21
-153.85
0
LINE
8
0
6
CONTINUOUS
10
175.45
20
-153.85
11
161.55
21
-153.85
0
LINE
8
0
6
CONTINUOUS
10
161.55
20
-153.85
11
161.55
21
-167.75
0
ENDSEC
0
EOF