0
SECTION
2
HEADER
9
$INSUNITS
70
4
0
ENDSEC
0
SECTION
2
TABLES
0
TABLE
2
LTYPE
0
LTYPE
72
65
70
0
2
CONTINUOUS
3
______
73
0
40
0
0
LTYPE
72
65
70
0
2
DASHED
3
_ _ _ 
73
2
40
7.5
49
5
49
-2.5
0
LTYPE
72
65
70
0
2
DOTTED
3
. . . 
73
2
40
1.5
49
0.5
49
-1
0
ENDTAB
0
TABLE
2
LAYER
0
ENDTAB
0
ENDSEC
0
SECTION
2
ENTITIES
0
LINE
8
0
6
CONTINUOUS
10
251.9467939
20
-87.4019253
11
101.9872001
21
-87.4980841
0
ARC
8
0
6
CONTINUOUS
10
101.9904062
20
-92.4980831
40
5
50
90.0367381
51
179.816361
0
LINE
8
0
6
CONTINUOUS
10
96.9904319
20
-92.4820576
11
96.7596565
21
-164.4839745
0
ARC
8
0
6
CONTINUOUS
10
101.7596308
20
-164.5
40
5
50
179.816361
51
270
0
LINE
8
0
6
CONTINUOUS
10
101.7596308
20
-169.5
11
148.5292403
21
-169.5
0
ARC
8
0
6
CONTINUOUS
10
148.5292403
20
-170.5
40
1
50
85.1991571
51
90
0
LINE
8
0
6
CONTINUOUS
10
148.6129328
20
-169.5035084
11
193.6072971
21
-173.2824582
0
ARC
8
0
6
CONTINUOUS
10
194.0257597
20
-168.3
40
5
50
265.1991571
51
270
0
LINE
8
0
6
CONTINUOUS
10
194.0257597
20
-173.3
11
242.2877223
21
-173.3
0
ARC
8
0
6
CONTINUOUS
10
242.2877223
20
-168.3
40
5
50
270
51
341.5650494
0
LINE
8
0
6
CONTINUOUS
10
247.0311388
20
-169.8811389
11
256.6934165
21
-140.8943059
0
ARC
8
0
6
CONTINUOUS
10
251.95
20
-139.313167
40
5
50
341.5650494
51
360
0
LINE
8
0
6
CONTINUOUS
10
256.95
20
-139.313167
11
256.95
21
-92.4019243
0
ARC
8
0
6
CONTINUOUS
10
251.95
20
-92.4019243
40
5
50
0
51
90.0367381
0
CIRCLE
8
0
6
CONTINUOUS
10
154.53
20
-151.3
40
1
0
CIRCLE
8
0
6
CONTINUOUS
10
181.2
20
-156.05
40
1
0
CIRCLE
8
0
6
CONTINUOUS
10
217.8
20
-94.3
40
1
0
CIRCLE
8
0
6
CONTINUOUS
10
103.325
20
-138
40
1
0
CIRCLE
8
0
6
CONTINUOUS
10
232.05
20
-138
40
1
0
CIRCLE
8
0
6
CONTINUOUS
10
122.8
20
-111.4
40
1
0
LINE
8
0
6
CONTINUOUS
10
101.75
20
-107.75
11
117.25
21
-107.75
0
LINE
8
0
6
CONTINUOUS
10
117.25
20
-107.75
11
117.25
21
-92.25
0
LINE
8
0
6
CONTINUOUS
10
117.25
20
-92.25
11
101.75
21
-92.25
0
LINE
8
0
6
CONTINUOUS
10
101.75
20
-92.25
11
101.75
21
-107.75
0
LINE
8
0
6
CONTINUOUS
10
120.75
20
-107.75
11
136.25
21
-107.75
0
LINE
8
0
6
CONTINUOUS
10
136.25
20
-107.75
11
136.25
21
-92.25
0
LINE
8
0
6
CONTINUOUS
10
136.25
20
-92.25
11
120.75
21
-92.25
0
LINE
8
0
6
CONTINUOUS
10
120.75
20
-92.25
11
120.75
21
-107.75
0
LINE
8
0
6
CONTINUOUS
10
139.75
20
-107.75
11
155.25
21
-107.75
0
LINE
8
0
6
CONTINUOUS
10
155.25
20
-107.75
11
155.25
21
-92.25
0
LINE
8
0
6
CONTINUOUS
10
155.25
20
-92.25
11
139.75
21
-92.25
0
LINE
8
0
6
CONTINUOUS
10
139.75
20
-92.25
11
139.75
21
-107.75
0
LINE
8
0
6
CONTINUOUS
10
158.75
20
-107.75
11
174.25
21
-107.75
0
LINE
8
0
6
CONTINUOUS
10
174.25
20
-107.75
11
174.25
21
-92.25
0
LINE
8
0
6
CONTINUOUS
10
174.25
20
-92.25
11
158.75
21
-92.25
0
LINE
8
0
6
CONTINUOUS
10
158.75
20
-92.25
11
158.75
21
-107.75
0
LINE
8
0
6
CONTINUOUS
10
177.75
20
-107.75
11
193.25
21
-107.75
0
LINE
8
0
6
CONTINUOUS
10
193.25
20
-107.75
11
193.25
21
-92.25
0
LINE
8
0
6
CONTINUOUS
10
193.25
20
-92.25
11
177.75
21
-92.25
0
LINE
8
0
6
CONTINUOUS
10
177.75
20
-92.25
11
177.75
21
-107.75
0
LINE
8
0
6
CONTINUOUS
10
196.75
20
-107.75
11
212.25
21
-107.75
0
LINE
8
0
6
CONTINUOUS
10
212.25
20
-107.75
11
212.25
21
-92.25
0
LINE
8
0
6
CONTINUOUS
10
212.25
20
-92.25
11
196.75
21
-92.25
0
LINE
8
0
6
CONTINUOUS
10
196.75
20
-92.25
11
196.75
21
-107.75
0
LINE
8
0
6
CONTINUOUS
10
104.125
20
-126.75
11
119.625
21
-126.75
0
LINE
8
0
6
CONTINUOUS
10
119.625
20
-126.75
11
119.625
21
-111.25
0
LINE
8
0
6
CONTINUOUS
10
119.625
20
-111.25
11
104.125
21
-111.25
0
LINE
8
0
6
CONTINUOUS
10
104.125
20
-111.25
11
104.125
21
-126.75
0
LINE
8
0
6
CONTINUOUS
10
125.5
20
-126.75
11
141
21
-126.75
0
LINE
8
0
6
CONTINUOUS
10
141
20
-126.75
11
141
21
-111.25
0
LINE
8
0
6
CONTINUOUS
10
141
20
-111.25
11
125.5
21
-111.25
0
LINE
8
0
6
CONTINUOUS
10
125.5
20
-111.25
11
125.5
21
-126.75
0
LINE
8
0
6
CONTINUOUS
10
144.5
20
-126.75
11
160
21
-126.75
0
LINE
8
0
6
CONTINUOUS
10
160
20
-126.75
11
160
21
-111.25
0
LINE
8
0
6
CONTINUOUS
10
160
20
-111.25
11
144.5
21
-111.25
0
LINE
8
0
6
CONTINUOUS
10
144.5
20
-111.25
11
144.5
21
-126.75
0
LINE
8
0
6
CONTINUOUS
10
163.5
20
-126.75
11
179
21
-126.75
0
LINE
8
0
6
CONTINUOUS
10
179
20
-126.75
11
179
21
-111.25
0
LINE
8
0
6
CONTINUOUS
10
179
20
-111.25
11
163.5
21
-111.25
0
LINE
8
0
6
CONTINUOUS
10
163.5
20
-111.25
11
163.5
21
-126.75
0
LINE
8
0
6
CONTINUOUS
10
182.5
20
-126.75
11
198
21
-126.75
0
LINE
8
0
6
CONTINUOUS
10
198
20
-126.75
11
198
21
-111.25
0
LINE
8
0
6
CONTINUOUS
10
198
20
-111.25
11
182.5
21
-111.25
0
LINE
8
0
6
CONTINUOUS
10
182.5
20
-111.25
11
182.5
21
-126.75
0
LINE
8
0
6
CONTINUOUS
10
201.5
20
-126.75
11
217
21
-126.75
0
LINE
8
0
6
CONTINUOUS
10
217
20
-126.75
11
217
21
-111.25
0
LINE
8
0
6
CONTINUOUS
10
217
20
-111.25
11
201.5
21
-111.25
0
LINE
8
0
6
CONTINUOUS
10
201.5
20
-111.25
11
201.5
21
-126.75
0
LINE
8
0
6
CONTINUOUS
10
108.875
20
-145.75
11
124.375
21
-145.75
0
LINE
8
0
6
CONTINUOUS
10
124.375
20
-145.75
11
124.375
21
-130.25
0
LINE
8
0
6
CONTINUOUS
10
124.375
20
-130.25
11
108.875
21
-130.25
0
LINE
8
0
6
CONTINUOUS
10
108.875
20
-130.25
11
108.875
21
-145.75
0
LINE
8
0
6
CONTINUOUS
10
135
20
-145.75
11
150.5
21
-145.75
0
LINE
8
0
6
CONTINUOUS
10
150.5
20
-145.75
11
150.5
21
-130.25
0
LINE
8
0
6
CONTINUOUS
10
150.5
20
-130.25
11
135
21
-130.25
0
LINE
8
0
6
CONTINUOUS
10
135
20
-130.25
11
135
21
-145.75
0
LINE
8
0
6
CONTINUOUS
10
154
20
-145.75
11
169.5
21
-145.75
0
LINE
8
0
6
CONTINUOUS
10
169.5
20
-145.75
11
169.5
21
-130.25
0
LINE
8
0
6
CONTINUOUS
10
169.5
20
-130.25
11
154
21
-130.25
0
LINE
8
0
6
CONTINUOUS
10
154
20
-130.25
11
154
21
-145.75
0
LINE
8
0
6
CONTINUOUS
10
173
20
-145.75
11
188.5
21
-145.75
0
LINE
8
0
6
CONTINUOUS
10
188.5
20
-145.75
11
188.5
21
-130.25
0
LINE
8
0
6
CONTINUOUS
10
188.5
20
-130.25
11
173
21
-130.25
0
LINE
8
0
6
CONTINUOUS
10
173
20
-130.25
11
173
21
-145.75
0
LINE
8
0
6
CONTINUOUS
10
192
20
-145.75
11
207.5
21
-145.75
0
LINE
8
0
6
CONTINUOUS
10
207.5
20
-145.75
11
207.5
21
-130.25
0
LINE
8
0
6
CONTINUOUS
10
207.5
20
-130.25
11
192
21
-130.25
0
LINE
8
0
6
CONTINUOUS
10
192
20
-130.25
11
192
21
-145.75
0
LINE
8
0
6
CONTINUOUS
10
211
20
-145.75
11
226.5
21
-145.75
0
LINE
8
0
6
CONTINUOUS
10
226.5
20
-145.75
11
226.5
21
-130.25
0
LINE
8
0
6
CONTINUOUS
10
226.5
20
-130.25
11
211
21
-130.25
0
LINE
8
0
6
CONTINUOUS
10
211
20
-130.25
11
211
21
-145.75
0
LINE
8
0
6
CONTINUOUS
10
104.125
20
-164.75
11
119.625
21
-164.75
0
LINE
8
0
6
CONTINUOUS
10
119.625
20
-164.75
11
119.625
21
-149.25
0
LINE
8
0
6
CONTINUOUS
10
119.625
20
-149.25
11
104.125
21
-149.25
0
LINE
8
0
6
CONTINUOUS
10
104.125
20
-149.25
11
104.125
21
-164.75
0
LINE
8
0
6
CONTINUOUS
10
127.78
20
-164.75
11
143.28
21
-164.75
0
LINE
8
0
6
CONTINUOUS
10
143.28
20
-164.75
11
143.28
21
-149.25
0
LINE
8
0
6
CONTINUOUS
10
143.28
20
-149.25
11
127.78
21
-149.25
0
LINE
8
0
6
CONTINUOUS
10
127.78
20
-149.25
11
127.78
21
-164.75
0
LINE
8
0
6
CONTINUOUS
10
192.45
20
-168.55
11
207.95
21
-168.55
0
LINE
8
0
6
CONTINUOUS
10
207.95
20
-168.55
11
207.95
21
-153.05
0
LINE
8
0
6
CONTINUOUS
10
207.95
20
-153.05
11
192.45
21
-153.05
0
LINE
8
0
6
CONTINUOUS
10
192.45
20
-153.05
11
192.45
21
-168.55
0
LINE
8
0
6
CONTINUOUS
10
221.45
20
-168.55
11
236.95
21
-168.55
0
LINE
8
0
6
CONTINUOUS
10
236.95
20
-168.55
11
236.95
21
-153.05
0
LINE
8
0
6
CONTINUOUS
10
236.95
20
-153.05
11
221.45
21
-153.05
0
LINE
8
0
6
CONTINUOUS
10
221.45
20
-153.05
11
221.45
21
-168.55
0
ENDSEC
0
EOF