0
SECTION
2
HEADER
9
$INSUNITS
70
4
0
ENDSEC
0
SECTION
2
TABLES
0
TABLE
2
LTYPE
0
LTYPE
72
65
70
0
2
CONTINUOUS
3
______
73
0
40
0
0
LTYPE
72
65
70
0
2
DASHED
3
_ _ _ 
73
2
40
7.5
49
5
49
-2.5
0
LTYPE
72
65
70
0
2
DOTTED
3
. . . 
73
2
40
1.5
49
0.5
49
-1
0
ENDTAB
0
TABLE
2
LAYER
0
ENDTAB
0
ENDSEC
0
SECTION
2
ENTITIES
0
LINE
8
0
6
CONTINUOUS
10
242.2928211
20
-87.5
11
101.9904
21
-87.5
0
ARC
8
0
6
CONTINUOUS
10
101.9904
20
-92.5
40
5
50
90
51
179.816361
0
LINE
8
0
6
CONTINUOUS
10
96.9904257
20
-92.4839745
11
96.7596564
21
-164.4839745
0
ARC
8
0
6
CONTINUOUS
10
101.7596308
20
-164.5
40
5
50
179.816361
51
270
0
LINE
8
0
6
CONTINUOUS
10
101.7596308
20
-169.5
11
145.655
21
-169.5
0
ARC
8
0
6
CONTINUOUS
10
145.655
20
-164.5
40
5
50
270
51
360
0
LINE
8
0
6
CONTINUOUS
10
150.655
20
-164.5
11
150.655
21
-160.0425704
0
ARC
8
0
6
CONTINUOUS
10
151.655
20
-160.0425704
40
1
50
89.1927044
51
180
0
LINE
8
0
6
CONTINUOUS
10
151.6690895
20
-159.0426697
11
196.4072918
21
-159.6730704
0
ARC
8
0
6
CONTINUOUS
10
196.3932023
20
-160.6729712
40
1
50
353.0000028
51
449.1927044
0
LINE
8
0
6
CONTINUOUS
10
197.3857485
20
-160.7948404
11
196.8251027
21
-165.3609342
0
ARC
8
0
6
CONTINUOUS
10
201.7878335
20
-165.9702807
40
5
50
173.0000028
51
253.8728254
0
LINE
8
0
6
CONTINUOUS
10
200.398982
20
-170.7735184
11
234.1253431
21
-180.5254623
0
ARC
8
0
6
CONTINUOUS
10
235.5148021
20
-175.7224004
40
5
50
253.8821811
51
329.9999999
0
LINE
8
0
6
CONTINUOUS
10
239.8449291
20
-178.2224004
11
253.5183937
21
-154.539265
0
ARC
8
0
6
CONTINUOUS
10
249.1882667
20
-152.039265
40
5
50
329.9999999
51
360
0
LINE
8
0
6
CONTINUOUS
10
254.1882667
20
-152.039265
11
254.1882667
21
-99.1215139
0
ARC
8
0
6
CONTINUOUS
10
249.1882667
20
-99.1215139
40
5
50
0
51
46.1609825
0
LINE
8
0
6
CONTINUOUS
10
252.650983
20
-95.5146322
11
245.7564498
21
-88.8939944
0
ARC
8
0
6
CONTINUOUS
10
242.2928211
20
-92.5
40
5
50
46.1609825
51
90
0
LINE
8
0
6
CONTINUOUS
10
242.2928211
20
-89.5
11
101.9904
21
-89.5
0
LINE
8
0
6
CONTINUOUS
10
98.9904154
20
-92.4903847
11
98.7596462
21
-164.4903847
0
LINE
8
0
6
CONTINUOUS
10
101.7596308
20
-167.5
11
145.655
21
-167.5
0
LINE
8
0
6
CONTINUOUS
10
148.655
20
-164.5
11
148.655
21
-160.0425704
0
LINE
8
0
6
CONTINUOUS
10
151.6972685
20
-157.0428682
11
196.4354708
21
-157.673269
0
LINE
8
0
6
CONTINUOUS
10
199.3708408
20
-161.0385791
11
198.810195
21
-165.6046728
0
LINE
8
0
6
CONTINUOUS
10
200.9545226
20
-168.8522233
11
234.6814912
21
-178.604343
0
LINE
8
0
6
CONTINUOUS
10
238.1128783
20
-177.2224004
11
251.7863429
21
-153.539265
0
LINE
8
0
6
CONTINUOUS
10
252.1882667
20
-152.039265
11
252.1882667
21
-99.1215139
0
LINE
8
0
6
CONTINUOUS
10
251.2661702
20
-96.9576478
11
244.3707247
21
-90.3361338
0
ARC
8
0
6
CONTINUOUS
10
101.9904
20
-92.5
40
3
50
90
51
179.816361
0
ARC
8
0
6
CONTINUOUS
10
101.7596308
20
-164.5
40
3
50
179.816361
51
270
0
ARC
8
0
6
CONTINUOUS
10
145.655
20
-164.5
40
3
50
270
51
0
0
ARC
8
0
6
CONTINUOUS
10
151.655
20
-160.0425704
40
3
50
89.1927044
51
180
0
ARC
8
0
6
CONTINUOUS
10
196.3932023
20
-160.6729712
40
3
50
353.0000028
51
89.1927044
0
ARC
8
0
6
CONTINUOUS
10
201.7878335
20
-165.9702807
40
3
50
173.0000028
51
253.8728254
0
ARC
8
0
6
CONTINUOUS
10
235.5148021
20
-175.7224004
40
3
50
253.8728254
51
329.9999999
0
ARC
8
0
6
CONTINUOUS
10
249.1882667
20
-152.039265
40
3
50
329.9999999
51
0
0
ARC
8
0
6
CONTINUOUS
10
249.1882667
20
-99.1215139
40
3
50
0
51
46.1609825
0
ARC
8
0
6
CONTINUOUS
10
242.2928211
20
-92.5
40
3
50
46.1609825
51
90
0
ENDSEC
0
EOF